<svg width="750" height="726" viewBox="0 0 750 726" fill="none" xmlns="http://www.w3.org/2000/svg">
<g clip-path="url(#clip0_20_1082)">
<path d="M684.227 693.81C683.425 693.847 682.632 693.637 681.954 693.207C681.276 692.778 680.746 692.151 680.437 691.411C680.127 690.67 680.052 689.853 680.223 689.069C680.394 688.284 680.801 687.572 681.39 687.027L681.659 685.961C681.623 685.876 681.588 685.79 681.552 685.705C680.745 683.798 679.391 682.171 677.663 681.031C675.934 679.89 673.906 679.285 671.835 679.293C669.764 679.301 667.741 679.92 666.021 681.074C664.3 682.228 662.96 683.864 662.166 685.777C658.996 693.414 654.959 701.063 653.965 709.137C653.527 712.706 653.712 716.324 654.511 719.83C647.064 703.585 643.196 685.929 643.172 668.059C643.17 663.574 643.419 659.094 643.918 654.637C644.33 650.984 644.902 647.356 645.633 643.755C649.625 624.214 658.195 605.899 670.639 590.313C676.662 587.026 681.533 581.973 684.595 575.833C685.705 573.626 686.489 571.27 686.923 568.838C686.244 568.927 684.361 558.579 684.874 557.944C683.927 556.508 682.232 555.793 681.198 554.391C676.055 547.419 668.969 548.636 665.27 558.112C657.368 562.1 657.292 568.714 662.14 575.075C665.225 579.122 665.649 584.599 668.356 588.931C668.077 589.288 667.787 589.633 667.509 589.99C662.419 596.535 657.982 603.564 654.263 610.975C655.167 602.672 654.088 594.274 651.113 586.47C648.098 579.197 642.448 573.072 637.472 566.785C631.494 559.233 619.238 562.528 618.185 572.102C618.174 572.195 618.165 572.287 618.155 572.38C618.894 572.797 619.617 573.239 620.325 573.708C621.215 574.302 621.904 575.151 622.302 576.143C622.701 577.136 622.791 578.225 622.559 579.27C622.328 580.314 621.786 581.264 621.006 581.995C620.225 582.727 619.242 583.205 618.185 583.368L618.077 583.385C618.34 586.049 618.806 588.689 619.469 591.282C613.085 615.97 626.867 624.961 646.547 625.365C646.981 625.588 647.404 625.811 647.839 626.022C644.102 636.612 641.758 647.642 640.866 658.836C640.361 665.44 640.391 672.074 640.955 678.674L640.922 678.44C639.496 671.102 635.581 664.48 629.839 659.694C621.31 652.688 609.261 650.108 600.06 644.476C599.082 643.849 597.945 643.513 596.783 643.511C595.621 643.508 594.482 643.837 593.501 644.46C592.52 645.083 591.738 645.974 591.247 647.027C590.755 648.08 590.575 649.252 590.728 650.404C590.74 650.486 590.753 650.568 590.766 650.65C592.137 651.208 593.473 651.852 594.764 652.576C595.503 652.993 596.227 653.436 596.935 653.904C597.824 654.498 598.513 655.347 598.912 656.34C599.31 657.332 599.4 658.422 599.168 659.466C598.937 660.51 598.396 661.46 597.615 662.192C596.835 662.923 595.852 663.402 594.794 663.564L594.686 663.581C594.608 663.592 594.541 663.603 594.463 663.615C596.807 669.21 600.096 674.361 604.187 678.841C608.179 700.392 625.323 702.437 643.662 696.161H643.673C645.685 704.905 648.6 713.415 652.372 721.556H683.448C683.56 721.211 683.66 720.855 683.76 720.509C680.884 720.69 677.996 720.518 675.161 719.997C677.467 717.168 679.772 714.316 682.078 711.487C682.13 711.434 682.178 711.379 682.223 711.32C683.392 709.872 684.573 708.435 685.743 706.987L685.743 706.986C685.806 702.547 685.295 698.119 684.227 693.81Z" fill="#F2F2F2"/>
<path d="M632.446 417.471C640.682 387.567 656.045 362.098 680.85 342.504C681.831 340.988 683.374 339.923 685.14 339.543C686.905 339.163 688.75 339.499 690.268 340.477L746.885 377.032C748.401 378.014 749.466 379.557 749.846 381.322C750.226 383.088 749.891 384.932 748.913 386.451L700.509 461.418C699.527 462.934 697.984 463.999 696.219 464.379C694.453 464.759 692.609 464.423 691.09 463.445L634.474 426.89C632.957 425.908 631.892 424.365 631.512 422.6C631.132 420.834 631.468 418.99 632.446 417.471Z" fill="#F2F2F2"/>
<path d="M651.409 397.632C653.531 381.832 666.602 365.68 682.527 349.437C683.446 348.017 684.891 347.019 686.545 346.663C688.198 346.307 689.926 346.622 691.348 347.538L740.005 378.954C741.425 379.873 742.422 381.318 742.779 382.972C743.135 384.626 742.82 386.353 741.904 387.775L698.831 454.485C697.912 455.905 696.467 456.903 694.814 457.259C693.16 457.615 691.433 457.3 690.011 456.384L659.868 436.922C653.543 432.828 649.1 426.392 647.514 419.027C645.928 411.661 647.329 403.967 651.409 397.632Z" fill="white"/>
<path d="M655.75 462.055C648.566 431.88 649.764 402.161 662.066 373.043C662.196 371.241 663.035 369.565 664.4 368.381C665.764 367.198 667.542 366.604 669.344 366.73L736.568 371.5C738.369 371.63 740.045 372.469 741.229 373.833C742.412 375.197 743.006 376.975 742.881 378.777L736.565 467.789C736.435 469.59 735.596 471.267 734.231 472.45C732.867 473.634 731.089 474.228 729.287 474.102L662.064 469.332C660.262 469.202 658.586 468.363 657.402 466.999C656.219 465.634 655.625 463.856 655.75 462.055Z" fill="#F2F2F2"/>
<path d="M662.815 435.535C657.065 420.666 660.741 400.216 666.875 378.31C666.997 376.623 667.783 375.053 669.06 373.945C670.338 372.836 672.003 372.28 673.691 372.398L731.464 376.497C733.151 376.619 734.721 377.405 735.829 378.682C736.938 379.96 737.494 381.625 737.376 383.313L731.756 462.521C731.634 464.208 730.848 465.778 729.571 466.887C728.293 467.995 726.628 468.551 724.94 468.434L689.151 465.894C681.636 465.352 674.643 461.852 669.705 456.16C664.768 450.469 662.29 443.051 662.815 435.535Z" fill="white"/>
<path d="M661.547 275.78L632.748 169.185C631.514 164.673 628.556 160.826 624.512 158.475C620.467 156.125 615.66 155.459 611.129 156.621C608.785 157.222 606.588 158.294 604.671 159.772C602.755 161.25 601.16 163.103 599.983 165.218C598.806 167.332 598.073 169.664 597.826 172.072C597.58 174.479 597.827 176.912 598.552 179.221L631.862 289.029L649.289 356.606C646.751 358.544 644.871 361.217 643.904 364.261C642.938 367.304 642.932 370.572 643.887 373.619C644.842 376.667 646.713 379.346 649.244 381.293C651.775 383.241 654.844 384.362 658.034 384.504C661.225 384.647 664.381 383.803 667.076 382.089C669.77 380.375 671.872 377.873 673.095 374.923C674.318 371.972 674.603 368.717 673.911 365.6C673.22 362.482 671.585 359.653 669.229 357.496L661.547 275.78Z" fill="#FFB6B6"/>
<path d="M453.85 294.22L483.384 187.827C484.622 183.316 484.037 178.498 481.755 174.415C479.472 170.332 475.676 167.309 471.185 166C468.861 165.323 466.424 165.126 464.022 165.422C461.62 165.717 459.304 166.498 457.214 167.718C455.124 168.938 453.304 170.571 451.865 172.517C450.427 174.463 449.4 176.682 448.847 179.038L421.556 290.495L402.119 357.521C398.947 357.896 395.968 359.237 393.585 361.364C391.203 363.49 389.533 366.299 388.802 369.408C388.071 372.516 388.315 375.775 389.501 378.74C390.686 381.705 392.756 384.234 395.428 385.982C398.101 387.73 401.247 388.613 404.439 388.511C407.631 388.409 410.714 387.327 413.269 385.411C415.825 383.496 417.729 380.841 418.722 377.805C419.716 374.77 419.751 371.503 418.823 368.447L453.85 294.22Z" fill="#FFB6B6"/>
<path d="M622.86 702.907L604.039 702.906L595.087 630.316L622.862 630.317L622.86 702.907Z" fill="#FFB6B6"/>
<path d="M623.522 722.54L565.649 722.538V721.806C565.65 715.832 568.023 710.103 572.247 705.878C576.471 701.654 582.201 699.281 588.175 699.28L598.747 691.261L618.471 699.282L623.522 699.282L623.522 722.54Z" fill="#2F2E41"/>
<path d="M490.422 703.097L471.894 699.791L475.822 626.756L503.167 631.633L490.422 703.097Z" fill="#FFB6B6"/>
<path d="M487.627 722.54L430.654 712.379L430.782 711.659C431.831 705.778 435.173 700.554 440.074 697.137C444.974 693.72 451.031 692.389 456.912 693.437L468.728 687.398L486.737 698.756L491.711 699.643L487.627 722.54Z" fill="#2F2E41"/>
<path d="M492.256 369.149C492.256 369.149 474.717 393.992 475.432 402.329C476.147 410.665 482.341 404.015 476.147 410.665C469.952 417.316 466.343 412.854 469.387 421.071C472.43 429.287 473.669 423.966 472.43 429.287C471.191 434.607 473.669 638.115 473.669 638.115H505.922C505.922 638.115 524.11 520.112 521.808 514.603C519.505 509.094 519.558 511.492 522.009 505.637C524.461 499.783 526.767 492.818 526.767 492.818L552.261 421.071L571.926 522.09L595.074 642.13H625.982C625.982 642.13 631.274 465.609 633.614 463.409C635.954 461.21 633.155 456.267 630.219 453.418C627.283 450.569 627.868 447.676 628.814 441.807C629.76 435.938 633.752 432.664 633.614 428.98C633.477 425.297 642.148 366.772 628.521 357.461C614.894 348.15 492.256 369.149 492.256 369.149Z" fill="#2F2E41"/>
<path d="M600.098 121.695L564.02 112.346L547.179 89.119L507.185 94.0357L498.671 125.718L470.198 142.245C521.239 142.55 493.752 290.418 501.254 299.958C507.359 307.722 470.784 326.191 482.246 337.973C493.709 349.755 489.471 345.04 486.811 357.867C484.151 370.694 464.761 384.269 486.811 384.134C508.861 384 641.914 382.099 638.113 366.893C634.311 351.687 634.371 355.548 628.639 346.014C622.907 336.481 619.049 341.808 620.978 327.74C622.907 313.672 616.642 302.79 621.006 296.565C627.705 287.009 620.954 218.031 614.637 219.872L600.098 121.695Z" fill="#0B6FF4"/>
<path d="M589.797 122.188C589.797 122.188 616.187 110.977 625.691 131.885C628.726 138.563 631.282 155.336 633.745 151.617C636.208 147.897 633.832 156.052 635.356 156.062C636.717 156.071 638.809 153.87 637.228 161.452C636.732 163.939 636.875 166.512 637.642 168.929C638.409 171.346 639.776 173.53 641.615 175.276L595.748 202.746L589.797 122.188Z" fill="#0B6FF4"/>
<path d="M490.642 141.196C490.642 141.196 464.252 129.984 454.748 150.892C452.075 156.773 452.74 169.839 447.535 168.372C442.331 166.905 446.026 172.432 445.339 174.352C444.573 176.492 447.915 182.548 443.222 180.429C438.529 178.309 438.824 194.283 438.824 194.283L484.691 221.754L490.642 141.196Z" fill="#0B6FF4"/>
<path d="M503.155 109.882L495.552 123.187C495.552 123.187 474.643 134.592 474.643 136.493C474.643 138.393 478.445 153.914 474.643 166.112C470.842 178.309 481.9 201.249 484.147 220.126C493.651 299.958 465.389 328.965 459.437 379.79L519.753 397.405C519.753 397.405 529.765 263.843 529.765 233.431C529.765 203.019 503.155 109.882 503.155 109.882Z" fill="#2F2E41"/>
<path d="M558.277 104.18L573.815 113.017C573.815 113.017 594.148 117.501 594.391 119.386C594.634 121.271 594.706 141.307 600.035 152.919C605.363 164.532 603.895 170.706 618.245 205.035C625.577 222.574 642.41 362.905 642.41 362.905L584.839 388.08C584.839 388.08 557.848 256.891 553.963 226.729C550.079 196.566 558.277 104.18 558.277 104.18Z" fill="#2F2E41"/>
<path d="M519.425 86.0577C541.131 86.0577 558.727 68.4615 558.727 46.7555C558.727 25.0495 541.131 7.45337 519.425 7.45337C497.719 7.45337 480.123 25.0495 480.123 46.7555C480.123 68.4615 497.719 86.0577 519.425 86.0577Z" fill="#FFB6B6"/>
<path d="M545.29 77.2918C536 70.03 548.7 38.0846 533.358 44.9033C533.358 44.9033 514.606 32.9707 510.839 40.812C506.477 49.8917 490.963 45.7727 481.434 42.5679C482.183 40.827 482.715 39.0007 483.019 37.13C481.26 38.516 479.396 39.7641 477.445 40.8633C476.136 40.1639 474.978 39.214 474.036 38.0676C473.106 37.003 472.524 35.6794 472.369 34.2746C472.213 32.8699 472.492 31.4511 473.166 30.2091C474.751 27.7715 478.024 27.0214 479.951 24.8564C480.173 24.552 480.319 24.1981 480.374 23.8251C480.43 23.4521 480.394 23.0712 480.271 22.715C480.041 21.844 480.006 20.933 480.169 20.0471C480.332 19.1611 480.688 18.3219 481.212 17.5893C481.736 16.8567 482.415 16.2488 483.201 15.8087C483.987 15.3686 484.861 15.1073 485.759 15.0434C486.121 15.0544 486.479 14.9763 486.803 14.816C488.421 13.8262 489.914 12.6474 491.253 11.3044C489.019 11.4067 491.75 -2.26269 513.89 0.326341C519.465 0.1218 522.376 6.26945 527.865 7.24112C541.17 -0.361912 553.046 10.6055 558.825 21.0891C564.604 31.5728 570.86 65.3592 545.29 77.2918Z" fill="#2F2E41"/>
<path d="M377.592 20.9099H25.2871C18.5846 20.9155 12.1581 23.5796 7.41747 28.3176C2.67683 33.0556 0.00927505 39.4806 0 46.1831V363.638C0.00871576 370.342 2.67566 376.768 7.41602 381.509C12.1564 386.249 18.5832 388.916 25.2871 388.925H377.592C384.294 388.916 390.719 386.248 395.457 381.507C400.195 376.767 402.859 370.34 402.865 363.638V46.1831C402.859 39.4821 400.194 33.0573 395.456 28.319C390.717 23.5807 384.292 20.916 377.592 20.9099Z" fill="white"/>
<path d="M216.619 93.7709H178.981C177.132 93.7709 175.359 93.0365 174.052 91.7294C172.745 90.4223 172.011 88.6495 172.011 86.8009C172.011 84.9524 172.745 83.1795 174.052 81.8724C175.359 80.5653 177.132 79.8309 178.981 79.8309H216.619C218.467 79.8309 220.24 80.5653 221.547 81.8724C222.854 83.1795 223.589 84.9524 223.589 86.8009C223.589 88.6495 222.854 90.4223 221.547 91.7294C220.24 93.0365 218.467 93.7709 216.619 93.7709Z" fill="#0B6FF4"/>
<path d="M715.669 414.017H678.031C676.183 414.017 674.41 413.282 673.103 411.975C671.796 410.668 671.061 408.895 671.061 407.047C671.061 405.198 671.796 403.425 673.103 402.118C674.41 400.811 676.183 400.077 678.031 400.077H715.669C717.518 400.077 719.29 400.811 720.598 402.118C721.905 403.425 722.639 405.198 722.639 407.047C722.639 408.895 721.905 410.668 720.598 411.975C719.29 413.282 717.518 414.017 715.669 414.017Z" fill="#0B6FF4"/>
<path d="M314.198 239.767H81.4011C79.5526 239.767 77.7797 239.033 76.4726 237.726C75.1655 236.419 74.4312 234.646 74.4312 232.797C74.4312 230.949 75.1655 229.176 76.4726 227.869C77.7797 226.562 79.5526 225.827 81.4011 225.827H314.198C316.047 225.827 317.82 226.562 319.127 227.869C320.434 229.176 321.168 230.949 321.168 232.797C321.168 234.646 320.434 236.419 319.127 237.726C317.82 239.033 316.047 239.767 314.198 239.767Z" fill="#E6E6E6"/>
<path d="M314.198 285.769H81.4011C79.5526 285.769 77.7797 285.035 76.4726 283.728C75.1655 282.421 74.4312 280.648 74.4312 278.799C74.4312 276.951 75.1655 275.178 76.4726 273.871C77.7797 272.564 79.5526 271.829 81.4011 271.829H314.198C316.047 271.829 317.82 272.564 319.127 273.871C320.434 275.178 321.168 276.951 321.168 278.799C321.168 280.648 320.434 282.421 319.127 283.728C317.82 285.035 316.047 285.769 314.198 285.769Z" fill="#E6E6E6"/>
<path d="M314.198 331.771H81.4011C79.5526 331.771 77.7797 331.037 76.4726 329.73C75.1655 328.422 74.4312 326.65 74.4312 324.801C74.4312 322.952 75.1655 321.18 76.4726 319.872C77.7797 318.565 79.5526 317.831 81.4011 317.831H314.198C316.047 317.831 317.82 318.565 319.127 319.872C320.434 321.18 321.168 322.952 321.168 324.801C321.168 326.65 320.434 328.422 319.127 329.73C317.82 331.037 316.047 331.771 314.198 331.771Z" fill="#E6E6E6"/>
<path d="M266.616 114.684H128.986C122.284 114.69 115.858 117.354 111.117 122.092C106.376 126.83 103.709 133.255 103.699 139.957V181.401C103.708 188.104 106.375 194.531 111.115 199.272C115.856 204.012 122.283 206.679 128.986 206.688H266.616C273.318 206.678 279.743 204.011 284.481 199.27C289.219 194.53 291.883 188.103 291.889 181.401V139.957C291.883 133.256 289.218 126.831 284.48 122.093C279.741 117.355 273.317 114.69 266.616 114.684ZM289.101 181.401C289.101 187.368 286.73 193.09 282.511 197.31C278.292 201.529 272.569 203.9 266.602 203.9H167.805C151.543 203.9 135.946 197.439 124.447 185.94C112.948 174.441 106.487 158.844 106.487 142.582V139.957C106.497 133.994 108.871 128.278 113.089 124.063C117.306 119.848 123.023 117.478 128.986 117.472H266.616C272.577 117.478 278.293 119.849 282.508 124.065C286.723 128.28 289.094 133.996 289.101 139.957V181.401Z" fill="#E6E6E6"/>
<path d="M199.341 175.643C212.429 175.643 223.039 165.033 223.039 151.945C223.039 138.857 212.429 128.248 199.341 128.248C186.253 128.248 175.643 138.857 175.643 151.945C175.643 165.033 186.253 175.643 199.341 175.643Z" fill="#E6E6E6"/>
<path d="M253.861 206.688L147.764 206.311L181.219 197.947L185.387 184.189L217.463 184.007L227.068 197.613L251.323 203.9L253.526 204.471L253.861 206.688Z" fill="#E6E6E6"/>
<path d="M185.873 167.076C190.959 163.101 184.007 145.615 192.405 149.347C192.405 149.347 202.669 142.816 204.731 147.108C207.119 152.078 215.611 149.823 220.827 148.069C220.417 147.116 220.125 146.116 219.959 145.092C220.922 145.851 221.942 146.534 223.01 147.136C223.727 146.753 224.361 146.233 224.876 145.606C225.385 145.023 225.704 144.298 225.789 143.53C225.874 142.761 225.721 141.984 225.352 141.304C224.484 139.97 222.693 139.559 221.639 138.374C221.517 138.208 221.437 138.014 221.407 137.81C221.376 137.606 221.396 137.397 221.463 137.202C221.589 136.725 221.608 136.227 221.519 135.742C221.43 135.257 221.235 134.797 220.948 134.396C220.661 133.995 220.289 133.663 219.859 133.422C219.429 133.181 218.951 133.038 218.459 133.003C218.261 133.009 218.065 132.966 217.888 132.878C217.002 132.337 216.185 131.691 215.452 130.956C216.675 131.012 215.18 123.53 203.061 124.947C200.01 124.835 198.416 128.2 195.412 128.732C188.129 124.57 181.628 130.574 178.465 136.312C175.301 142.051 171.877 160.544 185.873 167.076Z" fill="#E6E6E6"/>
<path d="M377.592 20.9099H25.2871C18.5846 20.9155 12.1581 23.5796 7.41747 28.3176C2.67683 33.0556 0.00927505 39.4806 0 46.1831V363.638C0.00871576 370.342 2.67566 376.768 7.41602 381.509C12.1564 386.249 18.5832 388.916 25.2871 388.925H377.592C384.294 388.916 390.719 386.248 395.457 381.507C400.195 376.767 402.859 370.34 402.865 363.638V46.1831C402.859 39.4821 400.194 33.0573 395.456 28.319C390.717 23.5807 384.292 20.916 377.592 20.9099ZM400.077 363.638C400.077 369.605 397.706 375.328 393.487 379.547C389.267 383.766 383.545 386.137 377.578 386.137H184.287C160.452 386.137 136.851 381.442 114.831 372.321C92.81 363.2 72.8017 349.831 55.9479 332.977C39.0941 316.123 25.725 296.115 16.6038 274.094C7.48258 252.074 2.78798 228.472 2.78799 204.637V46.1831C2.79748 40.2201 5.17139 34.5043 9.38914 30.2892C13.6069 26.0741 19.3241 23.7037 25.2871 23.6979H377.592C383.553 23.7042 389.269 26.0753 393.484 30.2907C397.699 34.5061 400.07 40.2216 400.077 46.1831V363.638Z" fill="#E6E6E6"/>
<path d="M745.658 724.798L306.051 725.226C305.612 725.224 305.192 725.048 304.883 724.737C304.573 724.426 304.4 724.005 304.4 723.566C304.4 723.127 304.573 722.707 304.883 722.395C305.192 722.084 305.612 721.909 306.051 721.906L745.658 721.478C746.097 721.48 746.517 721.656 746.826 721.967C747.136 722.278 747.31 722.699 747.31 723.138C747.31 723.577 747.136 723.997 746.826 724.308C746.517 724.62 746.097 724.795 745.658 724.798Z" fill="#CACACA"/>
</g>
<defs>
<clipPath id="clip0_20_1082">
<rect width="750" height="725.226" fill="white"/>
</clipPath>
</defs>
</svg>
