<svg width="440" height="340" viewBox="0 0 440 340" fill="none" xmlns="http://www.w3.org/2000/svg">
<g clip-path="url(#clip0_20_846)">
<path d="M421.768 297.437C420.021 283.387 411.313 269.544 397.914 264.971C403.198 279.433 403.197 295.297 397.911 309.758C395.852 315.328 392.982 321.308 394.918 326.921C396.123 330.414 399.071 333.086 402.367 334.757C405.662 336.428 409.319 337.225 412.931 338.005L413.641 338.593C419.375 325.647 423.516 311.488 421.768 297.437Z" fill="#F0F0F0"/>
<path d="M397.781 265.237C405.584 273.98 410.434 284.96 411.642 296.617C411.947 299.122 411.854 301.659 411.369 304.135C410.818 306.532 409.635 308.737 407.944 310.523C406.4 312.219 404.624 313.775 403.52 315.817C402.97 316.87 402.649 318.028 402.578 319.215C402.507 320.401 402.688 321.589 403.108 322.7C404.083 325.498 406.005 327.777 407.962 329.942C410.135 332.345 412.431 334.806 413.354 337.992C413.466 338.378 414.059 338.182 413.947 337.796C412.34 332.254 406.959 329.105 404.394 324.113C403.196 321.784 402.694 319.08 403.816 316.621C404.798 314.47 406.627 312.864 408.205 311.16C409.881 309.443 411.111 307.342 411.787 305.039C412.397 302.596 412.587 300.067 412.348 297.56C411.901 291.907 410.568 286.359 408.397 281.121C405.953 275.128 402.502 269.598 398.194 264.769C397.927 264.47 397.516 264.94 397.781 265.237Z" fill="white"/>
<path d="M411.474 292.84C413.402 292.372 415.101 291.234 416.268 289.629C417.434 288.024 417.992 286.056 417.842 284.077C417.81 283.677 417.186 283.708 417.218 284.109C417.362 285.951 416.842 287.784 415.753 289.276C414.663 290.769 413.077 291.823 411.278 292.248C410.888 292.341 411.086 292.933 411.474 292.84Z" fill="white"/>
<path d="M408.84 309.766C405.357 307.686 402.786 304.37 401.64 300.48C401.526 300.094 400.934 300.29 401.047 300.675C402.248 304.722 404.93 308.167 408.559 310.323C408.905 310.528 409.184 309.97 408.84 309.766Z" fill="white"/>
<path d="M405.375 275.719C404.666 276.056 403.885 276.211 403.102 276.172C402.319 276.132 401.558 275.898 400.887 275.492C400.544 275.282 400.266 275.841 400.607 276.049C401.35 276.495 402.19 276.752 403.056 276.798C403.921 276.843 404.784 276.677 405.57 276.312C405.647 276.284 405.711 276.227 405.747 276.154C405.784 276.081 405.792 275.996 405.769 275.918C405.742 275.839 405.686 275.775 405.612 275.738C405.539 275.7 405.453 275.694 405.375 275.719Z" fill="white"/>
<path d="M357.07 290.067C357.28 290.204 357.491 290.341 357.702 290.483C360.524 292.338 363.19 294.42 365.675 296.708C365.87 296.882 366.065 297.061 366.255 297.24C372.182 302.815 377.024 309.442 380.532 316.784C381.926 319.707 383.095 322.732 384.029 325.832C385.32 330.114 386.378 334.859 388.933 338.361C389.195 338.729 389.48 339.081 389.786 339.414H412.869C412.922 339.388 412.974 339.367 413.027 339.341L413.949 339.383C413.912 339.22 413.87 339.051 413.833 338.888C413.812 338.793 413.785 338.698 413.764 338.603C413.749 338.54 413.733 338.477 413.722 338.419C413.717 338.398 413.712 338.377 413.706 338.361C413.696 338.303 413.68 338.251 413.669 338.198C413.438 337.255 413.199 336.312 412.953 335.37C412.953 335.364 412.953 335.364 412.948 335.359C411.057 328.181 408.55 321.097 405.048 314.619C404.943 314.425 404.838 314.224 404.722 314.03C403.127 311.118 401.297 308.342 399.25 305.729C398.124 304.302 396.927 302.933 395.663 301.627C392.391 298.258 388.609 295.425 384.456 293.232C376.177 288.861 366.592 287.186 357.744 289.856C357.517 289.925 357.296 289.993 357.07 290.067Z" fill="#F0F0F0"/>
<path d="M357.122 290.359C368.616 292.642 379.099 298.489 387.082 307.069C388.833 308.886 390.287 310.967 391.39 313.237C392.393 315.482 392.777 317.955 392.501 320.399C392.29 322.682 391.809 324.994 392.156 327.289C392.352 328.462 392.793 329.579 393.45 330.569C394.108 331.559 394.967 332.399 395.972 333.034C398.435 334.68 401.342 335.343 404.208 335.893C407.39 336.503 410.704 337.086 413.36 339.074C413.681 339.315 414.036 338.801 413.715 338.561C409.095 335.103 402.903 335.829 397.849 333.388C395.491 332.249 393.461 330.392 392.877 327.753C392.366 325.445 392.86 323.061 393.094 320.75C393.398 318.37 393.115 315.952 392.269 313.707C391.285 311.389 389.913 309.255 388.213 307.397C384.453 303.153 380.048 299.526 375.161 296.65C369.602 293.337 363.517 290.999 357.17 289.737C356.777 289.659 356.731 290.282 357.122 290.359Z" fill="white"/>
<path d="M384.674 304.155C385.932 302.621 386.603 300.689 386.568 298.705C386.533 296.721 385.794 294.814 384.483 293.325C384.216 293.024 383.737 293.424 384.004 293.725C385.227 295.11 385.915 296.886 385.944 298.733C385.973 300.581 385.341 302.378 384.161 303.8C383.905 304.109 384.42 304.463 384.674 304.155Z" fill="white"/>
<path d="M392.761 319.255C388.728 319.691 384.679 318.592 381.421 316.176C381.099 315.936 380.744 316.449 381.066 316.688C384.461 319.197 388.677 320.332 392.872 319.869C393.272 319.824 393.159 319.211 392.761 319.255Z" fill="white"/>
<path d="M369.496 294.157C369.133 294.852 368.603 295.447 367.954 295.886C367.304 296.326 366.556 296.598 365.776 296.677C365.376 296.716 365.49 297.33 365.887 297.291C366.749 297.2 367.575 296.899 368.294 296.414C369.012 295.93 369.601 295.277 370.009 294.513C370.053 294.444 370.07 294.36 370.055 294.28C370.041 294.199 369.996 294.127 369.93 294.078C369.862 294.032 369.778 294.014 369.697 294.028C369.615 294.043 369.543 294.09 369.496 294.157Z" fill="white"/>
<path d="M319.902 50.5488L44.4165 0.0761058C43.8557 -0.0317157 43.2788 -0.024907 42.7207 0.0961198C42.2144 0.206991 41.7392 0.42897 41.3292 0.746011C40.9285 1.05855 40.6061 1.46011 40.3876 1.91888C40.155 2.41436 40.0368 2.95575 40.0416 3.50306V250.307C40.0365 250.854 40.1543 251.396 40.3865 251.891C40.6047 252.35 40.9268 252.752 41.3271 253.065C41.7368 253.382 42.2119 253.604 42.718 253.716C43.2761 253.837 43.853 253.844 44.4139 253.737L319.902 203.263C320.13 203.217 320.342 203.109 320.514 202.953C320.716 202.773 320.885 202.559 321.013 202.321C321.162 202.049 321.275 201.759 321.349 201.459C321.43 201.131 321.472 200.795 321.472 200.458V53.3627C321.472 53.0245 321.431 52.6876 321.349 52.3594C321.275 52.0585 321.163 51.7684 321.014 51.4968C320.885 51.2588 320.716 51.045 320.515 50.8648C320.342 50.7082 320.131 50.6007 319.902 50.5535L319.902 50.5488Z" fill="#E4E4E4"/>
<path d="M324.115 50.5488L48.6298 0.0761058C48.0689 -0.0317157 47.4921 -0.024907 46.9339 0.0961198C46.4277 0.206991 45.9524 0.42897 45.5425 0.746011C45.1418 1.05855 44.8194 1.46011 44.6008 1.91888C44.3683 2.41436 44.2501 2.95575 44.2548 3.50306V250.307C44.2497 250.854 44.3676 251.396 44.5998 251.891C44.818 252.35 45.14 252.752 45.5404 253.065C45.9501 253.382 46.4252 253.604 46.9313 253.716C47.4893 253.837 48.0662 253.844 48.6271 253.737L324.115 203.263C324.343 203.217 324.555 203.109 324.728 202.953C324.929 202.773 325.098 202.559 325.226 202.321C325.375 202.049 325.488 201.759 325.562 201.459C325.643 201.131 325.685 200.795 325.685 200.458V53.3627C325.685 53.0245 325.644 52.6876 325.562 52.3594C325.489 52.0585 325.376 51.7684 325.227 51.4968C325.098 51.2588 324.93 51.045 324.728 50.8648C324.555 50.7082 324.344 50.6007 324.116 50.5535L324.115 50.5488Z" fill="white"/>
<path d="M324.115 50.5488L48.6298 0.0761058C48.0689 -0.0317157 47.4921 -0.024907 46.9339 0.0961198C46.4277 0.206991 45.9524 0.42897 45.5425 0.746011C45.1418 1.05855 44.8194 1.46011 44.6008 1.91888C44.3683 2.41436 44.2501 2.95575 44.2548 3.50306V250.307C44.2497 250.854 44.3676 251.396 44.5998 251.891C44.818 252.35 45.14 252.752 45.5404 253.065C45.9501 253.382 46.4252 253.604 46.9313 253.716C47.4893 253.837 48.0662 253.844 48.6271 253.737L324.115 203.263C324.343 203.217 324.555 203.109 324.728 202.953C324.929 202.773 325.098 202.559 325.226 202.321C325.375 202.049 325.488 201.759 325.562 201.459C325.643 201.131 325.685 200.795 325.685 200.458V53.3627C325.685 53.0245 325.644 52.6876 325.562 52.3594C325.489 52.0585 325.376 51.7684 325.227 51.4968C325.098 51.2588 324.93 51.045 324.728 50.8648C324.555 50.7082 324.344 50.6007 324.116 50.5535L324.115 50.5488ZM325.163 200.547C325.163 200.773 325.136 200.998 325.081 201.217C325.032 201.418 324.957 201.611 324.857 201.793C324.771 201.951 324.659 202.094 324.524 202.214C324.409 202.318 324.268 202.389 324.116 202.42L48.6324 252.333C48.2586 252.404 47.8743 252.399 47.5027 252.317C47.1659 252.243 46.8499 252.094 46.5774 251.883C46.311 251.674 46.0969 251.407 45.9517 251.101C45.7975 250.772 45.719 250.412 45.7221 250.048V3.76534C45.7189 3.40154 45.7972 3.04163 45.9512 2.71202C46.0961 2.4062 46.3101 2.13828 46.5763 1.92941C46.8486 1.71774 47.1645 1.56915 47.5011 1.49439C47.8727 1.41273 48.257 1.40718 48.6308 1.47806L324.116 51.3925C324.268 51.4236 324.409 51.4949 324.524 51.5989C324.659 51.719 324.771 51.8616 324.857 52.0203C324.957 52.2014 325.032 52.3947 325.081 52.5954C325.136 52.8145 325.164 53.0395 325.164 53.2653V200.546L325.163 200.547Z" fill="#CACACA"/>
<path d="M0.000356742 77.0333C-0.0128958 75.3496 0.343239 73.6834 1.04367 72.1522C1.69828 70.7378 2.66569 69.4905 3.87286 68.5046C5.08802 67.519 6.50666 66.8151 8.0266 66.4438C9.67101 66.0471 11.3798 65.9956 13.0451 66.2926C14.7918 66.5968 16.4678 67.2189 17.9899 68.128C19.4936 69.0228 20.8397 70.1591 21.9741 71.4913C23.0989 72.8045 23.9977 74.2956 24.6337 75.9036C25.2675 77.4992 25.5965 79.1995 25.6038 80.9163C25.6156 82.54 25.285 84.1479 24.6337 85.6352C24.0219 87.0173 23.114 88.2481 21.9741 89.2407C20.8186 90.2403 19.4589 90.9758 17.9899 91.3957C16.3828 91.8495 14.6988 91.9639 13.0451 91.7317C11.2835 91.4891 9.58257 90.9204 8.02924 90.0549C6.4686 89.1889 5.06492 88.0664 3.87707 86.7343C2.6842 85.4049 1.7272 83.8815 1.04735 82.2298C0.36566 80.5816 0.0101021 78.8169 0.000356742 77.0333Z" fill="#E4E4E4"/>
<path d="M0.000356742 128.119C-0.0128958 126.435 0.343239 124.769 1.04367 123.238C1.69828 121.823 2.66569 120.576 3.87286 119.59C5.08802 118.605 6.50666 117.901 8.0266 117.529C9.67101 117.133 11.3798 117.081 13.0451 117.378C14.7918 117.682 16.4678 118.305 17.9899 119.214C19.4936 120.108 20.8397 121.245 21.9741 122.577C23.0989 123.89 23.9977 125.381 24.6337 126.989C25.2675 128.585 25.5965 130.285 25.6038 132.002C25.6156 133.626 25.285 135.234 24.6337 136.721C24.0219 138.103 23.114 139.334 21.9741 140.326C20.8186 141.326 19.4589 142.062 17.9899 142.481C16.3828 142.935 14.6988 143.05 13.0451 142.817C11.2835 142.575 9.58257 142.006 8.02924 141.141C6.4686 140.275 5.06492 139.152 3.87707 137.82C2.6842 136.491 1.7272 134.967 1.04735 133.316C0.36566 131.667 0.0101021 129.903 0.000356742 128.119Z" fill="#E4E4E4"/>
<path d="M0.000356742 179.205C-0.0128958 177.521 0.343239 175.855 1.04367 174.324C1.69828 172.909 2.66569 171.662 3.87286 170.676C5.08802 169.69 6.50666 168.987 8.0266 168.615C9.67101 168.219 11.3798 168.167 13.0451 168.464C14.7918 168.768 16.4678 169.39 17.9899 170.299C19.4936 171.194 20.8397 172.33 21.9741 173.663C23.0989 174.976 23.9977 176.467 24.6337 178.075C25.2675 179.671 25.5965 181.371 25.6038 183.088C25.6156 184.711 25.285 186.319 24.6337 187.807C24.0219 189.189 23.114 190.42 21.9741 191.412C20.8186 192.412 19.4589 193.147 17.9899 193.567C16.3828 194.021 14.6988 194.135 13.0451 193.903C11.2835 193.66 9.58257 193.092 8.02924 192.226C6.4686 191.36 5.06492 190.238 3.87707 188.906C2.6842 187.576 1.7272 186.053 1.04735 184.401C0.36566 182.753 0.0101021 180.988 0.000356742 179.205Z" fill="#E4E4E4"/>
<path d="M3.1603 77.0333C3.14705 75.3496 3.50318 73.6834 4.20361 72.1522C4.85822 70.7378 5.82563 69.4905 7.03281 68.5046C8.24796 67.519 9.66661 66.8151 11.1865 66.4438C12.831 66.0471 14.5398 65.9956 16.2051 66.2926C17.9517 66.5968 19.6278 67.2189 21.1498 68.128C22.6535 69.0228 23.9996 70.1591 25.134 71.4913C26.2589 72.8045 27.1577 74.2956 27.7936 75.9036C28.4274 77.4992 28.7565 79.1995 28.7637 80.9163C28.7755 82.54 28.445 84.1479 27.7936 85.6352C27.1819 87.0173 26.2739 88.2481 25.134 89.2407C23.9786 90.2403 22.6189 90.9758 21.1498 91.3957C19.5427 91.8495 17.8588 91.9639 16.2051 91.7317C14.4435 91.4891 12.7425 90.9204 11.1892 90.0549C9.62854 89.1889 8.22486 88.0664 7.03702 86.7343C5.84415 85.4049 4.88714 83.8815 4.20729 82.2298C3.5256 80.5816 3.17004 78.8169 3.1603 77.0333Z" fill="#0B6FF4"/>
<path d="M3.16031 127.771C3.15224 126.062 3.50789 124.372 4.20361 122.811C4.86428 121.341 5.82845 120.027 7.03281 118.956C8.23747 117.885 9.65219 117.078 11.1866 116.586C12.8061 116.07 14.5141 115.893 16.2051 116.064C17.9322 116.233 19.6108 116.732 21.1499 117.534C22.6486 118.314 23.9975 119.353 25.134 120.603C26.2628 121.839 27.1633 123.265 27.7936 124.816C28.4321 126.387 28.7613 128.067 28.7632 129.763C28.7705 131.41 28.4403 133.041 27.7931 134.555C27.1725 135.997 26.2627 137.295 25.1199 138.37C23.977 139.446 22.6256 140.275 21.1493 140.807C19.5662 141.376 17.8834 141.614 16.2045 141.508C14.4639 141.401 12.7605 140.957 11.1887 140.202C8.05073 138.693 5.5693 136.094 4.20783 132.889C3.52167 131.27 3.16554 129.53 3.16031 127.771Z" fill="#0B6FF4"/>
<path d="M3.1603 178.508C3.15814 176.809 3.50013 175.126 4.16567 173.562C4.8312 171.998 5.80651 170.584 7.03281 169.407C8.54078 167.964 10.3776 166.909 12.3846 166.334C14.3916 165.759 16.5084 165.681 18.5521 166.107C20.5958 166.534 22.505 167.451 24.1147 168.781C25.7243 170.11 26.9861 171.812 27.791 173.738C28.5821 175.655 28.8917 177.737 28.6925 179.801C28.4934 181.865 27.7916 183.849 26.6485 185.58C25.5055 187.31 23.956 188.734 22.1355 189.728C20.3149 190.721 18.2788 191.253 16.2051 191.278C13.6663 191.315 11.1732 190.601 9.03868 189.226C6.90421 187.851 5.22358 185.876 4.20782 183.549C3.51695 181.958 3.1604 180.243 3.1603 178.508Z" fill="#0B6FF4"/>
<path d="M11.1176 76.9753L14.9421 77.5631V73.7922C14.9403 73.629 14.9737 73.4673 15.0401 73.3182C15.1022 73.1804 15.1945 73.0583 15.3103 72.9611C15.4272 72.8637 15.5642 72.7933 15.7116 72.7552C15.8721 72.7142 16.0395 72.707 16.203 72.7341C16.3762 72.7621 16.5427 72.8217 16.6943 72.91C16.8455 72.9978 16.9811 73.1099 17.0956 73.2418C17.21 73.3726 17.3017 73.5216 17.3669 73.6826C17.4319 73.8424 17.466 74.0131 17.4675 74.1856V77.9512L21.2194 78.5268C21.3898 78.5538 21.5537 78.6122 21.7028 78.6991C22.0017 78.8726 22.2342 79.141 22.3633 79.4616C22.4269 79.6203 22.46 79.7895 22.4607 79.9604C22.4619 80.1219 22.4287 80.2819 22.3633 80.4297C22.3028 80.566 22.2128 80.6872 22.0999 80.7846C21.9853 80.8819 21.8506 80.9528 21.7055 80.9921C21.5478 81.0342 21.3831 81.0428 21.222 81.0174L17.4648 80.4554V84.2126C17.4661 84.3759 17.4323 84.5375 17.3658 84.6866C17.3036 84.825 17.2115 84.9478 17.0962 85.0463C16.9797 85.1448 16.8431 85.2167 16.6959 85.257C16.536 85.3003 16.3689 85.31 16.2051 85.2854C16.0321 85.2602 15.8653 85.2031 15.7132 85.1169C15.5619 85.0313 15.426 84.9209 15.3113 84.7904C15.1967 84.6607 15.105 84.5126 15.0401 84.3522C14.9755 84.192 14.9423 84.0209 14.9421 83.8482V80.0773L11.1176 79.5033C10.9418 79.4763 10.7726 79.4172 10.6183 79.3289C10.4647 79.2416 10.3268 79.1293 10.2101 78.9966C10.0942 78.866 10.001 78.7168 9.93468 78.5553C9.86855 78.3936 9.83422 78.2207 9.83356 78.046C9.8323 77.8813 9.8668 77.7183 9.93468 77.5683C9.99837 77.4291 10.0925 77.306 10.2101 77.2081C10.3291 77.1088 10.4684 77.0368 10.6183 76.9974C10.7814 76.9558 10.9514 76.9483 11.1176 76.9753Z" fill="white"/>
<path d="M13.8019 132.155L24.4225 132.925H24.4615L19.4809 123.882C19.45 123.826 19.4057 123.777 19.3518 123.741C19.3254 123.724 19.2969 123.709 19.267 123.699C19.237 123.688 19.2057 123.681 19.1738 123.678C19.1429 123.675 19.1117 123.677 19.0811 123.682C19.0517 123.688 19.0232 123.697 18.9963 123.711C18.9427 123.737 18.8979 123.779 18.8673 123.83L15.4783 129.401L15.315 129.669L13.8019 132.155Z" fill="white"/>
<path d="M7.74063 131.716L17.1109 132.395L15.315 129.669L15.1855 129.472L12.8302 125.897C12.7885 125.841 12.7365 125.794 12.677 125.759C12.6481 125.741 12.6176 125.727 12.5859 125.715C12.5531 125.704 12.5192 125.695 12.4848 125.691C12.4515 125.686 12.4177 125.685 12.3842 125.687C12.3515 125.689 12.3192 125.695 12.2878 125.704C12.2569 125.713 12.227 125.725 12.1988 125.741C12.1704 125.756 12.1439 125.775 12.1198 125.796L12.1119 125.806L12.1019 125.815L12.094 125.825L12.0861 125.835L7.74063 131.716Z" fill="white"/>
<path d="M14.8268 122.394C15.0428 122.413 15.2533 122.473 15.4467 122.571C15.6363 122.668 15.8073 122.797 15.9517 122.953C16.0959 123.108 16.2111 123.288 16.292 123.484C16.3739 123.682 16.4163 123.894 16.4168 124.109C16.4177 124.316 16.3752 124.522 16.292 124.712C16.2129 124.892 16.097 125.054 15.9517 125.186C15.8057 125.319 15.6337 125.42 15.4467 125.483C15.2472 125.549 15.0363 125.574 14.8268 125.556C14.6105 125.538 14.3997 125.478 14.2059 125.381C14.0154 125.285 13.8435 125.155 13.6982 124.999C13.553 124.844 13.4369 124.664 13.3553 124.467C13.2726 124.268 13.2298 124.055 13.2295 123.84C13.2286 123.631 13.2714 123.425 13.3553 123.234C13.4351 123.054 13.5519 122.892 13.6982 122.76C13.8452 122.628 14.0181 122.528 14.2059 122.466C14.4058 122.4 14.6171 122.376 14.8268 122.394Z" fill="white"/>
<path d="M129.433 158.441L234.596 58.6624L235.047 59.4523L130.09 159.285L129.433 158.441Z" fill="#E6E6E6"/>
<path d="M129.45 45.3508L130.109 44.5608L235.037 153.487L234.585 154.237L129.45 45.3508Z" fill="#E6E6E6"/>
<path d="M233.532 57.2058L131.308 43.1619C130.835 43.0944 130.354 43.1355 129.899 43.282C129.467 43.4246 129.072 43.663 128.744 43.9793C128.405 44.3066 128.139 44.7013 127.962 45.138C127.769 45.6197 127.671 46.1345 127.674 46.6537V156.693C127.673 157.22 127.77 157.741 127.962 158.231C128.141 158.687 128.406 159.103 128.744 159.457C129.069 159.798 129.463 160.067 129.899 160.247C130.345 160.43 130.826 160.51 131.307 160.483L233.532 154.853C233.877 154.831 234.211 154.722 234.504 154.537C234.813 154.342 235.082 154.088 235.294 153.789C235.528 153.462 235.707 153.1 235.826 152.716C235.956 152.299 236.022 151.865 236.021 151.428V60.8323C236.021 60.3902 235.955 59.9506 235.826 59.5278C235.706 59.1309 235.526 58.7545 235.294 58.4113C235.082 58.0948 234.814 57.8191 234.504 57.5976C234.215 57.392 233.882 57.2577 233.532 57.2058ZM131.308 159.351C130.964 159.369 130.621 159.311 130.303 159.18C129.992 159.051 129.711 158.858 129.479 158.615C129.238 158.361 129.049 158.063 128.922 157.737C128.785 157.388 128.715 157.016 128.716 156.64V46.7901C128.714 46.4201 128.784 46.0533 128.922 45.7099C129.047 45.3977 129.237 45.1153 129.479 44.881C129.713 44.6553 129.994 44.4852 130.303 44.3833C130.627 44.278 130.971 44.2479 131.308 44.2953L233.532 58.149C233.783 58.1861 234.021 58.2821 234.227 58.4292C234.449 58.5867 234.64 58.783 234.792 59.0085C234.959 59.2537 235.087 59.5228 235.173 59.8064C235.266 60.1087 235.313 60.423 235.313 60.7391V151.465C235.314 151.777 235.266 152.088 235.173 152.386C235.088 152.661 234.96 152.92 234.792 153.153C234.641 153.366 234.448 153.548 234.227 153.687C234.017 153.818 233.779 153.895 233.532 153.91L131.308 159.351Z" fill="#E6E6E6"/>
<path d="M127.922 172.104C127.65 172.134 127.391 172.234 127.17 172.396C126.927 172.574 126.72 172.798 126.56 173.054C126.379 173.341 126.242 173.653 126.154 173.98C126.056 174.337 126.009 174.707 126.013 175.077C126.015 175.431 126.068 175.784 126.171 176.123C126.26 176.422 126.399 176.703 126.582 176.955C126.741 177.177 126.947 177.361 127.186 177.494C127.411 177.618 127.667 177.675 127.923 177.66L306.883 162.842C307.026 162.83 307.159 162.768 307.261 162.668C307.392 162.544 307.497 162.396 307.572 162.232C307.667 162.031 307.738 161.819 307.783 161.6C307.836 161.348 307.863 161.09 307.865 160.832C307.868 160.577 307.845 160.322 307.795 160.071C307.755 159.858 307.687 159.651 307.593 159.456C307.522 159.299 307.419 159.16 307.291 159.045C307.188 158.953 307.053 158.904 306.915 158.906H306.883L127.922 172.104Z" fill="#E6E6E6"/>
<path d="M127.922 188.967C127.648 189.005 127.39 189.113 127.17 189.28C126.927 189.464 126.72 189.693 126.56 189.953C126.379 190.243 126.242 190.559 126.154 190.89C126.056 191.249 126.008 191.621 126.013 191.993C126.015 192.346 126.068 192.697 126.171 193.035C126.26 193.331 126.399 193.608 126.582 193.856C126.741 194.074 126.947 194.252 127.185 194.378C127.412 194.496 127.667 194.547 127.922 194.524L306.883 174.782C307.027 174.766 307.16 174.701 307.261 174.598C307.391 174.47 307.497 174.319 307.572 174.153C307.667 173.949 307.738 173.734 307.783 173.513C307.836 173.259 307.863 173.001 307.865 172.742C307.868 172.487 307.845 172.233 307.795 171.983C307.755 171.772 307.687 171.567 307.593 171.373C307.522 171.219 307.418 171.083 307.289 170.973C307.185 170.883 307.051 170.837 306.913 170.844H306.882L127.922 188.967Z" fill="#E6E6E6"/>
<path d="M127.922 205.558C127.647 205.604 127.389 205.718 127.17 205.891C126.927 206.082 126.72 206.316 126.56 206.581C126.38 206.876 126.243 207.195 126.154 207.529C126.056 207.889 126.009 208.262 126.013 208.635C126.015 208.987 126.068 209.337 126.171 209.673C126.259 209.965 126.399 210.239 126.582 210.483C126.741 210.696 126.947 210.869 127.185 210.988C127.413 211.1 127.669 211.144 127.922 211.114L306.883 186.528C307.027 186.508 307.161 186.44 307.261 186.335C307.391 186.203 307.497 186.05 307.572 185.881C307.667 185.675 307.738 185.458 307.783 185.235C307.836 184.981 307.863 184.722 307.865 184.462C307.868 184.208 307.845 183.954 307.795 183.705C307.755 183.495 307.687 183.292 307.593 183.1C307.522 182.949 307.418 182.815 307.289 182.708C307.184 182.622 307.049 182.579 306.913 182.589H306.882L127.922 205.558Z" fill="#E6E6E6"/>
<path d="M21.3105 173.165L11.0944 173.043C10.924 173.037 10.754 173.061 10.592 173.114C10.4353 173.165 10.2887 173.243 10.1585 173.344C10.0288 173.445 9.91757 173.567 9.82989 173.706C9.74005 173.848 9.6767 174.006 9.64292 174.171C9.60923 174.368 9.61948 174.57 9.67295 174.763C9.69964 174.859 9.73672 174.952 9.78355 175.04C9.879 175.22 10.0125 175.377 10.1749 175.5C10.4183 175.685 10.7147 175.786 11.0201 175.788L14.0926 175.816C14.2375 175.817 14.379 175.86 14.4997 175.941C14.6204 176.021 14.715 176.134 14.772 176.268C14.8104 176.358 14.8301 176.455 14.83 176.553V182.58C14.8224 182.912 14.9332 183.237 15.1428 183.495C15.3525 183.755 15.647 183.932 15.9744 183.996C16.2711 184.046 16.576 183.997 16.8424 183.857C17.1087 183.717 17.3218 183.493 17.449 183.221C17.5328 183.041 17.5763 182.845 17.5765 182.647V176.569C17.5766 176.475 17.5953 176.381 17.6316 176.293C17.668 176.206 17.7212 176.126 17.7883 176.059C17.8554 175.992 17.935 175.939 18.0227 175.903C18.1103 175.866 18.2042 175.848 18.299 175.848L18.3059 175.848L21.241 175.871C21.5686 175.882 21.8894 175.776 22.1463 175.572C22.4031 175.368 22.5793 175.08 22.6435 174.758C22.6757 174.564 22.6654 174.364 22.6135 174.174C22.5616 173.984 22.4692 173.807 22.3426 173.656C22.2161 173.504 22.0583 173.382 21.8802 173.298C21.702 173.213 21.5077 173.168 21.3105 173.165Z" fill="white"/>
<path d="M21.311 181.285C21.6023 181.285 21.8859 181.379 22.1198 181.552C22.3536 181.726 22.5253 181.971 22.6095 182.249C22.6936 182.528 22.6857 182.827 22.5869 183.101C22.4881 183.375 22.3037 183.61 22.061 183.771C21.8182 183.932 21.5301 184.011 21.2392 183.995C20.9483 183.98 20.6701 183.871 20.4459 183.685C20.2217 183.499 20.0633 183.246 19.9942 182.963C19.9251 182.68 19.949 182.382 20.0623 182.114C20.1655 181.868 20.3392 181.658 20.5614 181.511C20.7835 181.363 21.0444 181.285 21.311 181.285Z" fill="white"/>
<path d="M260.754 101.413C260.707 101.781 260.631 102.144 260.526 102.5L281.822 127.998L289.775 126.628L293.413 138.361L279.568 142.155C278.45 142.462 277.262 142.397 276.183 141.971C275.105 141.546 274.193 140.781 273.586 139.793L253.794 107.594C252.366 107.598 250.97 107.167 249.793 106.359C248.616 105.55 247.713 104.403 247.204 103.069C246.695 101.735 246.604 100.277 246.944 98.89C247.283 97.503 248.037 96.2523 249.105 95.3041C250.173 94.356 251.504 93.7554 252.921 93.5822C254.339 93.409 255.775 93.6715 257.04 94.3347C258.304 94.9978 259.337 96.0303 260.001 97.2948C260.664 98.5592 260.927 99.9957 260.754 101.413Z" fill="#FFB6B6"/>
<path d="M282.765 126.577C282.992 126.208 283.297 125.893 283.657 125.653C284.018 125.412 284.426 125.253 284.854 125.185L299.794 122.802C301.908 122.135 304.2 122.334 306.167 123.354C308.135 124.374 309.618 126.133 310.29 128.245C310.963 130.357 310.771 132.649 309.756 134.619C308.741 136.59 306.986 138.077 304.876 138.756L291.226 145.393C290.836 145.582 290.41 145.685 289.977 145.695C289.544 145.705 289.114 145.622 288.716 145.45C288.318 145.279 287.962 145.024 287.671 144.703C287.381 144.381 287.163 144.001 287.033 143.588L282.454 129.068C282.324 128.655 282.284 128.218 282.338 127.788C282.391 127.359 282.537 126.945 282.765 126.577Z" fill="#3F3D56"/>
<path d="M283.598 333.12H277.141L274.07 308.215L283.599 308.216L283.598 333.12Z" fill="#FFB6B6"/>
<path d="M285.244 339.379L264.425 339.378V339.115C264.425 336.966 265.279 334.905 266.799 333.385C268.319 331.865 270.38 331.012 272.529 331.011L285.245 331.012L285.244 339.379Z" fill="#2F2E41"/>
<path d="M351.01 333.12H344.553L341.482 308.215L351.011 308.216L351.01 333.12Z" fill="#FFB6B6"/>
<path d="M352.656 339.379L331.837 339.378V339.115C331.837 336.966 332.691 334.905 334.211 333.385C335.731 331.865 337.792 331.012 339.941 331.011L352.657 331.012L352.656 339.379Z" fill="#2F2E41"/>
<path d="M286.119 181.417L314.098 173.332C324.29 180.561 331.327 195.052 329.048 213.8C325.375 244.013 346.638 282.861 355.808 322.222L339.951 322.72L305.229 239.625L284.873 324.451L270.708 324.896L280.18 208.1L286.119 181.417Z" fill="#2F2E41"/>
<path d="M298.577 107.941C306.571 107.941 313.051 101.461 313.051 93.4679C313.051 85.4744 306.571 78.9944 298.577 78.9944C290.584 78.9944 284.104 85.4744 284.104 93.4679C284.104 101.461 290.584 107.941 298.577 107.941Z" fill="#FFB6B6"/>
<path d="M283.851 157.827C280.652 152.211 279.071 145.391 281.855 139.559C282.556 138.09 284.468 136.702 285.469 135.419L296.652 118.745L309.279 116.714C320.207 125.879 310.872 157.191 319.825 177.731L282.432 197.744C285.105 187.536 288.712 166.361 283.851 157.827Z" fill="#3F3D56"/>
<path d="M284.012 87.6725C284.012 87.6725 284.992 85.8572 290.859 88.1992C292.912 89.0189 293.875 88.8304 294.008 90.614C294.484 97.3266 296.939 103.748 301.064 109.065L301.108 109.123L304.041 106.446L307.812 109.457L323.735 109.792C323.735 109.792 326.249 97.413 317.869 83.3612C309.488 69.3095 292.309 77.0045 292.309 77.0045C280.576 77.6736 284.012 87.6725 284.012 87.6725Z" fill="#2F2E41"/>
<path d="M247.062 69.1723L144.838 55.1285C144.365 55.061 143.884 55.1021 143.429 55.2486C142.997 55.3912 142.602 55.6295 142.274 55.9459C141.935 56.2731 141.669 56.6678 141.492 57.1045C141.299 57.5863 141.201 58.1011 141.204 58.6202V168.66C141.203 169.186 141.3 169.708 141.492 170.198C141.67 170.653 141.936 171.07 142.274 171.424C142.599 171.765 142.993 172.034 143.429 172.214C143.875 172.396 144.356 172.477 144.837 172.45L247.062 166.82C247.407 166.797 247.741 166.689 248.034 166.504C248.343 166.308 248.612 166.054 248.824 165.755C249.058 165.429 249.237 165.067 249.356 164.683C249.486 164.266 249.551 163.831 249.551 163.394V72.7989C249.551 72.3568 249.485 71.9172 249.356 71.4944C249.236 71.0975 249.056 70.7211 248.824 70.3778C248.611 70.0613 248.344 69.7857 248.034 69.5642C247.745 69.3586 247.412 69.2243 247.062 69.1723Z" fill="#0B6FF4"/>
<path opacity="0.2" d="M247.062 69.1723L144.838 55.1285C144.365 55.061 143.884 55.1021 143.429 55.2486C142.997 55.3912 142.602 55.6295 142.274 55.9459C141.935 56.2731 141.669 56.6678 141.492 57.1045C141.299 57.5863 141.201 58.1011 141.204 58.6202V168.66C141.203 169.186 141.3 169.708 141.492 170.198C141.67 170.653 141.936 171.07 142.274 171.424C142.599 171.765 142.993 172.034 143.429 172.214C143.875 172.396 144.356 172.477 144.837 172.45L247.062 166.82C247.407 166.797 247.741 166.689 248.034 166.504C248.343 166.308 248.612 166.054 248.824 165.755C249.058 165.429 249.237 165.067 249.356 164.683C249.486 164.266 249.551 163.831 249.551 163.394V72.7989C249.551 72.3568 249.485 71.9172 249.356 71.4944C249.236 71.0975 249.056 70.7211 248.824 70.3778C248.611 70.0613 248.344 69.7857 248.034 69.5642C247.745 69.3586 247.412 69.2243 247.062 69.1723Z" fill="#0B6FF4"/>
<path d="M251.275 69.1723L149.051 55.1285C148.579 55.061 148.097 55.1021 147.642 55.2486C147.21 55.3912 146.815 55.6295 146.487 55.9459C146.149 56.2731 145.882 56.6678 145.705 57.1045C145.512 57.5863 145.414 58.1011 145.417 58.6202V168.66C145.416 169.186 145.514 169.708 145.705 170.198C145.884 170.653 146.149 171.07 146.487 171.424C146.813 171.765 147.206 172.034 147.642 172.214C148.088 172.396 148.569 172.477 149.051 172.45L251.275 166.82C251.62 166.797 251.955 166.689 252.247 166.504C252.557 166.308 252.825 166.054 253.037 165.755C253.271 165.429 253.45 165.067 253.569 164.683C253.699 164.266 253.765 163.831 253.764 163.394V72.7989C253.764 72.3568 253.698 71.9172 253.569 71.4944C253.449 71.0975 253.27 70.7211 253.037 70.3778C252.825 70.0613 252.557 69.7857 252.247 69.5642C251.959 69.3586 251.626 69.2243 251.275 69.1723Z" fill="#0B6FF4"/>
<path d="M250.837 157.146C251.115 157.391 251.373 157.657 251.61 157.943L284.659 154.564L287.975 147.206L299.734 150.758L295.13 164.355C294.758 165.454 294.04 166.402 293.083 167.057C292.127 167.713 290.983 168.04 289.825 167.991L252.063 166.373C251.268 167.558 250.13 168.474 248.801 168.997C247.472 169.52 246.016 169.626 244.625 169.301C243.235 168.977 241.976 168.236 241.017 167.178C240.057 166.121 239.443 164.796 239.254 163.381C239.066 161.965 239.313 160.526 239.963 159.254C240.613 157.983 241.634 156.939 242.892 156.262C244.149 155.585 245.583 155.307 247.002 155.465C248.421 155.623 249.759 156.209 250.837 157.146Z" fill="#FFB6B6"/>
<path d="M284.009 152.987C283.83 152.592 283.74 152.164 283.742 151.731C283.745 151.297 283.841 150.87 284.024 150.477L290.411 136.762C291.041 134.637 292.488 132.848 294.435 131.789C296.382 130.729 298.669 130.484 300.796 131.109C302.923 131.733 304.715 133.176 305.78 135.12C306.845 137.063 307.095 139.35 306.476 141.479L304.337 156.506C304.276 156.935 304.123 157.345 303.889 157.71C303.655 158.074 303.345 158.384 302.98 158.618C302.616 158.852 302.205 159.005 301.776 159.065C301.347 159.126 300.91 159.094 300.495 158.971L285.899 154.639C285.484 154.516 285.1 154.305 284.774 154.02C284.447 153.735 284.186 153.382 284.009 152.987Z" fill="#3F3D56"/>
<path d="M439.473 339.941H238.817C238.677 339.941 238.543 339.886 238.445 339.787C238.346 339.688 238.29 339.554 238.29 339.414C238.29 339.275 238.346 339.141 238.445 339.042C238.543 338.943 238.677 338.888 238.817 338.888H439.473C439.613 338.888 439.747 338.943 439.846 339.042C439.945 339.141 440 339.275 440 339.414C440 339.554 439.945 339.688 439.846 339.787C439.747 339.886 439.613 339.941 439.473 339.941Z" fill="#CACACA"/>
</g>
<defs>
<clipPath id="clip0_20_846">
<rect width="440" height="339.941" fill="white"/>
</clipPath>
</defs>
</svg>
