<svg width="750" height="654" viewBox="0 0 750 654" fill="none" xmlns="http://www.w3.org/2000/svg">
<g clip-path="url(#clip0_20_1119)">
<path d="M676.229 339.967C676.327 420.801 645.082 498.525 589.064 556.8C585.686 560.336 582.218 563.787 578.658 567.152C573.235 572.311 567.63 577.269 561.843 582.028C507.703 626.633 440.114 651.699 369.982 653.18C367.645 653.233 365.299 653.26 362.945 653.26C307.013 653.26 236.663 623.384 172.821 582.028C167.539 578.607 162.304 575.106 157.116 571.526C154.691 569.868 152.278 568.187 149.877 566.482C125.254 549.095 101.882 530.002 79.9329 509.342C65.5622 495.855 52.0862 481.445 39.5908 466.204C-9.46341 405.696 -20.283 351.174 49.6521 339.967C57.9322 338.644 65.9682 337.23 73.7604 335.725C85.0474 333.556 95.8494 331.213 106.166 328.697C120.063 325.32 133.12 321.658 145.336 317.71C149.445 316.388 153.46 315.038 157.381 313.663C215.35 293.302 254.149 266.751 280.559 237.943C285.038 233.067 289.168 228.132 292.948 223.138C298.731 215.536 303.985 207.546 308.671 199.223C315.138 187.66 320.571 175.547 324.904 163.026L325.142 162.338C346.156 101.723 339.763 45.5002 362.945 26.6827C462.041 -53.7634 585.413 60.7993 643.32 195.899C646.239 202.707 648.985 209.555 651.556 216.445C652.712 219.522 653.826 222.606 654.898 225.695C657.72 233.746 660.28 241.817 662.579 249.909C663.461 252.995 664.301 256.079 665.101 259.159C665.956 262.483 666.776 265.799 667.535 269.115C673.169 293.39 676.229 317.331 676.229 339.967Z" fill="#F2F2F2"/>
<path d="M369.982 653.18C367.645 653.233 365.299 653.26 362.945 653.26C307.013 653.26 236.663 623.384 172.821 582.028C167.539 578.607 162.304 575.106 157.116 571.526L161.667 543.838L299.412 525.549L368.544 578.413L369.982 653.18Z" fill="#2F2E41"/>
<path d="M376.613 158.767H356.984C356.376 158.767 355.793 159.009 355.363 159.439C354.933 159.868 354.692 160.451 354.692 161.059V180.697C354.692 180.997 354.751 181.295 354.867 181.573C354.982 181.85 355.151 182.102 355.364 182.314C355.577 182.526 355.83 182.694 356.108 182.809C356.386 182.923 356.683 182.982 356.984 182.981H376.613C377.219 182.981 377.801 182.741 378.231 182.313C378.661 181.885 378.903 181.303 378.906 180.697V161.059C378.904 160.452 378.662 159.87 378.232 159.44C377.802 159.011 377.22 158.769 376.613 158.767Z" fill="white"/>
<path d="M376.613 192.231H356.984C356.376 192.231 355.793 192.473 355.363 192.903C354.933 193.333 354.692 193.916 354.692 194.524V214.161C354.692 214.462 354.751 214.759 354.867 215.037C354.982 215.314 355.151 215.566 355.364 215.778C355.577 215.991 355.83 216.159 356.108 216.273C356.386 216.387 356.683 216.446 356.984 216.445H376.613C377.219 216.445 377.801 216.205 378.231 215.777C378.661 215.349 378.903 214.768 378.906 214.161V194.524C378.904 193.916 378.662 193.334 378.232 192.904C377.802 192.475 377.22 192.233 376.613 192.231Z" fill="#E6E6E6"/>
<path d="M376.613 225.695H356.984C356.376 225.695 355.793 225.937 355.363 226.367C354.933 226.797 354.692 227.38 354.692 227.988V247.616C354.691 247.918 354.75 248.216 354.865 248.494C354.98 248.773 355.149 249.026 355.362 249.239C355.575 249.452 355.828 249.621 356.106 249.736C356.384 249.851 356.683 249.91 356.984 249.909H376.613C377.221 249.909 377.804 249.667 378.234 249.237C378.664 248.807 378.905 248.224 378.906 247.616V227.988C378.904 227.38 378.662 226.798 378.232 226.368C377.802 225.939 377.22 225.697 376.613 225.695Z" fill="#E6E6E6"/>
<path d="M378.87 261.046C378.772 260.518 378.493 260.041 378.081 259.696C377.669 259.352 377.15 259.162 376.613 259.159H356.984C356.376 259.159 355.793 259.401 355.363 259.831C354.933 260.261 354.692 260.844 354.692 261.452V281.081C354.691 281.382 354.75 281.68 354.865 281.959C354.98 282.237 355.149 282.49 355.362 282.703C355.575 282.916 355.828 283.085 356.106 283.2C356.384 283.315 356.683 283.374 356.984 283.373H376.613C377.221 283.373 377.804 283.131 378.234 282.701C378.664 282.271 378.905 281.689 378.906 281.081V261.452C378.907 261.316 378.895 261.18 378.87 261.046Z" fill="#E6E6E6"/>
<path d="M377.503 292.8C377.221 292.683 376.918 292.623 376.613 292.623H356.984C356.683 292.623 356.384 292.681 356.106 292.796C355.828 292.911 355.575 293.08 355.362 293.293C355.149 293.506 354.98 293.759 354.865 294.038C354.75 294.316 354.691 294.615 354.692 294.916V314.545C354.69 314.846 354.749 315.145 354.863 315.424C354.978 315.702 355.147 315.956 355.36 316.169C355.573 316.382 355.826 316.551 356.105 316.666C356.384 316.78 356.683 316.839 356.984 316.837H376.613C377.221 316.837 377.804 316.595 378.234 316.165C378.664 315.736 378.905 315.153 378.906 314.545V294.916C378.904 294.465 378.771 294.024 378.522 293.647C378.273 293.271 377.919 292.977 377.503 292.8Z" fill="#E6E6E6"/>
<path d="M417.846 158.767H398.217C397.609 158.767 397.026 159.009 396.596 159.439C396.166 159.868 395.925 160.451 395.924 161.059V180.697C395.925 180.997 395.984 181.295 396.1 181.573C396.215 181.85 396.384 182.102 396.597 182.314C396.81 182.526 397.063 182.694 397.341 182.809C397.619 182.923 397.916 182.982 398.217 182.981H417.846C418.452 182.981 419.034 182.741 419.464 182.313C419.894 181.885 420.136 181.303 420.138 180.697V161.059C420.137 160.452 419.894 159.87 419.465 159.44C419.035 159.011 418.453 158.769 417.846 158.767Z" fill="#E6E6E6"/>
<path d="M417.846 192.231H398.217C397.609 192.231 397.026 192.473 396.596 192.903C396.166 193.333 395.925 193.916 395.924 194.524V214.161C395.925 214.462 395.984 214.759 396.1 215.037C396.215 215.314 396.384 215.566 396.597 215.778C396.81 215.991 397.063 216.159 397.341 216.273C397.619 216.387 397.916 216.446 398.217 216.445H417.846C418.452 216.445 419.034 216.205 419.464 215.777C419.894 215.349 420.136 214.768 420.138 214.161V194.524C420.137 193.916 419.894 193.334 419.465 192.904C419.035 192.475 418.453 192.233 417.846 192.231Z" fill="#0B6FF4"/>
<path d="M417.846 225.695H398.217C397.609 225.695 397.026 225.937 396.596 226.367C396.166 226.797 395.925 227.38 395.924 227.988V247.616C395.924 247.918 395.983 248.216 396.098 248.494C396.213 248.773 396.381 249.026 396.594 249.239C396.807 249.452 397.06 249.621 397.339 249.736C397.617 249.851 397.916 249.91 398.217 249.909H417.846C418.454 249.909 419.037 249.667 419.466 249.237C419.896 248.807 420.138 248.224 420.138 247.616V227.988C420.137 227.38 419.894 226.798 419.465 226.368C419.035 225.939 418.453 225.697 417.846 225.695Z" fill="#0B6FF4"/>
<path d="M417.846 259.159H398.217C397.736 259.159 397.268 259.311 396.878 259.593C396.489 259.875 396.198 260.272 396.048 260.729C395.966 260.961 395.924 261.205 395.924 261.452V281.081C395.924 281.382 395.983 281.68 396.098 281.959C396.213 282.237 396.381 282.49 396.594 282.703C396.807 282.916 397.06 283.085 397.339 283.2C397.617 283.315 397.916 283.374 398.217 283.373H417.846C418.454 283.373 419.037 283.131 419.466 282.701C419.896 282.271 420.138 281.688 420.138 281.081V261.452C420.137 260.844 419.894 260.262 419.465 259.833C419.035 259.403 418.453 259.161 417.846 259.159Z" fill="#0B6FF4"/>
<path d="M417.846 292.623H398.217C397.916 292.623 397.617 292.681 397.339 292.796C397.06 292.911 396.807 293.08 396.594 293.293C396.381 293.506 396.213 293.759 396.098 294.038C395.983 294.316 395.924 294.615 395.924 294.916V314.545C395.924 314.846 395.983 315.144 396.098 315.423C396.213 315.701 396.381 315.954 396.594 316.167C396.807 316.38 397.06 316.549 397.339 316.664C397.617 316.779 397.916 316.838 398.217 316.837H417.846C418.454 316.837 419.037 316.595 419.467 316.165C419.896 315.736 420.138 315.153 420.138 314.545V294.916C420.138 294.308 419.896 293.725 419.467 293.295C419.037 292.865 418.454 292.623 417.846 292.623Z" fill="#E6E6E6"/>
<path d="M459.078 158.767H439.45C438.842 158.767 438.259 159.009 437.829 159.439C437.399 159.868 437.157 160.451 437.157 161.059V180.697C437.157 180.997 437.217 181.295 437.332 181.573C437.448 181.85 437.617 182.102 437.83 182.314C438.043 182.526 438.295 182.694 438.573 182.809C438.851 182.923 439.149 182.982 439.45 182.981H459.078C459.685 182.981 460.267 182.741 460.697 182.313C461.126 181.885 461.369 181.303 461.371 180.697V161.059C461.369 160.452 461.127 159.87 460.697 159.44C460.268 159.011 459.686 158.769 459.078 158.767Z" fill="#0B6FF4"/>
<path d="M459.078 192.231H439.45C438.842 192.231 438.259 192.473 437.829 192.903C437.399 193.333 437.157 193.916 437.157 194.524V214.161C437.157 214.462 437.217 214.759 437.332 215.037C437.448 215.314 437.617 215.566 437.83 215.778C438.043 215.991 438.295 216.159 438.573 216.273C438.851 216.387 439.149 216.446 439.45 216.445H459.078C459.685 216.445 460.267 216.205 460.697 215.777C461.126 215.349 461.369 214.768 461.371 214.161V194.524C461.369 193.916 461.127 193.334 460.698 192.904C460.268 192.475 459.686 192.233 459.078 192.231Z" fill="#0B6FF4"/>
<path d="M459.078 225.695H439.45C438.842 225.695 438.259 225.937 437.829 226.367C437.399 226.797 437.157 227.38 437.157 227.988V247.616C437.156 247.918 437.215 248.216 437.33 248.494C437.445 248.773 437.614 249.026 437.827 249.239C438.04 249.452 438.293 249.621 438.571 249.736C438.85 249.851 439.148 249.91 439.45 249.909H459.078C459.686 249.909 460.269 249.667 460.699 249.237C461.129 248.807 461.371 248.224 461.371 247.616V227.988C461.369 227.38 461.127 226.798 460.698 226.368C460.268 225.939 459.686 225.697 459.078 225.695Z" fill="#E6E6E6"/>
<path d="M459.078 259.159H439.45C438.842 259.159 438.259 259.401 437.829 259.831C437.399 260.261 437.157 260.844 437.157 261.452V281.081C437.156 281.382 437.215 281.68 437.33 281.959C437.445 282.237 437.614 282.49 437.827 282.703C438.04 282.916 438.293 283.085 438.571 283.2C438.85 283.315 439.148 283.374 439.45 283.373H459.078C459.686 283.373 460.269 283.131 460.699 282.701C461.129 282.271 461.371 281.689 461.371 281.081V261.452C461.369 260.844 461.127 260.262 460.698 259.833C460.268 259.403 459.686 259.161 459.078 259.159Z" fill="#0B6FF4"/>
<path d="M459.078 292.623H439.45C439.148 292.623 438.85 292.681 438.571 292.796C438.293 292.911 438.04 293.08 437.827 293.293C437.614 293.506 437.445 293.759 437.33 294.038C437.215 294.316 437.156 294.615 437.157 294.916V314.545C437.156 314.846 437.215 315.144 437.33 315.423C437.445 315.701 437.614 315.954 437.827 316.167C438.04 316.38 438.293 316.549 438.571 316.664C438.85 316.779 439.148 316.838 439.45 316.837H459.078C459.686 316.837 460.269 316.595 460.699 316.165C461.129 315.736 461.371 315.153 461.371 314.545V294.916C461.371 294.308 461.129 293.725 460.699 293.295C460.269 292.865 459.686 292.623 459.078 292.623Z" fill="#0B6FF4"/>
<path d="M500.311 158.767H480.682C480.074 158.767 479.491 159.009 479.061 159.439C478.632 159.868 478.39 160.451 478.39 161.059V180.697C478.39 180.997 478.45 181.295 478.565 181.573C478.68 181.85 478.849 182.102 479.062 182.314C479.275 182.526 479.528 182.694 479.806 182.809C480.084 182.923 480.382 182.982 480.682 182.981H500.311C500.918 182.981 501.5 182.741 501.929 182.313C502.359 181.885 502.602 181.303 502.604 180.697V161.059C502.602 160.452 502.36 159.87 501.93 159.44C501.501 159.011 500.919 158.769 500.311 158.767Z" fill="#0B6FF4"/>
<path d="M500.311 192.231H480.682C480.074 192.231 479.491 192.473 479.061 192.903C478.632 193.333 478.39 193.916 478.39 194.524V214.161C478.39 214.462 478.45 214.759 478.565 215.037C478.68 215.314 478.849 215.566 479.062 215.778C479.275 215.991 479.528 216.159 479.806 216.273C480.084 216.387 480.382 216.446 480.682 216.445H500.311C500.918 216.445 501.5 216.205 501.929 215.777C502.359 215.349 502.602 214.768 502.604 214.161V194.524C502.602 193.916 502.36 193.334 501.93 192.904C501.501 192.475 500.919 192.233 500.311 192.231Z" fill="white"/>
<path d="M500.311 225.695H480.682C480.074 225.695 479.491 225.937 479.061 226.367C478.632 226.797 478.39 227.38 478.39 227.988V247.616C478.389 247.918 478.448 248.216 478.563 248.494C478.678 248.773 478.847 249.026 479.06 249.239C479.273 249.452 479.526 249.621 479.804 249.736C480.083 249.851 480.381 249.91 480.682 249.909H500.311C500.919 249.909 501.502 249.667 501.932 249.237C502.362 248.807 502.604 248.224 502.604 247.616V227.988C502.602 227.38 502.36 226.798 501.93 226.368C501.501 225.939 500.919 225.697 500.311 225.695Z" fill="white"/>
<path d="M500.311 259.159H480.682C480.074 259.159 479.491 259.401 479.061 259.831C478.632 260.261 478.39 260.844 478.39 261.452V281.081C478.389 281.382 478.448 281.68 478.563 281.959C478.678 282.237 478.847 282.49 479.06 282.703C479.273 282.916 479.526 283.085 479.804 283.2C480.083 283.315 480.381 283.374 480.682 283.373H500.311C500.919 283.373 501.502 283.131 501.932 282.701C502.362 282.271 502.604 281.689 502.604 281.081V261.452C502.602 260.844 502.36 260.262 501.93 259.833C501.501 259.403 500.919 259.161 500.311 259.159Z" fill="#E6E6E6"/>
<path d="M500.311 292.623H480.682C480.381 292.623 480.083 292.681 479.804 292.796C479.526 292.911 479.273 293.08 479.06 293.293C478.847 293.506 478.678 293.759 478.563 294.038C478.448 294.316 478.389 294.615 478.39 294.916V314.545C478.389 314.846 478.448 315.144 478.563 315.423C478.678 315.701 478.847 315.954 479.06 316.167C479.273 316.38 479.526 316.549 479.804 316.664C480.083 316.779 480.381 316.838 480.682 316.837H500.311C500.919 316.837 501.502 316.595 501.932 316.165C502.362 315.736 502.604 315.153 502.604 314.545V294.916C502.604 294.308 502.362 293.725 501.932 293.295C501.502 292.865 500.919 292.623 500.311 292.623Z" fill="#0B6FF4"/>
<path d="M541.544 158.767H521.906C521.299 158.769 520.718 159.011 520.29 159.441C519.862 159.871 519.622 160.453 519.622 161.059V180.697C519.622 181.303 519.863 181.883 520.291 182.312C520.72 182.74 521.3 182.981 521.906 182.981H541.544C542.15 182.981 542.732 182.741 543.162 182.313C543.592 181.885 543.834 181.303 543.836 180.697V161.059C543.835 160.452 543.592 159.87 543.163 159.44C542.733 159.011 542.151 158.769 541.544 158.767Z" fill="white"/>
<path d="M541.544 192.231H521.906C521.299 192.233 520.718 192.476 520.29 192.905C519.862 193.335 519.622 193.917 519.622 194.524V214.161C519.622 214.767 519.863 215.348 520.291 215.776C520.72 216.204 521.3 216.445 521.906 216.445H541.544C542.15 216.445 542.732 216.205 543.162 215.777C543.592 215.349 543.834 214.768 543.836 214.161V194.524C543.835 193.916 543.592 193.334 543.163 192.904C542.733 192.475 542.151 192.233 541.544 192.231Z" fill="white"/>
<path d="M541.544 225.695H521.906C521.299 225.697 520.718 225.94 520.29 226.369C519.862 226.799 519.622 227.381 519.622 227.988V247.616C519.621 247.917 519.68 248.215 519.794 248.493C519.909 248.771 520.077 249.023 520.289 249.236C520.501 249.449 520.753 249.618 521.03 249.734C521.308 249.849 521.606 249.909 521.906 249.909H541.544C542.152 249.909 542.735 249.667 543.165 249.237C543.594 248.807 543.836 248.224 543.836 247.616V227.988C543.835 227.38 543.592 226.798 543.163 226.368C542.733 225.939 542.151 225.697 541.544 225.695Z" fill="white"/>
<path d="M541.544 259.159H521.906C521.299 259.161 520.718 259.404 520.29 259.833C519.862 260.263 519.622 260.845 519.622 261.452V281.081C519.621 281.381 519.68 281.679 519.794 281.957C519.909 282.235 520.077 282.488 520.289 282.7C520.501 282.913 520.753 283.082 521.03 283.198C521.308 283.313 521.605 283.373 521.906 283.373H541.544C542.152 283.373 542.735 283.131 543.165 282.701C543.594 282.272 543.836 281.689 543.836 281.081V261.452C543.835 260.844 543.592 260.262 543.163 259.833C542.733 259.403 542.151 259.161 541.544 259.159Z" fill="#0B6FF4"/>
<path d="M541.544 292.623H521.906C521.606 292.623 521.308 292.683 521.03 292.798C520.753 292.914 520.501 293.083 520.289 293.296C520.077 293.509 519.909 293.762 519.794 294.04C519.68 294.317 519.621 294.615 519.622 294.916V314.545C519.621 314.845 519.68 315.143 519.794 315.421C519.909 315.699 520.077 315.952 520.289 316.165C520.501 316.377 520.753 316.547 521.03 316.662C521.308 316.777 521.605 316.837 521.906 316.837H541.544C542.152 316.837 542.735 316.595 543.165 316.165C543.594 315.736 543.836 315.153 543.836 314.545V294.916C543.836 294.308 543.594 293.725 543.165 293.295C542.735 292.865 542.152 292.623 541.544 292.623Z" fill="#E6E6E6"/>
<path d="M582.776 158.767H563.139C562.532 158.769 561.951 159.011 561.523 159.441C561.095 159.871 560.855 160.453 560.855 161.059V180.697C560.855 181.303 561.096 181.883 561.524 182.312C561.952 182.74 562.533 182.981 563.139 182.981H582.776C583.383 182.981 583.965 182.741 584.395 182.313C584.824 181.885 585.067 181.303 585.069 180.697V161.059C585.067 160.452 584.825 159.87 584.396 159.44C583.966 159.011 583.384 158.769 582.776 158.767Z" fill="white"/>
<path d="M582.776 192.231H563.139C562.532 192.233 561.951 192.476 561.523 192.905C561.095 193.335 560.855 193.917 560.855 194.524V214.161C560.855 214.767 561.096 215.348 561.524 215.776C561.952 216.204 562.533 216.445 563.139 216.445H582.776C583.383 216.445 583.965 216.205 584.395 215.777C584.824 215.349 585.067 214.768 585.069 214.161V194.524C585.067 193.916 584.825 193.334 584.396 192.904C583.966 192.475 583.384 192.233 582.776 192.231Z" fill="white"/>
<path d="M582.776 225.695H563.139C562.532 225.697 561.951 225.94 561.523 226.369C561.095 226.799 560.855 227.381 560.855 227.988V247.616C560.854 247.917 560.913 248.215 561.027 248.493C561.141 248.771 561.309 249.023 561.522 249.236C561.734 249.449 561.986 249.618 562.263 249.734C562.541 249.849 562.838 249.909 563.139 249.909H582.776C583.384 249.909 583.967 249.667 584.397 249.237C584.827 248.807 585.069 248.224 585.069 247.616V227.988C585.067 227.38 584.825 226.798 584.396 226.368C583.966 225.939 583.384 225.697 582.776 225.695Z" fill="#0B6FF4"/>
<path d="M582.776 259.159H563.139C562.532 259.161 561.951 259.404 561.523 259.833C561.095 260.263 560.855 260.845 560.855 261.452V281.081C560.854 281.381 560.913 281.679 561.027 281.957C561.141 282.235 561.309 282.488 561.522 282.7C561.734 282.913 561.986 283.082 562.263 283.198C562.541 283.313 562.838 283.373 563.139 283.373H582.776C583.384 283.373 583.967 283.131 584.397 282.701C584.827 282.271 585.069 281.689 585.069 281.081V261.452C585.067 260.844 584.825 260.262 584.396 259.833C583.966 259.403 583.384 259.161 582.776 259.159Z" fill="#E6E6E6"/>
<path d="M582.776 292.623H563.139C562.838 292.623 562.541 292.683 562.263 292.798C561.986 292.914 561.734 293.083 561.522 293.296C561.309 293.509 561.141 293.762 561.027 294.04C560.913 294.317 560.854 294.615 560.855 294.916V314.545C560.854 314.845 560.913 315.143 561.027 315.421C561.141 315.699 561.309 315.952 561.522 316.165C561.734 316.377 561.986 316.547 562.263 316.662C562.541 316.777 562.838 316.837 563.139 316.837H582.776C583.384 316.837 583.967 316.595 584.397 316.165C584.827 315.736 585.069 315.153 585.069 314.545V294.916C585.069 294.308 584.827 293.725 584.397 293.295C583.967 292.865 583.384 292.623 582.776 292.623Z" fill="white"/>
<path d="M624.009 158.767H604.372C603.765 158.769 603.184 159.011 602.756 159.441C602.328 159.871 602.087 160.453 602.088 161.059V180.697C602.088 181.303 602.328 181.883 602.757 182.312C603.185 182.74 603.766 182.981 604.372 182.981H624.009C624.616 182.981 625.198 182.741 625.627 182.313C626.057 181.885 626.3 181.303 626.302 180.697V161.059C626.3 160.452 626.058 159.87 625.628 159.44C625.199 159.011 624.617 158.769 624.009 158.767Z" fill="#0B6FF4"/>
<path d="M624.009 192.231H604.372C603.765 192.233 603.184 192.476 602.756 192.905C602.328 193.335 602.087 193.917 602.088 194.524V214.161C602.088 214.767 602.328 215.348 602.757 215.776C603.185 216.204 603.766 216.445 604.372 216.445H624.009C624.616 216.445 625.198 216.205 625.627 215.777C626.057 215.349 626.3 214.768 626.302 214.161V194.524C626.3 193.916 626.058 193.334 625.628 192.904C625.199 192.475 624.617 192.233 624.009 192.231Z" fill="#0B6FF4"/>
<path d="M624.009 225.695H604.372C603.765 225.697 603.184 225.94 602.756 226.369C602.328 226.799 602.087 227.381 602.088 227.988V247.616C602.087 247.917 602.145 248.215 602.26 248.493C602.374 248.771 602.542 249.023 602.754 249.236C602.966 249.449 603.218 249.618 603.496 249.734C603.773 249.849 604.071 249.909 604.372 249.909H624.009C624.617 249.909 625.2 249.667 625.63 249.237C626.06 248.807 626.301 248.224 626.302 247.616V227.988C626.3 227.38 626.058 226.798 625.628 226.368C625.199 225.939 624.617 225.697 624.009 225.695Z" fill="#E6E6E6"/>
<path d="M624.009 259.159H604.372C603.765 259.161 603.184 259.404 602.756 259.833C602.328 260.263 602.087 260.845 602.088 261.452V281.081C602.087 281.381 602.145 281.679 602.26 281.957C602.374 282.235 602.542 282.488 602.754 282.7C602.966 282.913 603.218 283.082 603.496 283.198C603.773 283.313 604.071 283.373 604.372 283.373H624.009C624.617 283.373 625.2 283.131 625.63 282.701C626.06 282.271 626.302 281.689 626.302 281.081V261.452C626.3 260.844 626.058 260.262 625.628 259.833C625.199 259.403 624.617 259.161 624.009 259.159Z" fill="white"/>
<path d="M624.009 292.623H604.372C604.071 292.623 603.773 292.683 603.496 292.798C603.218 292.914 602.966 293.083 602.754 293.296C602.542 293.509 602.374 293.762 602.26 294.04C602.145 294.317 602.087 294.615 602.088 294.916V314.545C602.087 314.845 602.145 315.143 602.26 315.421C602.374 315.699 602.542 315.952 602.754 316.165C602.966 316.377 603.218 316.547 603.496 316.662C603.773 316.777 604.071 316.837 604.372 316.837H624.009C624.617 316.837 625.2 316.595 625.63 316.165C626.06 315.736 626.301 315.153 626.302 314.545V294.916C626.302 294.308 626.06 293.725 625.63 293.295C625.2 292.865 624.617 292.623 624.009 292.623Z" fill="#0B6FF4"/>
<path d="M665.242 158.767H645.604C644.998 158.769 644.417 159.011 643.988 159.441C643.56 159.871 643.32 160.453 643.32 161.059V180.697C643.32 181.303 643.561 181.883 643.989 182.312C644.418 182.74 644.998 182.981 645.604 182.981H665.242C665.848 182.981 666.43 182.741 666.86 182.313C667.29 181.885 667.532 181.303 667.534 180.697V161.059C667.533 160.452 667.29 159.87 666.861 159.44C666.431 159.011 665.849 158.769 665.242 158.767Z" fill="#0B6FF4"/>
<path d="M665.242 192.231H645.604C644.998 192.233 644.417 192.476 643.988 192.905C643.56 193.335 643.32 193.917 643.32 194.524V214.161C643.32 214.767 643.561 215.348 643.989 215.776C644.418 216.204 644.999 216.445 645.604 216.445H665.242C665.848 216.445 666.43 216.205 666.86 215.777C667.29 215.349 667.532 214.768 667.534 214.161V194.524C667.533 193.916 667.29 193.334 666.861 192.904C666.431 192.475 665.849 192.233 665.242 192.231Z" fill="#0B6FF4"/>
<path d="M665.242 225.695H645.604C644.998 225.697 644.417 225.94 643.988 226.369C643.56 226.799 643.32 227.381 643.32 227.988V247.616C643.319 247.917 643.378 248.215 643.492 248.493C643.607 248.771 643.775 249.023 643.987 249.236C644.199 249.449 644.451 249.618 644.729 249.734C645.006 249.849 645.304 249.909 645.604 249.909H665.242C665.85 249.909 666.433 249.667 666.863 249.237C667.292 248.807 667.534 248.224 667.534 247.616V227.988C667.533 227.38 667.291 226.798 666.861 226.368C666.431 225.939 665.849 225.697 665.242 225.695Z" fill="#E6E6E6"/>
<path d="M665.242 259.159H645.604C644.998 259.161 644.417 259.404 643.989 259.833C643.56 260.263 643.32 260.845 643.32 261.452V281.081C643.319 281.381 643.378 281.679 643.492 281.957C643.607 282.235 643.775 282.488 643.987 282.7C644.199 282.913 644.451 283.082 644.729 283.198C645.006 283.313 645.304 283.373 645.604 283.373H665.242C665.85 283.373 666.433 283.131 666.863 282.701C667.292 282.271 667.534 281.689 667.534 281.081V261.452C667.533 260.844 667.29 260.262 666.861 259.833C666.431 259.403 665.849 259.161 665.242 259.159Z" fill="#0B6FF4"/>
<path d="M665.242 292.623H645.604C645.304 292.623 645.006 292.683 644.729 292.798C644.451 292.914 644.199 293.083 643.987 293.296C643.775 293.509 643.607 293.762 643.492 294.04C643.378 294.317 643.319 294.615 643.32 294.916V314.545C643.319 314.845 643.378 315.143 643.492 315.421C643.607 315.699 643.775 315.952 643.987 316.165C644.199 316.377 644.451 316.547 644.728 316.662C645.006 316.777 645.304 316.837 645.604 316.837H665.242C665.85 316.837 666.433 316.595 666.863 316.165C667.292 315.736 667.534 315.153 667.534 314.545V294.916C667.534 294.308 667.292 293.725 666.863 293.295C666.433 292.865 665.85 292.623 665.242 292.623Z" fill="#0B6FF4"/>
<path d="M706.475 158.767H686.837C686.23 158.769 685.65 159.011 685.221 159.441C684.793 159.871 684.553 160.453 684.553 161.059V180.697C684.553 181.303 684.794 181.883 685.222 182.312C685.651 182.74 686.231 182.981 686.837 182.981H706.475C707.081 182.981 707.663 182.741 708.093 182.313C708.523 181.885 708.765 181.303 708.767 180.697V161.059C708.765 160.452 708.523 159.87 708.094 159.44C707.664 159.011 707.082 158.769 706.475 158.767Z" fill="#E6E6E6"/>
<path d="M706.475 192.231H686.837C686.23 192.233 685.649 192.476 685.221 192.905C684.793 193.335 684.553 193.917 684.553 194.524V214.161C684.553 214.767 684.794 215.348 685.222 215.776C685.651 216.204 686.231 216.445 686.837 216.445H706.475C707.081 216.445 707.663 216.205 708.093 215.777C708.523 215.349 708.765 214.768 708.767 214.161V194.524C708.765 193.916 708.523 193.334 708.094 192.904C707.664 192.475 707.082 192.233 706.475 192.231Z" fill="#0B6FF4"/>
<path d="M706.475 225.695H686.837C686.23 225.697 685.649 225.94 685.221 226.369C684.793 226.799 684.553 227.381 684.553 227.988V247.616C684.552 247.917 684.611 248.215 684.725 248.493C684.84 248.771 685.008 249.023 685.22 249.236C685.432 249.449 685.684 249.618 685.961 249.734C686.239 249.849 686.536 249.909 686.837 249.909H706.475C707.083 249.909 707.666 249.667 708.095 249.237C708.525 248.807 708.767 248.224 708.767 247.616V227.988C708.766 227.38 708.523 226.798 708.094 226.368C707.664 225.939 707.082 225.697 706.475 225.695Z" fill="#0B6FF4"/>
<path d="M706.475 259.159H686.837C686.23 259.161 685.649 259.404 685.221 259.833C684.793 260.263 684.553 260.845 684.553 261.452V281.081C684.552 281.381 684.611 281.679 684.725 281.957C684.84 282.235 685.008 282.488 685.22 282.7C685.432 282.913 685.684 283.082 685.961 283.198C686.239 283.313 686.536 283.373 686.837 283.373H706.475C707.083 283.373 707.666 283.131 708.095 282.701C708.525 282.271 708.767 281.689 708.767 281.081V261.452C708.765 260.844 708.523 260.262 708.094 259.833C707.664 259.403 707.082 259.161 706.475 259.159Z" fill="#0B6FF4"/>
<path d="M706.475 292.623H686.837C686.536 292.623 686.239 292.683 685.961 292.798C685.684 292.914 685.432 293.083 685.22 293.296C685.008 293.509 684.84 293.762 684.725 294.04C684.611 294.317 684.552 294.615 684.553 294.916V314.545C684.552 314.845 684.611 315.143 684.725 315.421C684.84 315.699 685.008 315.952 685.22 316.165C685.432 316.377 685.684 316.547 685.961 316.662C686.239 316.777 686.536 316.837 686.837 316.837H706.475C707.083 316.837 707.666 316.595 708.095 316.165C708.525 315.736 708.767 315.153 708.767 314.545V294.916C708.767 294.308 708.525 293.725 708.095 293.295C707.666 292.865 707.083 292.623 706.475 292.623Z" fill="#E6E6E6"/>
<path d="M747.707 158.767H728.07C727.463 158.769 726.882 159.011 726.454 159.441C726.026 159.871 725.786 160.453 725.786 161.059V180.697C725.786 181.303 726.027 181.883 726.455 182.312C726.883 182.74 727.464 182.981 728.07 182.981H747.707C748.314 182.981 748.896 182.741 749.326 182.313C749.755 181.885 749.998 181.303 750 180.697V161.059C749.998 160.452 749.756 159.87 749.327 159.44C748.897 159.011 748.315 158.769 747.707 158.767Z" fill="#E6E6E6"/>
<path d="M747.707 192.231H728.07C727.463 192.233 726.882 192.476 726.454 192.905C726.026 193.335 725.786 193.917 725.786 194.524V214.161C725.786 214.767 726.027 215.348 726.455 215.776C726.883 216.204 727.464 216.445 728.07 216.445H747.707C748.314 216.445 748.896 216.205 749.326 215.777C749.755 215.349 749.998 214.768 750 214.161V194.524C749.998 193.916 749.756 193.334 749.327 192.904C748.897 192.475 748.315 192.233 747.707 192.231Z" fill="#E6E6E6"/>
<path d="M747.707 225.695H728.07C727.463 225.697 726.882 225.94 726.454 226.369C726.026 226.799 725.786 227.381 725.786 227.988V247.616C725.785 247.917 725.844 248.215 725.958 248.493C726.072 248.771 726.24 249.023 726.452 249.236C726.665 249.449 726.917 249.618 727.194 249.734C727.472 249.849 727.769 249.909 728.07 249.909H747.707C748.315 249.909 748.898 249.667 749.328 249.237C749.758 248.807 750 248.224 750 247.616V227.988C749.998 227.38 749.756 226.798 749.327 226.368C748.897 225.939 748.315 225.697 747.707 225.695Z" fill="#0B6FF4"/>
<path d="M747.707 259.159H728.07C727.463 259.161 726.882 259.404 726.454 259.833C726.026 260.263 725.786 260.845 725.786 261.452V281.081C725.785 281.381 725.844 281.679 725.958 281.957C726.072 282.235 726.24 282.488 726.452 282.7C726.665 282.913 726.917 283.082 727.194 283.198C727.472 283.313 727.769 283.373 728.07 283.373H747.707C748.315 283.373 748.898 283.131 749.328 282.701C749.758 282.271 750 281.689 750 281.081V261.452C749.998 260.844 749.756 260.262 749.327 259.833C748.897 259.403 748.315 259.161 747.707 259.159Z" fill="#E6E6E6"/>
<path d="M747.707 292.623H728.07C727.769 292.623 727.472 292.683 727.194 292.798C726.917 292.914 726.665 293.083 726.452 293.296C726.24 293.509 726.072 293.762 725.958 294.04C725.844 294.317 725.785 294.615 725.786 294.916V314.545C725.785 314.845 725.844 315.143 725.958 315.421C726.072 315.699 726.24 315.952 726.452 316.165C726.665 316.377 726.917 316.547 727.194 316.662C727.472 316.777 727.769 316.837 728.07 316.837H747.707C748.315 316.837 748.898 316.595 749.328 316.165C749.758 315.736 750 315.153 750 314.545V294.916C750 294.308 749.758 293.725 749.328 293.295C748.898 292.865 748.315 292.623 747.707 292.623Z" fill="#E6E6E6"/>
<path d="M296.367 582.03H295.82L296.288 581.968L296.367 582.03Z" fill="#2F2E41"/>
<path d="M249.384 216.088C282.657 216.088 309.63 189.115 309.63 155.842C309.63 122.569 282.657 95.5962 249.384 95.5962C216.111 95.5962 189.138 122.569 189.138 155.842C189.138 189.115 216.111 216.088 249.384 216.088Z" fill="#FFB6B6"/>
<path d="M302.143 111.671C302.143 111.671 317.901 81.5479 283.234 78.8094C283.234 78.8094 253.681 52.0008 223.558 73.9084C223.558 73.9084 207.128 73.9084 198.143 92.5016C198.143 92.5016 185.22 87.6006 182.38 100.717C182.38 100.717 172.924 128.101 182.38 152.748C191.836 177.394 194.977 180.132 194.977 180.132C194.977 180.132 179.439 128.46 217.26 125.722C255.081 122.983 297.403 99.3478 300.555 129.471C303.707 159.594 308.45 167.016 308.45 167.016C308.45 167.016 338.387 123.994 302.143 111.671Z" fill="#2F2E41"/>
<path d="M405.227 304.316L405.033 305.339L402.855 316.837L387.803 396.375L386.912 401.058L385.043 410.96L382.486 424.469L376.815 454.406L375.193 462.986L374.585 466.205L374.373 467.333L372.689 476.213L372.177 478.893L368.068 509.342L364.479 535.875L376.489 547.885L369.329 555.045L364.629 581.967L364.638 582.028H172.821C165.061 577.002 157.413 571.82 149.877 566.482L151.455 554.666C151.455 554.666 156.887 533.565 154.603 531.043C152.328 528.521 147.337 524.015 147.337 524.015L153.624 509.342L154.497 507.305L153.034 476.945L152.998 476.213L152.514 466.204L152.452 464.917L152.355 462.986L150.494 424.469L150.459 423.834L149.895 412.159L149.365 401.058L149.136 396.375L146.87 349.525L145.336 317.71L143.995 290.013L149.383 288.188L207.008 268.603L230.879 237.573L280.559 237.943L304.879 238.128L345.459 275.763L354.691 280.172L354.762 280.207L361.384 283.373L378.174 291.389L395.924 299.872L405.033 304.219L405.227 304.316Z" fill="#CACACA"/>
<path d="M237.299 491.645C233.658 493.056 229.753 493.651 225.857 493.389C221.962 493.126 218.171 492.013 214.753 490.127C211.334 488.242 208.37 485.629 206.071 482.474C203.771 479.319 202.191 475.698 201.442 471.867L107.479 458.536L140.143 421.587L224.364 439.911C230.884 439.079 237.483 440.668 242.91 444.377C248.338 448.085 252.216 453.656 253.81 460.033C255.405 466.41 254.605 473.15 251.561 478.977C248.518 484.803 243.443 489.311 237.299 491.645Z" fill="#FFB6B6"/>
<path d="M195.404 424.469C193.663 422.263 191.199 420.742 188.447 420.175L149.895 412.159L145.935 411.339C143.634 410.859 141.461 409.898 139.557 408.52C137.653 407.142 136.061 405.377 134.886 403.341C133.668 401.204 132.93 398.827 132.726 396.375C132.542 394.146 132.809 391.903 133.511 389.779L146.87 349.525L155.538 323.407C156.588 320.257 157.208 316.979 157.381 313.663C157.864 304.486 155.025 295.442 149.383 288.188C144.423 281.812 137.544 277.2 129.762 275.034C121.979 272.868 113.707 273.263 106.166 276.16C105.946 276.24 105.717 276.328 105.496 276.416C100.088 278.575 95.2568 281.963 91.3833 286.31C87.5099 290.658 84.7008 295.847 83.1778 301.468L73.7603 335.725L54.3343 406.348C52.3897 413.424 51.9968 420.837 53.1826 428.078C54.3684 435.32 57.1049 442.22 61.2047 448.306C65.3045 454.392 70.6708 459.52 76.9364 463.34C83.2021 467.16 90.219 469.581 97.507 470.437L153.034 476.945L178.729 479.961C181.7 480.318 184.697 479.542 187.122 477.789C189.547 476.035 191.223 473.432 191.815 470.499C191.857 470.339 191.889 470.177 191.912 470.014L192.529 466.204L197.758 434.125L197.811 433.798C198.084 432.162 198.01 430.486 197.596 428.879C197.181 427.272 196.434 425.77 195.404 424.469Z" fill="#CACACA"/>
<path d="M297.149 492.674C300.953 493.557 304.903 493.595 308.722 492.786C312.542 491.977 316.138 490.34 319.256 487.991C322.375 485.642 324.94 482.638 326.772 479.191C328.604 475.743 329.658 471.935 329.859 468.036L421.003 441.588L383.455 409.615L302.66 439.632C296.087 439.728 289.778 442.232 284.928 446.669C280.078 451.106 277.024 457.167 276.345 463.706C275.666 470.244 277.408 476.804 281.243 482.143C285.077 487.482 290.737 491.229 297.149 492.674Z" fill="#FFB6B6"/>
<path d="M466.256 382.425L422.907 282.659C419.361 274.468 413.029 267.798 405.033 263.833C402.561 262.616 399.966 261.67 397.291 261.011C396.876 260.905 396.462 260.808 396.048 260.729C390.376 259.491 384.493 259.6 378.87 261.046C373.731 262.366 368.927 264.755 364.773 268.057C360.619 271.359 357.208 275.499 354.762 280.208C354.735 280.247 354.712 280.288 354.691 280.331C351.959 285.617 350.506 291.471 350.449 297.421C350.392 303.371 351.734 309.252 354.365 314.589L354.903 315.664L385.537 377.187C386.583 379.291 387.172 381.592 387.266 383.94C387.36 386.288 386.957 388.628 386.083 390.809C385.208 392.99 383.883 394.961 382.193 396.594C380.503 398.226 378.487 399.483 376.278 400.281L374.126 401.058L335.433 415.034C332.53 416.07 330.141 418.192 328.771 420.954C327.401 423.715 327.156 426.901 328.088 429.839L328.185 430.148L339.031 464.855C339.084 465.014 339.136 465.173 339.198 465.331C339.293 465.631 339.411 465.923 339.551 466.204C340.704 468.79 342.741 470.879 345.297 472.096C347.852 473.313 350.758 473.578 353.492 472.844L374.373 467.333L378.632 466.204L432.554 451.963C439.649 450.089 446.255 446.703 451.92 442.038C457.585 437.372 462.174 431.538 465.375 424.934C468.576 418.331 470.311 411.113 470.464 403.776C470.616 396.439 469.18 389.156 466.256 382.425Z" fill="#CACACA"/>
<path d="M39.5908 466.204C52.0862 481.445 65.5622 495.855 79.9329 509.342H478.478C482.318 509.348 485.998 510.876 488.712 513.592C491.427 516.308 492.953 519.99 492.957 523.83L493.53 624.822C518.048 613.557 541.009 599.174 561.843 582.028C567.627 577.275 573.232 572.317 578.658 567.152C582.212 563.784 585.68 560.333 589.064 556.8C614.427 530.377 634.966 499.715 649.749 466.204H39.5908Z" fill="#3F3D56"/>
<path d="M589.064 556.8C585.686 560.336 582.218 563.787 578.658 567.152H493.821V556.8H589.064Z" fill="white"/>
<path d="M404.434 225.695C404.014 224.921 403.394 224.275 402.638 223.825C401.882 223.375 401.019 223.138 400.139 223.138H111.052C109.755 223.141 108.514 223.658 107.598 224.575C106.682 225.493 106.167 226.736 106.166 228.032V401.058H405.033V228.032C405.038 227.214 404.831 226.409 404.434 225.695Z" fill="#3F3D56"/>
<path d="M105.905 396.373V417.725C105.905 418.61 106.079 419.486 106.418 420.304C106.756 421.122 107.253 421.865 107.879 422.491C108.505 423.117 109.248 423.613 110.065 423.952C110.883 424.291 111.76 424.465 112.645 424.465H222.954V466.603H221.489C221.374 466.603 221.26 466.626 221.154 466.67C221.048 466.714 220.951 466.778 220.87 466.859C220.789 466.941 220.724 467.037 220.68 467.143C220.636 467.25 220.613 467.364 220.613 467.479V470.409C220.613 470.524 220.636 470.638 220.68 470.745C220.724 470.851 220.789 470.947 220.87 471.029C220.951 471.11 221.048 471.174 221.154 471.218C221.26 471.262 221.374 471.285 221.489 471.285H289.968C290.083 471.285 290.197 471.262 290.303 471.218C290.409 471.174 290.506 471.11 290.587 471.029C290.668 470.947 290.733 470.851 290.777 470.745C290.821 470.638 290.843 470.524 290.843 470.409V467.479C290.843 467.364 290.821 467.25 290.777 467.143C290.733 467.037 290.668 466.941 290.587 466.859C290.506 466.778 290.409 466.714 290.303 466.67C290.197 466.626 290.083 466.603 289.968 466.603H288.502V424.465H398.812C399.697 424.465 400.574 424.291 401.391 423.952C402.209 423.613 402.952 423.117 403.578 422.491C404.204 421.865 404.7 421.122 405.039 420.304C405.378 419.486 405.552 418.61 405.552 417.725V396.373H105.905Z" fill="#3F3D56"/>
<path d="M252.108 335.091C267.354 335.091 279.714 322.731 279.714 307.485C279.714 292.239 267.354 279.879 252.108 279.879C236.861 279.879 224.502 292.239 224.502 307.485C224.502 322.731 236.861 335.091 252.108 335.091Z" fill="#0B6FF4"/>
<path d="M322.444 152.55H318.035C318.035 119.218 285.047 97.3762 251.768 97.3586C246.928 97.3444 242.098 97.8141 237.351 98.7606C232.007 99.8276 226.461 101.106 221.011 102.773C199.522 109.36 179.593 122.093 179.593 152.55C179.589 158.465 180.341 164.356 181.833 170.08L177.565 171.191C175.982 165.104 175.182 158.84 175.184 152.55C175.184 125.938 186.11 107.658 204.98 96.7589C214.9 91.0273 227.007 87.3326 240.878 85.5337C246.65 84.7658 252.485 84.5885 258.293 85.0046C296.563 87.7558 322.444 117.102 322.444 152.55Z" fill="#0B6FF4"/>
<path d="M329.789 154.993L328.052 142.154C327.624 138.911 326.062 135.925 323.643 133.724C322.091 132.289 320.232 131.225 318.208 130.614C316.184 130.003 314.047 129.86 311.96 130.197L309.2 130.576C308.444 130.675 307.716 130.924 307.058 131.307C306.399 131.689 305.824 132.199 305.364 132.807C304.9 133.412 304.561 134.103 304.365 134.84C304.17 135.577 304.123 136.346 304.226 137.101L308.238 166.676C308.404 167.882 308.944 169.005 309.783 169.886C310.621 170.768 311.716 171.363 312.912 171.588C313.266 171.659 313.626 171.694 313.988 171.694C314.247 171.694 314.507 171.676 314.764 171.641L317.85 171.226C319.732 170.977 321.542 170.345 323.171 169.37C324.8 168.395 326.212 167.097 327.32 165.557C327.559 165.221 327.788 164.878 327.999 164.525C329.652 161.64 330.283 158.281 329.789 154.993Z" fill="#0B6FF4"/>
<path d="M307.418 131.114C306.609 131.507 305.905 132.087 305.364 132.807C304.9 133.412 304.561 134.103 304.365 134.84C304.17 135.577 304.123 136.346 304.226 137.101L308.238 166.676C308.404 167.882 308.944 169.005 309.783 169.886C310.621 170.768 311.716 171.363 312.912 171.588L307.418 131.114Z" fill="white"/>
<path d="M329.789 154.993L328.052 142.154C327.624 138.911 326.062 135.925 323.643 133.724L327.638 163.149C327.698 163.622 327.819 164.084 327.999 164.525C329.652 161.64 330.283 158.281 329.789 154.993Z" fill="#3F3D56"/>
<path d="M316.06 164.243C317.267 164.08 317.873 161.208 317.415 157.83C316.957 154.452 315.607 151.847 314.401 152.01C313.194 152.174 312.588 155.045 313.046 158.423C313.504 161.801 314.854 164.407 316.06 164.243Z" fill="#3F3D56"/>
<path d="M313.415 148.371C314.621 148.207 315.228 145.336 314.77 141.958C314.311 138.58 312.962 135.974 311.755 136.138C310.549 136.302 309.942 139.173 310.401 142.551C310.859 145.929 312.208 148.535 313.415 148.371Z" fill="#3F3D56"/>
<path d="M330.169 154.544C331.375 154.38 331.982 151.509 331.524 148.131C331.065 144.753 329.716 142.147 328.509 142.31C327.303 142.474 326.696 145.345 327.155 148.723C327.613 152.101 328.962 154.707 330.169 154.544Z" fill="#3F3D56"/>
<path d="M251.768 97.3585C246.928 97.3444 242.098 97.8141 237.351 98.7606C232.007 99.8276 226.461 101.106 221.011 102.773C212.502 102.358 206.241 100.154 204.98 96.7589C214.9 91.0273 227.007 87.3325 240.878 85.5337C246.65 84.7658 252.485 84.5885 258.294 85.0046C258.908 85.365 259.44 85.8515 259.853 86.4321C260.267 87.0126 260.553 87.6741 260.692 88.3731C261.106 91.4417 257.606 94.7043 251.768 97.3585Z" fill="#3F3D56"/>
<path d="M195.475 183.148L188.685 154.922C188.443 153.904 187.905 152.98 187.139 152.266C186.374 151.552 185.414 151.08 184.382 150.91C184.09 150.865 183.795 150.841 183.5 150.839C183.084 150.841 182.669 150.891 182.265 150.989L179.637 151.624C176.254 152.442 173.334 154.57 171.517 157.539C169.7 160.508 169.135 164.076 169.947 167.461L172.989 180.124C173.683 183.105 175.338 185.775 177.698 187.725C178.08 188.034 178.48 188.319 178.897 188.58C180.375 189.507 182.024 190.128 183.746 190.406C185.468 190.685 187.228 190.616 188.923 190.203L191.542 189.568C192.234 189.406 192.886 189.103 193.455 188.677C194.302 188.06 194.946 187.204 195.306 186.22C195.665 185.235 195.724 184.166 195.475 183.148Z" fill="#0B6FF4"/>
<path d="M181.24 177.897C182.424 177.612 182.737 174.694 181.939 171.38C181.142 168.065 179.536 165.609 178.352 165.894C177.168 166.179 176.855 169.097 177.653 172.411C178.45 175.725 180.057 178.181 181.24 177.897Z" fill="#3F3D56"/>
<path d="M172.422 180.542C173.606 180.257 173.919 177.339 173.122 174.025C172.324 170.711 170.718 168.255 169.534 168.539C168.35 168.824 168.037 171.742 168.835 175.056C169.632 178.371 171.239 180.827 172.422 180.542Z" fill="#3F3D56"/>
<path d="M195.907 183.043L189.117 154.816C188.852 153.714 188.269 152.715 187.439 151.943C186.609 151.172 185.57 150.662 184.452 150.478L193.72 189.03C194.635 188.36 195.331 187.433 195.72 186.368C196.11 185.302 196.174 184.145 195.907 183.043Z" fill="white"/>
<path d="M171.481 161.871C171.293 161.086 170.942 160.349 170.449 159.71C169.495 162.182 169.319 164.887 169.947 167.461L172.989 180.124C173.683 183.105 175.338 185.775 177.698 187.725L171.481 161.871Z" fill="#3F3D56"/>
</g>
<defs>
<clipPath id="clip0_20_1119">
<rect width="750" height="653.26" fill="white"/>
</clipPath>
</defs>
</svg>
