<svg width="160" height="80" viewBox="0 0 160 80" fill="none" xmlns="http://www.w3.org/2000/svg">
<g clip-path="url(#clip0_20_1203)">
<path d="M0.016119 19.4913C-0.0295514 18.6744 0.0218278 17.9037 0.170257 17.1792C0.318685 16.4547 0.598417 15.8536 1.00945 15.3757C1.42048 14.8979 2.11696 14.659 3.09887 14.659C3.32722 14.659 3.60695 14.6898 3.93806 14.7514C4.26918 14.8131 4.60029 14.9133 4.9314 15.052C5.26251 15.1908 5.53082 15.3834 5.73634 15.6301C5.94185 15.8767 6.04461 16.2158 6.04461 16.6474C6.04461 17.7881 6.07316 19.2909 6.13024 21.1561C6.18733 23.0212 6.26155 24.9634 6.35289 26.9827C6.44423 29.0019 6.52986 30.975 6.60978 32.9017C6.68971 34.8285 6.76392 36.3931 6.83243 37.5954C8.61357 37.4721 10.4061 37.4104 12.2101 37.4104C14.0141 37.4104 15.7952 37.3487 17.5536 37.2254L22.2804 37.0405V32.4624C22.2804 27.3449 22.2062 22.2197 22.0578 17.0867C21.9094 11.9538 21.6525 6.82852 21.2871 1.71098C21.2871 1.34104 21.4013 1.04046 21.6296 0.809249C21.858 0.578035 22.1263 0.400771 22.4346 0.277457C22.7429 0.154143 23.0625 0.0770713 23.3937 0.0462428C23.7248 0.0154143 23.9817 0 24.1643 0C24.6896 0 25.2547 0.1079 25.8599 0.323699C26.465 0.539499 26.8132 1.00193 26.9046 1.71098L27.1101 3.69942C27.681 9.24855 28.0692 14.736 28.2747 20.1618C28.4802 25.5877 28.6286 31.0135 28.72 36.4393C28.994 36.501 29.2851 36.6012 29.5934 36.7399C29.9017 36.8786 30.2157 37.0096 30.5354 37.1329C30.7637 37.2563 31.0891 37.4412 31.5116 37.6879C31.934 37.9345 32.1452 38.3198 32.1452 38.8439C32.1452 39.3372 31.9854 39.7225 31.6657 40C31.346 40.2775 30.9864 40.4855 30.5867 40.6243C30.1871 40.763 29.7989 40.8478 29.4221 40.8786C29.0454 40.9094 28.8113 40.9249 28.72 40.9249C28.7656 43.2062 28.7885 45.4798 28.7885 47.7457V54.5665V69.5029V77.8266C28.7885 78.1965 28.6572 78.5279 28.3946 78.8208C28.132 79.1137 27.818 79.3526 27.4526 79.5376C27.0872 79.7225 26.7048 79.8459 26.3051 79.9075C25.9055 79.9692 25.5459 80 25.2262 80C24.9065 80 24.5297 79.9692 24.0958 79.9075C23.662 79.8459 23.2738 79.7225 22.9312 79.5376C22.5887 79.3526 22.2861 79.1214 22.0235 78.8439C21.7609 78.5665 21.6296 78.2274 21.6296 77.8266V75.8382C21.721 69.9807 21.8237 64.1773 21.9379 58.4277C22.0521 52.6782 22.1663 46.9056 22.2804 41.1098C19.7914 41.2331 17.2624 41.3102 14.6934 41.341C12.1245 41.3719 9.57265 41.4489 7.03794 41.5723C7.31196 45.9191 7.62595 50.2582 7.97989 54.5896C8.33384 58.921 8.70491 63.2601 9.09311 67.6069C9.09311 67.9769 8.96181 68.3083 8.6992 68.6012C8.4366 68.894 8.12832 69.1329 7.77438 69.3179C7.42043 69.5029 7.04365 69.6262 6.64404 69.6879C6.24442 69.7495 5.88477 69.7803 5.56507 69.7803C4.90285 69.7803 4.17783 69.6262 3.39002 69.3179C2.60221 69.0096 2.16263 68.4393 2.07129 67.6069C1.79726 64.3391 1.54037 60.7322 1.3006 56.7861C1.06083 52.8401 0.849604 48.8092 0.666922 44.6936C0.484241 40.578 0.341521 36.5472 0.238762 32.6012C0.136004 28.6551 0.0846246 25.079 0.0846246 21.8728C0.0846246 21.1021 0.0617894 20.3083 0.016119 19.4913ZM37.7514 53.7803C37.7514 53.1638 37.8028 52.3468 37.9055 51.3295C38.0083 50.3121 38.1282 49.3025 38.2652 48.3006C38.4022 47.2986 38.5621 46.3661 38.7447 45.5029C38.9274 44.6397 39.1443 44.0848 39.3955 43.8382C39.5782 43.5915 39.8922 43.3449 40.3375 43.0983C40.7828 42.8516 41.2509 42.6744 41.7419 42.5665C42.2328 42.4586 42.6895 42.5048 43.112 42.7052C43.5344 42.9056 43.7913 43.3141 43.8827 43.9306C43.563 44.4855 43.2718 45.4335 43.0092 46.7746C42.7466 48.1156 42.5468 49.6031 42.4098 51.237C42.2956 52.6243 42.2385 54.0578 42.2385 55.5376V56.3237C42.2614 58.0501 42.3755 59.6378 42.581 61.0867C42.7866 62.5356 43.1005 63.7302 43.523 64.6705C43.9454 65.6108 44.5335 66.0809 45.287 66.0809C46.8855 66.0809 48.3469 65.0867 49.6714 63.0983C50.9958 61.1098 52.1718 58.6821 53.1994 55.815C54.227 52.948 55.129 49.9037 55.9054 46.6821C56.6818 43.4605 57.344 40.6474 57.892 38.2428C58.0291 37.5337 58.3545 37.0559 58.8683 36.8092C59.382 36.5626 59.9358 36.4778 60.5295 36.5549C61.1232 36.632 61.6541 36.8247 62.1223 37.1329C62.5904 37.4412 62.8701 37.8112 62.9615 38.2428C62.5048 43.422 62.1451 48.6012 61.8825 53.7803C61.6199 58.9595 61.4886 64.1696 61.4886 69.4104C61.4886 70.4277 61.5228 71.3603 61.5914 72.2081C61.6599 73.0559 61.6256 73.7803 61.4886 74.3815C61.3516 74.9827 61.049 75.4605 60.5809 75.815C60.1128 76.1696 59.3649 76.3468 58.3373 76.3468C58.109 76.3468 57.8178 76.316 57.4639 76.2543C57.1099 76.1927 56.7446 76.0925 56.3678 75.9538C55.991 75.815 55.6713 75.6069 55.4087 75.3295C55.1461 75.052 55.0148 74.7283 55.0148 74.3584C55.0148 72.0771 55.0776 69.7341 55.2032 67.3295C55.3288 64.9249 55.5058 62.5973 55.7341 60.3468C55.1176 61.5491 54.4382 62.7437 53.6961 63.9306C52.9539 65.1175 52.1376 66.1888 51.247 67.1445C50.3564 68.1002 49.3974 68.8632 48.3698 69.4335C47.3422 70.0039 46.2347 70.289 45.0472 70.289C43.3574 70.289 42.0273 69.7495 41.0568 68.6705C40.0863 67.5915 39.3556 66.2428 38.8646 64.6243C38.3737 63.0058 38.0654 61.2408 37.9398 59.3295C37.8142 57.4181 37.7514 55.5684 37.7514 53.7803ZM69.972 45.9191C69.972 44.6551 70.246 43.5684 70.7941 42.659C71.3421 41.7495 72.01 41.0096 72.7978 40.4393C73.5857 39.869 74.4477 39.4451 75.3839 39.1676C76.3202 38.8902 77.1879 38.7514 77.9871 38.7514C78.6037 38.7514 79.4258 38.8748 80.4533 39.1214C81.4809 39.368 82.4857 39.738 83.4676 40.2312C84.4495 40.7245 85.3001 41.3719 86.0194 42.1734C86.7387 42.975 87.0984 43.9152 87.0984 44.9942C87.0984 45.4875 86.9614 45.9268 86.6874 46.3121C86.4133 46.6975 86.1279 46.8902 85.831 46.8902C85.2145 46.8902 84.655 46.6204 84.1526 46.0809C83.6503 45.5414 83.1308 44.9711 82.5941 44.3699C82.0575 43.7688 81.4695 43.1985 80.8301 42.659C80.1907 42.1195 79.4714 41.8497 78.6722 41.8497C77.873 41.8497 77.1479 42.1965 76.4971 42.8902C75.8463 43.5838 75.5209 44.501 75.5209 45.6416C75.5209 47.5222 76.0119 49.3642 76.9938 51.1676C77.9757 52.9711 79.0547 54.8671 80.2307 56.8555C81.4067 58.8439 82.4857 60.9326 83.4676 63.1214C84.4495 65.3102 84.9405 67.7302 84.9405 70.3815C84.9405 71.5222 84.7635 72.4855 84.4095 73.2717C84.0556 74.0578 83.5875 74.6975 83.0052 75.1908C82.4229 75.684 81.7664 76.0617 81.0356 76.3237C80.3049 76.5857 79.597 76.7168 78.912 76.7168C78.1584 76.7168 77.2793 76.4778 76.2745 76C75.2698 75.5222 74.3221 74.8902 73.4315 74.104C72.5409 73.3179 71.7931 72.4008 71.188 71.3526C70.5828 70.3044 70.2803 69.21 70.2803 68.0694C70.2803 67.5145 70.5714 67.1599 71.1537 67.0058C71.736 66.8516 72.1642 66.7746 72.4382 66.7746C72.5752 66.7746 72.7864 66.8362 73.0719 66.9595C73.3573 67.0828 73.637 67.2216 73.9111 67.3757C74.1851 67.5299 74.4306 67.6994 74.6475 67.8844C74.8644 68.0694 74.9501 68.2697 74.9044 68.4855C75.1327 68.8555 75.481 69.4027 75.9491 70.1272C76.4172 70.8516 76.8853 71.4374 77.3535 71.8844C77.8216 72.3314 78.2326 72.4933 78.5866 72.3699C78.9405 72.2466 79.1175 71.553 79.1175 70.289C79.1175 67.8844 78.6379 65.6724 77.6789 63.6532C76.7198 61.6339 75.6751 59.6609 74.5447 57.7341C73.4144 55.8073 72.3697 53.896 71.4106 52C70.4515 50.104 69.972 48.0771 69.972 45.9191ZM94.1089 57.8497C94.1089 55.7534 94.3201 53.7341 94.7426 51.7919C95.165 49.8497 95.7987 48.1156 96.6436 46.5896C97.4885 45.0636 98.5446 43.8459 99.812 42.9364C101.079 42.027 102.547 41.5723 104.213 41.5723C105.241 41.5723 106.377 41.7803 107.622 42.1965C108.866 42.6127 110.036 43.2293 111.133 44.0462C112.229 44.8632 113.142 45.9037 113.873 47.1676C114.604 48.4316 114.969 49.8805 114.969 51.5145C114.969 52.2852 114.872 52.8709 114.678 53.2717C114.484 53.6724 114.09 53.8728 113.496 53.8728L113.119 53.7803C113.781 56.185 114.352 58.6513 114.832 61.1792C115.311 63.7071 115.78 66.2351 116.236 68.763C116.419 69.2563 116.556 69.6956 116.647 70.0809C116.739 70.4663 116.784 70.8439 116.784 71.2139C116.784 71.7071 116.682 72.1156 116.476 72.4393C116.27 72.763 116.002 73.0019 115.671 73.1561C115.34 73.3102 114.997 73.4181 114.643 73.4798C114.29 73.5414 113.976 73.5723 113.702 73.5723C112.72 73.5723 111.983 73.341 111.492 72.8786C111.001 72.4162 110.647 71.7842 110.43 70.9827C110.213 70.1811 110.082 69.2794 110.036 68.2775C109.991 67.2755 109.899 66.2659 109.762 65.2486C109.488 66.4509 109.129 67.6224 108.683 68.763C108.238 69.9037 107.713 70.9287 107.108 71.8382C106.503 72.7476 105.789 73.4721 104.967 74.0116C104.145 74.5511 103.22 74.8208 102.193 74.8208C100.685 74.8208 99.4181 74.2351 98.3905 73.0636C97.3629 71.8921 96.5351 70.4509 95.9072 68.7399C95.2792 67.0289 94.8225 65.2023 94.5371 63.2601C94.2516 61.3179 94.1089 59.5145 94.1089 57.8497ZM98.9728 57.2023C98.9728 58.343 99.0299 59.5453 99.1441 60.8092C99.2582 62.0732 99.4466 63.3218 99.7092 64.5549C99.9718 65.7881 100.309 66.9518 100.72 68.0462C101.131 69.1407 101.645 70.104 102.261 70.9364C103.38 69.3025 104.208 67.3141 104.744 64.9711C105.281 62.6281 105.761 60.3699 106.183 58.1965C106.605 56.0231 107.085 54.158 107.622 52.6012C108.158 51.0443 108.986 50.2659 110.105 50.2659C110.813 50.2659 111.407 50.4355 111.886 50.7746C111.658 50.0039 111.281 49.2563 110.756 48.5318C110.231 47.8073 109.643 47.1445 108.992 46.5434C108.341 45.9422 107.667 45.4489 106.971 45.0636C106.274 44.6782 105.618 44.4855 105.001 44.4855C104.819 44.4855 104.607 44.5241 104.368 44.6012C104.128 44.6782 103.939 44.6859 103.802 44.6243C102.866 44.9942 102.096 45.6339 101.49 46.5434C100.885 47.4528 100.394 48.5241 100.018 49.7572C99.6407 50.9904 99.3724 52.2543 99.2126 53.5491C99.0527 54.8439 98.9728 56.0617 98.9728 57.2023ZM123.88 46.2659C123.823 45.2331 123.869 44.2852 124.017 43.422C124.166 42.5588 124.463 41.8574 124.908 41.3179C125.353 40.7784 126.067 40.5087 127.049 40.5087C127.277 40.5087 127.557 40.5472 127.888 40.6243C128.219 40.7013 128.544 40.8015 128.864 40.9249C129.184 41.0482 129.452 41.2331 129.669 41.4798C129.886 41.7264 129.995 42.0655 129.995 42.4971V47.7225C130.885 46.3353 131.856 45.341 132.906 44.7399C133.956 44.1387 135.155 43.8382 136.503 43.8382C137.53 43.8382 138.546 44.1541 139.551 44.7861C140.556 45.4181 141.503 46.2582 142.394 47.3064C143.285 48.3545 144.055 49.5106 144.706 50.7746C145.357 52.0385 145.831 53.3025 146.128 54.5665C146.31 53.4258 146.516 52.0308 146.744 50.3815C146.973 48.7322 147.309 47.1522 147.755 45.6416C148.2 44.131 148.788 42.8362 149.519 41.7572C150.249 40.6782 151.22 40.1387 152.43 40.1387C153.732 40.1387 154.828 40.7707 155.718 42.0347C156.609 43.2986 157.334 44.9403 157.893 46.9595C158.453 48.9788 158.875 51.237 159.161 53.7341C159.446 56.2312 159.657 58.6975 159.794 61.1329C159.931 63.5684 160 65.842 160 67.9538V72.9249C160 73.2948 159.897 73.5954 159.692 73.8266C159.486 74.0578 159.229 74.2351 158.921 74.3584C158.613 74.4817 158.293 74.5588 157.962 74.5896C157.631 74.6204 157.374 74.6358 157.191 74.6358C156.483 74.6358 155.838 74.4894 155.256 74.1965C154.674 73.9037 154.383 73.1561 154.383 71.9538V67.7919C154.383 67.7919 154.36 65.9961 154.314 62.4046C154.268 58.8131 154.188 56.8863 154.074 56.6243C153.96 56.3622 153.812 54.6127 153.629 51.3757C153.446 48.1387 153.212 46.8748 152.927 47.5838C152.641 48.2929 152.293 47.7996 151.882 46.104C151.311 46.104 150.9 46.5356 150.649 47.3988C150.398 48.262 150.187 49.3565 150.015 50.6821C149.844 52.0077 149.713 53.4104 149.621 54.8902C149.53 56.3699 149.404 57.7726 149.245 59.0983C149.085 60.4239 148.828 61.5106 148.474 62.3584C148.12 63.2062 147.635 63.6301 147.018 63.6301C146.356 63.6301 145.774 63.2062 145.271 62.3584C144.769 61.5106 144.272 60.4547 143.781 59.1908C143.29 57.9268 142.799 56.5703 142.308 55.1214C141.817 53.6724 141.275 52.316 140.681 51.052C140.088 49.7572 139.448 48.7091 138.763 47.9075C138.147 47.1368 137.45 46.7669 136.674 46.7977H136.503C135.475 46.8593 134.67 47.3603 134.088 48.3006C133.505 49.2408 133.06 50.3892 132.752 51.7457C132.444 53.1021 132.255 54.5588 132.187 56.1156C132.118 57.6724 132.084 59.0366 132.084 60.2081C132.084 61.3179 132.152 62.6127 132.289 64.0925C132.381 65.079 132.426 66.0193 132.426 66.9133C132.426 67.3757 132.415 67.8227 132.392 68.2543C132.324 69.5491 132.067 70.6358 131.622 71.5145C131.176 72.3931 130.348 72.8324 129.138 72.8324C128.682 72.8324 128.111 72.7707 127.426 72.6474C126.741 72.5241 126.284 72.1079 126.055 71.3988C125.53 70.1349 125.131 68.5395 124.857 66.6127C124.583 64.6859 124.377 62.6975 124.24 60.6474C124.103 58.5973 124.023 56.5626 124 54.5434C123.977 52.5241 123.966 50.79 123.966 49.341C123.966 48.3237 123.938 47.2986 123.88 46.2659Z" fill="#0B6FF4"/>
</g>
<defs>
<clipPath id="clip0_20_1203">
<rect width="160" height="80" fill="white"/>
</clipPath>
</defs>
</svg>
