<svg width="440" height="263" viewBox="0 0 440 263" fill="none" xmlns="http://www.w3.org/2000/svg">
<g clip-path="url(#clip0_20_901)">
<path d="M25.9261 201.322C12.9754 196.611 1.73327 185.341 0.307129 171.634C12.8795 179.791 27.9318 183.237 42.8007 181.364C48.5324 180.621 54.8301 179.198 59.7349 182.255C62.7869 184.157 64.6815 187.535 65.5508 191.025C66.4199 194.514 66.3807 198.157 66.3363 201.753L66.7396 202.556C53.2111 205.182 38.8769 206.033 25.9261 201.322Z" fill="#F0F0F0"/>
<path d="M0.588073 171.566C7.18779 180.87 16.5512 187.857 27.3484 191.537C29.6587 192.37 32.0859 192.834 34.5407 192.911C36.9344 192.909 39.284 192.267 41.3453 191.05C43.29 189.954 45.1523 188.607 47.3296 188.003C48.4488 187.71 49.6171 187.657 50.7581 187.848C51.8991 188.038 52.9869 188.468 53.9503 189.108C56.3922 190.641 58.1376 192.96 59.7656 195.288C61.5732 197.871 63.4099 200.584 66.2316 202.153C66.5735 202.343 66.2586 202.862 65.9172 202.672C61.0079 199.943 59.1901 194.154 55.0113 190.635C53.0614 188.993 50.6048 187.928 48.028 188.459C45.7746 188.923 43.8529 190.31 41.8934 191.436C39.9 192.653 37.639 193.363 35.3079 193.504C32.8571 193.552 30.416 193.183 28.0892 192.411C22.8232 190.759 17.8497 188.288 13.3511 185.091C8.19656 181.47 3.69946 176.994 0.0543127 171.856C-0.171165 171.538 0.364069 171.25 0.588073 171.566Z" fill="white"/>
<path d="M23.802 190.556C22.9388 192.284 21.4896 193.649 19.7131 194.407C17.9366 195.164 15.9486 195.266 14.1041 194.693C13.7312 194.576 13.8958 193.991 14.2691 194.109C15.9857 194.645 17.8376 194.55 19.4904 193.841C21.1432 193.132 22.4881 191.856 23.2823 190.242C23.4553 189.891 23.974 190.208 23.802 190.556Z" fill="white"/>
<path d="M40.4324 191.735C39.2163 187.979 36.6292 184.819 33.1869 182.886C32.8457 182.695 33.1605 182.175 33.5013 182.366C37.0797 184.385 39.7653 187.679 41.0222 191.59C41.1417 191.963 40.5513 192.106 40.4324 191.735Z" fill="white"/>
<path d="M8.88325 181.049C9.35654 180.45 9.67368 179.743 9.80616 178.991C9.93865 178.239 9.88234 177.466 9.6423 176.742C9.51809 176.37 10.1087 176.228 10.2321 176.597C10.4936 177.398 10.5547 178.252 10.4102 179.083C10.2656 179.914 9.91981 180.697 9.40292 181.363C9.35947 181.43 9.29216 181.478 9.2147 181.497C9.13724 181.516 9.05543 181.505 8.98589 181.466C8.91729 181.424 8.86803 181.356 8.84881 181.278C8.82959 181.2 8.84197 181.118 8.88325 181.049Z" fill="white"/>
<path d="M32.9931 138.336C33.0773 138.566 33.1614 138.795 33.2505 139.026C34.3978 142.107 35.7936 145.089 37.4239 147.944C37.5464 148.167 37.674 148.391 37.8027 148.609C41.8038 155.445 47.0393 161.478 53.243 166.403C55.7134 168.36 58.3291 170.127 61.0675 171.687C64.8494 173.842 69.1215 175.877 71.8893 179.062C72.1818 179.391 72.4536 179.738 72.7032 180.1L67.6868 202.001C67.6504 202.045 67.6189 202.091 67.5825 202.135L67.4222 203.019C67.2753 202.948 67.1245 202.872 66.9777 202.801C66.8923 202.76 66.8081 202.715 66.7227 202.674C66.6662 202.646 66.6097 202.617 66.557 202.594C66.5382 202.585 66.5193 202.575 66.5055 202.567C66.4528 202.544 66.4063 202.518 66.3586 202.496C65.5145 202.072 64.672 201.64 63.831 201.202C63.826 201.201 63.826 201.201 63.8221 201.195C57.3817 197.918 51.3527 193.89 45.8615 189.193C45.6996 189.05 45.5326 188.907 45.3729 188.755C42.9574 186.609 40.7214 184.269 38.6871 181.759C37.5776 180.381 36.5386 178.948 35.5741 177.465C33.0892 173.628 31.2232 169.424 30.0447 165.007C27.6966 156.202 28.1906 146.744 32.6468 138.93C32.7609 138.73 32.874 138.535 32.9931 138.336Z" fill="#F0F0F0"/>
<path d="M33.2598 138.449C32.9278 149.851 36.1969 161.068 42.6028 170.506C43.9457 172.562 45.6044 174.394 47.5178 175.934C49.4301 177.374 51.6931 178.275 54.0716 178.544C56.2843 178.84 58.5819 178.886 60.6842 179.715C61.754 180.155 62.7187 180.816 63.515 181.655C64.3114 182.494 64.9214 183.492 65.305 184.583C66.3317 187.277 66.329 190.18 66.2278 193.018C66.1153 196.17 65.9487 199.441 67.2572 202.393C67.4158 202.75 66.8516 202.975 66.6933 202.618C64.4166 197.483 66.4506 191.767 65.2329 186.441C64.6648 183.956 63.3442 181.627 60.9673 180.499C58.8887 179.513 56.5195 179.463 54.2765 179.183C51.9524 178.954 49.7195 178.16 47.7732 176.869C45.7876 175.432 44.0611 173.667 42.6676 171.65C39.458 167.16 36.9744 162.193 35.3076 156.932C33.3721 150.937 32.4763 144.656 32.659 138.359C32.6704 137.97 33.2712 138.062 33.2598 138.449Z" fill="white"/>
<path d="M40.3612 167.588C38.6318 168.448 36.6531 168.665 34.7784 168.201C32.9037 167.736 31.2552 166.621 30.1272 165.053C29.9 164.735 30.3835 164.367 30.611 164.685C31.6586 166.147 33.1944 167.186 34.941 167.615C36.6875 168.044 38.5299 167.835 40.1356 167.024C40.4847 166.849 40.7084 167.414 40.3612 167.588Z" fill="white"/>
<path d="M52.93 178.542C54.2204 174.811 54.0571 170.731 52.4727 167.114C52.3154 166.756 52.8795 166.531 53.0366 166.889C54.6784 170.655 54.8397 174.902 53.4883 178.782C53.3592 179.151 52.8016 178.91 52.93 178.542Z" fill="white"/>
<path d="M34.1738 151.015C34.9123 150.822 35.5912 150.448 36.1496 149.928C36.708 149.407 37.1283 148.756 37.373 148.033C37.4973 147.662 38.0548 147.903 37.9313 148.272C37.6573 149.07 37.1921 149.788 36.5765 150.365C35.9608 150.941 35.2133 151.358 34.3994 151.579C34.3244 151.606 34.2419 151.604 34.1686 151.572C34.0952 151.541 34.0366 151.483 34.0046 151.41C33.9751 151.335 33.9763 151.251 34.008 151.178C34.0397 151.104 34.0993 151.045 34.1738 151.015Z" fill="white"/>
<path d="M417.91 200.87C430.183 194.603 439.955 182.036 439.685 168.258C428.211 177.898 413.696 183.169 398.71 183.137C392.93 183.104 386.506 182.466 382.014 186.103C379.219 188.366 377.754 191.951 377.32 195.521C376.886 199.091 377.373 202.702 377.859 206.265L377.557 207.111C391.306 208.054 405.636 207.137 417.91 200.87Z" fill="#F0F0F0"/>
<path d="M439.398 168.225C433.992 178.269 425.559 186.355 415.295 191.333C413.105 192.444 410.753 193.203 408.327 193.581C405.951 193.874 403.54 193.525 401.345 192.57C399.28 191.722 397.266 190.614 395.031 190.282C393.885 190.129 392.719 190.22 391.61 190.55C390.501 190.879 389.474 191.439 388.597 192.193C386.362 194.015 384.915 196.531 383.585 199.04C382.109 201.827 380.62 204.745 378.012 206.648C377.696 206.879 378.072 207.356 378.388 207.125C382.925 203.813 384.017 197.845 387.732 193.839C389.465 191.969 391.772 190.611 394.394 190.821C396.688 191.004 398.765 192.144 400.848 193.021C402.976 193.984 405.307 194.411 407.638 194.264C410.076 194.011 412.453 193.344 414.668 192.292C419.691 190.005 424.323 186.942 428.394 183.215C433.065 178.988 436.978 173.993 439.964 168.447C440.148 168.104 439.582 167.884 439.398 168.225Z" fill="white"/>
<path d="M418.694 189.925C419.764 191.533 421.369 192.709 423.226 193.243C425.082 193.777 427.067 193.633 428.827 192.838C429.183 192.676 428.948 192.116 428.592 192.278C426.954 193.022 425.105 193.155 423.377 192.655C421.65 192.154 420.158 191.052 419.172 189.549C418.957 189.222 418.481 189.6 418.694 189.925Z" fill="white"/>
<path d="M402.335 193.139C403.08 189.262 405.259 185.808 408.438 183.466C408.753 183.234 408.377 182.757 408.062 182.989C404.759 185.432 402.498 189.031 401.732 193.067C401.659 193.452 402.263 193.521 402.335 193.139Z" fill="white"/>
<path d="M432.331 178.655C431.788 178.119 431.386 177.456 431.163 176.727C430.939 175.997 430.9 175.223 431.049 174.474C431.126 174.09 430.523 174.021 430.445 174.403C430.285 175.23 430.329 176.085 430.574 176.892C430.82 177.699 431.259 178.433 431.854 179.031C431.906 179.092 431.978 179.131 432.057 179.141C432.137 179.15 432.217 179.129 432.281 179.082C432.344 179.032 432.384 178.959 432.394 178.879C432.403 178.799 432.381 178.719 432.331 178.655Z" fill="white"/>
<path d="M403.154 139.23C403.099 139.468 403.044 139.707 402.984 139.947C402.224 143.145 401.205 146.276 399.938 149.31C399.844 149.546 399.745 149.784 399.644 150.017C396.513 157.292 392.059 163.924 386.508 169.573C384.297 171.819 381.918 173.894 379.392 175.779C375.904 178.382 371.914 180.928 369.559 184.428C369.309 184.791 369.082 185.168 368.879 185.559L376.549 206.677C376.591 206.716 376.628 206.758 376.669 206.797L376.937 207.654C377.074 207.566 377.214 207.472 377.351 207.384C377.431 207.333 377.509 207.277 377.589 207.227C377.641 207.191 377.694 207.156 377.743 207.127C377.761 207.115 377.778 207.103 377.791 207.093C377.841 207.064 377.884 207.032 377.928 207.005C378.714 206.48 379.497 205.948 380.278 205.41C380.282 205.408 380.282 205.408 380.286 205.402C386.274 201.359 391.762 196.619 396.635 191.283C396.778 191.122 396.926 190.959 397.066 190.788C399.199 188.362 401.131 185.765 402.841 183.024C403.773 181.52 404.628 179.97 405.403 178.379C407.397 174.266 408.732 169.865 409.359 165.337C410.607 156.31 408.954 146.984 403.571 139.777C403.433 139.593 403.297 139.413 403.154 139.23Z" fill="#F0F0F0"/>
<path d="M402.903 139.375C404.634 150.65 402.769 162.183 397.572 172.337C396.492 174.543 395.071 176.565 393.361 178.328C391.64 179.992 389.505 181.165 387.178 181.724C385.018 182.29 382.744 182.618 380.759 183.699C379.752 184.267 378.876 185.042 378.188 185.972C377.501 186.903 377.019 187.968 376.772 189.098C376.084 191.898 376.444 194.778 376.893 197.583C377.392 200.697 377.96 203.923 377.024 207.013C376.91 207.387 377.498 207.541 377.611 207.167C379.239 201.791 376.518 196.368 377.072 190.933C377.33 188.397 378.355 185.923 380.575 184.512C382.516 183.278 384.862 182.937 387.053 182.383C389.331 181.871 391.45 180.808 393.223 179.288C395.017 177.617 396.513 175.654 397.648 173.481C400.281 168.63 402.136 163.396 403.143 157.969C404.327 151.782 404.444 145.438 403.489 139.212C403.429 138.827 402.845 138.992 402.903 139.375Z" fill="white"/>
<path d="M399.438 169.166C401.26 169.807 403.25 169.779 405.053 169.088C406.857 168.396 408.356 167.086 409.282 165.392C409.469 165.048 408.944 164.743 408.757 165.087C407.897 166.666 406.501 167.886 404.82 168.527C403.139 169.167 401.285 169.185 399.592 168.579C399.224 168.447 399.072 169.035 399.438 169.166Z" fill="white"/>
<path d="M388.311 181.582C386.571 178.037 386.232 173.968 387.36 170.184C387.472 169.81 386.884 169.655 386.772 170.03C385.606 173.969 385.968 178.203 387.786 181.888C387.959 182.239 388.483 181.931 388.311 181.582Z" fill="white"/>
<path d="M403.541 151.958C402.784 151.857 402.065 151.569 401.447 151.122C400.828 150.674 400.331 150.079 400 149.392C399.831 149.039 399.307 149.347 399.475 149.698C399.845 150.456 400.395 151.111 401.077 151.608C401.758 152.104 402.551 152.426 403.386 152.545C403.464 152.563 403.546 152.551 403.615 152.51C403.684 152.47 403.735 152.405 403.757 152.329C403.777 152.251 403.766 152.168 403.726 152.099C403.685 152.029 403.619 151.979 403.541 151.958Z" fill="white"/>
<path d="M383.271 9.02051H296.8V14.5832C296.799 14.868 296.897 15.1444 297.077 15.365C296.903 19.7129 296.8 25.2635 296.8 31.2953V180.014C296.8 193.954 297.36 205.296 298.045 205.296H382.027C382.712 205.296 383.271 193.954 383.271 180.014V31.2953C383.271 25.2635 383.169 19.7129 382.995 15.365C383.175 15.1444 383.273 14.868 383.271 14.5832L383.271 9.02051Z" fill="white"/>
<path d="M382.027 205.897H298.045C297.391 205.897 296.958 205.897 296.565 197.912C296.329 193.12 296.199 186.764 296.199 180.014V31.2954C296.199 25.4658 296.297 19.7997 296.476 15.3408C296.588 12.6637 296.716 10.5193 296.857 8.96626C297.133 5.92592 297.396 5.41235 298.045 5.41235H382.027C382.676 5.41235 382.938 5.92592 383.215 8.96626C383.356 10.5252 383.484 12.6696 383.595 15.3397L383.596 15.3408C383.774 19.795 383.873 25.4611 383.873 31.2954V180.014C383.873 186.764 383.743 193.121 383.507 197.912C383.113 205.897 382.681 205.897 382.027 205.897ZM298.387 204.695H381.685C382.12 203.051 382.67 194.128 382.67 180.014V31.2954C382.67 25.4769 382.572 19.8285 382.394 15.3902C382.283 12.7392 382.156 10.6144 382.017 9.0749C381.963 8.24796 381.85 7.42592 381.679 6.6151H298.393C298.221 7.42593 298.108 8.24796 298.055 9.0749C297.916 10.6086 297.789 12.7333 297.678 15.3902C297.5 19.8323 297.401 25.4813 297.401 31.2954V180.014C297.401 194.128 297.951 203.051 298.387 204.695Z" fill="#E4E4E4"/>
<path d="M382.026 6.01367H298.045C297.715 6.01431 297.399 6.14566 297.165 6.37897C296.932 6.61228 296.801 6.92854 296.8 7.25851V14.5832C296.799 14.868 296.897 15.1445 297.077 15.365C297.194 15.5092 297.341 15.6256 297.509 15.7057C297.676 15.7858 297.859 15.8276 298.045 15.828H382.026C382.212 15.8275 382.395 15.7857 382.563 15.7056C382.73 15.6255 382.878 15.5092 382.995 15.365C383.175 15.1444 383.273 14.868 383.271 14.5832V7.25851C383.271 6.92857 383.139 6.61231 382.906 6.37899C382.673 6.14568 382.356 6.01431 382.026 6.01367Z" fill="#CACACA"/>
<path d="M304.029 12.331C305.005 12.331 305.796 11.5395 305.796 10.5632C305.796 9.58688 305.005 8.79541 304.029 8.79541C303.052 8.79541 302.261 9.58688 302.261 10.5632C302.261 11.5395 303.052 12.331 304.029 12.331Z" fill="white"/>
<path d="M310.739 12.331C311.715 12.331 312.506 11.5395 312.506 10.5632C312.506 9.58688 311.715 8.79541 310.739 8.79541C309.762 8.79541 308.971 9.58688 308.971 10.5632C308.971 11.5395 309.762 12.331 310.739 12.331Z" fill="white"/>
<path d="M317.449 12.331C318.425 12.331 319.217 11.5395 319.217 10.5632C319.217 9.58688 318.425 8.79541 317.449 8.79541C316.473 8.79541 315.681 9.58688 315.681 10.5632C315.681 11.5395 316.473 12.331 317.449 12.331Z" fill="white"/>
<path d="M375.453 8.20264H367.726C367.575 8.20364 367.43 8.26417 367.323 8.37109C367.216 8.47802 367.156 8.62275 367.155 8.77394C367.152 8.86003 367.173 8.94517 367.215 9.0205C367.261 9.11735 367.333 9.19925 367.423 9.25672C367.514 9.31418 367.619 9.34488 367.726 9.34525H375.453C375.562 9.34578 375.668 9.31552 375.759 9.25802C375.851 9.20052 375.924 9.11814 375.971 9.0205C376.008 8.94362 376.026 8.8592 376.025 8.77394C376.025 8.69889 376.01 8.62458 375.981 8.55524C375.953 8.4859 375.911 8.4229 375.858 8.36985C375.804 8.31679 375.741 8.27471 375.672 8.24602C375.603 8.21733 375.528 8.20259 375.453 8.20264Z" fill="white"/>
<path d="M375.453 10.3496H367.726C367.574 10.3496 367.429 10.4098 367.322 10.5169C367.215 10.6241 367.154 10.7694 367.154 10.9209C367.154 11.0724 367.215 11.2177 367.322 11.3249C367.429 11.432 367.574 11.4922 367.726 11.4922H375.453C375.605 11.4922 375.75 11.432 375.857 11.3249C375.965 11.2177 376.025 11.0724 376.025 10.9209C376.025 10.7694 375.965 10.6241 375.857 10.5169C375.75 10.4098 375.605 10.3496 375.453 10.3496Z" fill="white"/>
<path d="M375.453 12.4963H367.726C367.574 12.4963 367.429 12.5565 367.322 12.6637C367.215 12.7708 367.154 12.9161 367.154 13.0676C367.154 13.2192 367.215 13.3645 367.322 13.4716C367.429 13.5788 367.574 13.6389 367.726 13.6389H375.453C375.605 13.6389 375.75 13.5788 375.857 13.4716C375.965 13.3645 376.025 13.2192 376.025 13.0676C376.025 12.9161 375.965 12.7708 375.857 12.6637C375.75 12.5565 375.605 12.4963 375.453 12.4963Z" fill="white"/>
<path d="M348.392 31.8848H332.491C331.694 31.8851 330.929 32.202 330.366 32.7658C329.802 33.3296 329.485 34.0943 329.485 34.8916V48.663C329.486 49.4601 329.803 50.2241 330.367 50.7877C330.93 51.3513 331.694 51.6685 332.491 51.6699H348.392C349.188 51.6676 349.952 51.35 350.515 50.7866C351.079 50.2232 351.396 49.4598 351.399 48.663V34.8916C351.397 34.0946 351.08 33.3305 350.516 32.7669C349.953 32.2033 349.189 31.8861 348.392 31.8848Z" fill="#0B6FF4"/>
<path d="M368.147 60.6663H312.731C312.369 60.6663 312.021 60.8101 311.765 61.0661C311.509 61.3221 311.365 61.6693 311.365 62.0314C311.365 62.3934 311.509 62.7406 311.765 62.9966C312.021 63.2527 312.369 63.3965 312.731 63.3965H368.147C368.509 63.3965 368.856 63.2527 369.112 62.9966C369.368 62.7406 369.512 62.3934 369.512 62.0314C369.512 61.6693 369.368 61.3221 369.112 61.0661C368.856 60.8101 368.509 60.6663 368.147 60.6663Z" fill="#E4E4E4"/>
<path d="M333.779 67.0649H312.731C312.369 67.0649 312.021 67.2088 311.765 67.4648C311.509 67.7208 311.365 68.068 311.365 68.4301C311.365 68.7921 311.509 69.1393 311.765 69.3953C312.021 69.6514 312.369 69.7952 312.731 69.7952H333.779C334.141 69.7952 334.488 69.6514 334.744 69.3953C335 69.1393 335.144 68.7921 335.144 68.4301C335.144 68.068 335 67.7208 334.744 67.4648C334.488 67.2088 334.141 67.0649 333.779 67.0649Z" fill="#E4E4E4"/>
<path d="M348.392 91.4204H332.491C331.694 91.4207 330.929 91.7376 330.366 92.3015C329.802 92.8653 329.485 93.6299 329.485 94.4273V108.199C329.486 108.996 329.803 109.76 330.367 110.323C330.93 110.887 331.694 111.204 332.491 111.206H348.392C349.188 111.203 349.952 110.886 350.515 110.322C351.079 109.759 351.396 108.995 351.399 108.199V94.4273C351.397 93.6302 351.08 92.8662 350.516 92.3026C349.953 91.7389 349.189 91.4217 348.392 91.4204Z" fill="#0B6FF4"/>
<path d="M368.147 120.202H312.731C312.369 120.202 312.021 120.346 311.765 120.602C311.509 120.858 311.365 121.205 311.365 121.567C311.365 121.929 311.509 122.276 311.765 122.532C312.021 122.788 312.369 122.932 312.731 122.932H368.147C368.509 122.932 368.856 122.788 369.112 122.532C369.368 122.276 369.512 121.929 369.512 121.567C369.512 121.205 369.368 120.858 369.112 120.602C368.856 120.346 368.509 120.202 368.147 120.202Z" fill="#E4E4E4"/>
<path d="M333.779 126.601H312.731C312.369 126.601 312.021 126.744 311.765 127C311.509 127.256 311.365 127.604 311.365 127.966C311.365 128.328 311.509 128.675 311.765 128.931C312.021 129.187 312.369 129.331 312.731 129.331H333.779C334.141 129.331 334.488 129.187 334.744 128.931C335 128.675 335.144 128.328 335.144 127.966C335.144 127.604 335 127.256 334.744 127C334.488 126.744 334.141 126.601 333.779 126.601Z" fill="#E4E4E4"/>
<path d="M348.392 150.956H332.491C331.694 150.956 330.929 151.273 330.366 151.837C329.802 152.401 329.485 153.166 329.485 153.963V167.734C329.486 168.531 329.803 169.295 330.367 169.859C330.93 170.423 331.694 170.74 332.491 170.741H348.392C349.188 170.739 349.952 170.421 350.515 169.858C351.079 169.295 351.396 168.531 351.399 167.734V153.963C351.397 153.166 351.08 152.402 350.516 151.838C349.953 151.275 349.189 150.957 348.392 150.956Z" fill="#0B6FF4"/>
<path d="M368.147 179.738H312.731C312.369 179.738 312.021 179.882 311.765 180.138C311.509 180.394 311.365 180.741 311.365 181.103C311.365 181.465 311.509 181.812 311.765 182.068C312.021 182.324 312.369 182.468 312.731 182.468H368.147C368.509 182.468 368.856 182.324 369.112 182.068C369.368 181.812 369.512 181.465 369.512 181.103C369.512 180.741 369.368 180.394 369.112 180.138C368.856 179.882 368.509 179.738 368.147 179.738Z" fill="#E4E4E4"/>
<path d="M333.779 186.136H312.731C312.369 186.136 312.021 186.28 311.765 186.536C311.509 186.792 311.365 187.139 311.365 187.501C311.365 187.863 311.509 188.211 311.765 188.467C312.021 188.723 312.369 188.866 312.731 188.866H333.779C334.141 188.866 334.488 188.723 334.744 188.467C335 188.211 335.144 187.863 335.144 187.501C335.144 187.139 335 186.792 334.744 186.536C334.488 186.28 334.141 186.136 333.779 186.136Z" fill="#E4E4E4"/>
<path d="M273.22 1.84616C273.22 1.51622 273.088 1.19997 272.855 0.96665C272.622 0.733335 272.306 0.601967 271.976 0.601318H49.6789C49.349 0.601956 49.0327 0.733305 48.7993 0.966613C48.566 1.19992 48.4346 1.51619 48.4339 1.84616V9.17085C48.4329 9.4758 48.5467 9.76997 48.7528 9.99474C48.5543 14.9681 48.4339 21.523 48.4339 28.7034V194.026C48.4339 209.53 48.9933 222.134 49.6789 222.134H271.976C272.661 222.134 273.22 209.53 273.22 194.026V28.7034C273.22 21.523 273.1 14.9681 272.902 9.99474C273.108 9.76993 273.222 9.47577 273.22 9.17085V1.84616Z" fill="white"/>
<path d="M271.976 222.736H49.6789C48.9994 222.736 48.5891 222.736 48.1985 213.921C47.9625 208.596 47.8325 201.53 47.8325 194.026V28.7034C47.8325 21.7833 47.9459 15.1306 48.1519 9.97079C48.5472 8.02917e-06 48.9974 0 49.6789 0H271.976C272.657 0 273.107 0.00176986 273.503 9.97079C273.708 15.1259 273.822 21.7786 273.822 28.7034V194.026C273.822 201.531 273.692 208.596 273.456 213.921C273.065 222.736 272.655 222.736 271.976 222.736ZM50.03 221.533H271.625C272.117 219.648 272.619 209.06 272.619 194.026V28.7034C272.619 21.7941 272.506 15.1582 272.301 10.0189C272.05 3.70248 271.758 1.78003 271.618 1.20274H50.0365C49.8967 1.78006 49.6042 3.7022 49.3536 10.0186C49.1483 15.1632 49.0353 21.7988 49.0353 28.7034V194.026C49.0353 209.06 49.5378 219.647 50.03 221.533Z" fill="#E4E4E4"/>
<path d="M271.976 0.601318H49.6789C49.349 0.601956 49.0327 0.733305 48.7993 0.966613C48.566 1.19992 48.4346 1.51619 48.4339 1.84616V9.17085C48.4329 9.4758 48.5467 9.76997 48.7528 9.99474C48.8684 10.1267 49.0107 10.2325 49.1704 10.3051C49.3301 10.3777 49.5035 10.4154 49.6789 10.4157H271.976C272.151 10.4154 272.324 10.3777 272.484 10.3051C272.644 10.2325 272.786 10.1267 272.902 9.99474C273.108 9.76993 273.221 9.47577 273.22 9.17085V1.84616C273.22 1.51623 273.088 1.19998 272.855 0.966668C272.622 0.733355 272.306 0.60198 271.976 0.601318Z" fill="#CACACA"/>
<path d="M55.6623 6.91866C56.6387 6.91866 57.4301 6.12719 57.4301 5.15086C57.4301 4.17453 56.6387 3.38306 55.6623 3.38306C54.686 3.38306 53.8945 4.17453 53.8945 5.15086C53.8945 6.12719 54.686 6.91866 55.6623 6.91866Z" fill="white"/>
<path d="M62.3723 6.91866C63.3486 6.91866 64.1401 6.12719 64.1401 5.15086C64.1401 4.17453 63.3486 3.38306 62.3723 3.38306C61.396 3.38306 60.6045 4.17453 60.6045 5.15086C60.6045 6.12719 61.396 6.91866 62.3723 6.91866Z" fill="white"/>
<path d="M69.0826 6.91866C70.059 6.91866 70.8504 6.12719 70.8504 5.15086C70.8504 4.17453 70.059 3.38306 69.0826 3.38306C68.1063 3.38306 67.3148 4.17453 67.3148 5.15086C67.3148 6.12719 68.1063 6.91866 69.0826 6.91866Z" fill="white"/>
<path d="M265.403 2.79028H257.675C257.523 2.79028 257.378 2.85047 257.271 2.95761C257.164 3.06475 257.104 3.21006 257.104 3.36158C257.104 3.5131 257.164 3.65842 257.271 3.76556C257.378 3.8727 257.523 3.93289 257.675 3.93289H265.403C265.554 3.93289 265.699 3.8727 265.807 3.76556C265.914 3.65842 265.974 3.5131 265.974 3.36158C265.974 3.21006 265.914 3.06475 265.807 2.95761C265.699 2.85047 265.554 2.79028 265.403 2.79028Z" fill="white"/>
<path d="M265.403 4.93726H257.675C257.523 4.93726 257.378 4.99744 257.271 5.10458C257.164 5.21172 257.104 5.35704 257.104 5.50856C257.104 5.66008 257.164 5.80539 257.271 5.91253C257.378 6.01967 257.523 6.07986 257.675 6.07986H265.403C265.554 6.07986 265.699 6.01967 265.807 5.91253C265.914 5.80539 265.974 5.66008 265.974 5.50856C265.974 5.35704 265.914 5.21172 265.807 5.10458C265.699 4.99744 265.554 4.93726 265.403 4.93726Z" fill="white"/>
<path d="M265.403 7.08423H257.675C257.523 7.08423 257.378 7.14443 257.271 7.25157C257.164 7.35871 257.104 7.50401 257.104 7.65553C257.104 7.80705 257.164 7.95236 257.271 8.0595C257.378 8.16664 257.523 8.22684 257.675 8.22684H265.403C265.554 8.22684 265.699 8.16664 265.807 8.0595C265.914 7.95236 265.974 7.80705 265.974 7.65553C265.974 7.50401 265.914 7.35871 265.807 7.25157C265.699 7.14443 265.554 7.08423 265.403 7.08423Z" fill="white"/>
<path d="M121.531 37.2969H95.5153C94.2111 37.2985 92.9608 37.8173 92.0387 38.7395C91.1165 39.6617 90.5978 40.912 90.5963 42.2161V64.7495C90.5978 66.0536 91.1165 67.3039 92.0387 68.2261C92.9608 69.1483 94.2111 69.6671 95.5153 69.6687H121.531C122.835 69.6671 124.085 69.1483 125.007 68.2261C125.929 67.3039 126.448 66.0536 126.45 64.7495V42.2161C126.448 40.912 125.929 39.6617 125.007 38.7395C124.085 37.8173 122.835 37.2985 121.531 37.2969Z" fill="#0B6FF4"/>
<path d="M228.833 46.0107H138.159C137.566 46.0107 136.998 46.2461 136.579 46.6651C136.16 47.0841 135.924 47.6523 135.924 48.2448C135.924 48.8374 136.16 49.4056 136.579 49.8246C136.998 50.2435 137.566 50.4789 138.159 50.4789H228.833C229.426 50.4789 229.994 50.2435 230.413 49.8246C230.832 49.4056 231.067 48.8374 231.067 48.2448C231.067 47.6523 230.832 47.0841 230.413 46.6651C229.994 46.2461 229.426 46.0107 228.833 46.0107Z" fill="#E4E4E4"/>
<path d="M172.599 56.4807H138.159C137.566 56.4807 136.998 56.7161 136.579 57.1351C136.16 57.554 135.924 58.1223 135.924 58.7148C135.924 59.3073 136.16 59.8756 136.579 60.2945C136.998 60.7135 137.566 60.9489 138.159 60.9489H172.599C173.192 60.9489 173.76 60.7135 174.179 60.2945C174.598 59.8756 174.833 59.3073 174.833 58.7148C174.833 58.1223 174.598 57.554 174.179 57.1351C173.76 56.7161 173.192 56.4807 172.599 56.4807Z" fill="#E4E4E4"/>
<path d="M121.531 97.4341H95.5153C94.2111 97.4357 92.9608 97.9545 92.0387 98.8767C91.1165 99.7989 90.5978 101.049 90.5963 102.353V124.887C90.5978 126.191 91.1165 127.441 92.0387 128.363C92.9608 129.285 94.2111 129.804 95.5153 129.806H121.531C122.835 129.804 124.085 129.285 125.007 128.363C125.929 127.441 126.448 126.191 126.45 124.887V102.353C126.448 101.049 125.929 99.7989 125.007 98.8767C124.085 97.9545 122.835 97.4357 121.531 97.4341Z" fill="#0B6FF4"/>
<path d="M228.833 106.148H138.159C137.566 106.148 136.998 106.383 136.579 106.802C136.16 107.221 135.924 107.79 135.924 108.382C135.924 108.975 136.16 109.543 136.579 109.962C136.998 110.381 137.566 110.616 138.159 110.616H228.833C229.426 110.616 229.994 110.381 230.413 109.962C230.832 109.543 231.067 108.975 231.067 108.382C231.067 107.79 230.832 107.221 230.413 106.802C229.994 106.383 229.426 106.148 228.833 106.148Z" fill="#E4E4E4"/>
<path d="M172.599 116.618H138.159C137.566 116.618 136.998 116.853 136.579 117.272C136.16 117.691 135.924 118.259 135.924 118.852C135.924 119.444 136.16 120.013 136.579 120.432C136.998 120.85 137.566 121.086 138.159 121.086H172.599C173.192 121.086 173.76 120.85 174.179 120.432C174.598 120.013 174.833 119.444 174.833 118.852C174.833 118.259 174.598 117.691 174.179 117.272C173.76 116.853 173.192 116.618 172.599 116.618Z" fill="#E4E4E4"/>
<path d="M121.531 157.571H95.5153C94.2111 157.573 92.9608 158.092 92.0387 159.014C91.1165 159.936 90.5978 161.186 90.5963 162.491V185.024C90.5978 186.328 91.1165 187.578 92.0387 188.501C92.9608 189.423 94.2111 189.941 95.5153 189.943H121.531C122.835 189.941 124.085 189.423 125.007 188.501C125.929 187.578 126.448 186.328 126.45 185.024V162.491C126.448 161.186 125.929 159.936 125.007 159.014C124.085 158.092 122.835 157.573 121.531 157.571Z" fill="#0B6FF4"/>
<path d="M228.833 166.285H138.159C137.566 166.285 136.998 166.521 136.579 166.94C136.16 167.358 135.924 167.927 135.924 168.519C135.924 169.112 136.16 169.68 136.579 170.099C136.998 170.518 137.566 170.753 138.159 170.753H228.833C229.426 170.753 229.994 170.518 230.413 170.099C230.832 169.68 231.067 169.112 231.067 168.519C231.067 167.927 230.832 167.358 230.413 166.94C229.994 166.521 229.426 166.285 228.833 166.285Z" fill="#E4E4E4"/>
<path d="M172.599 176.755H138.159C137.566 176.755 136.998 176.99 136.579 177.409C136.16 177.828 135.924 178.396 135.924 178.989C135.924 179.582 136.16 180.15 136.579 180.569C136.998 180.988 137.566 181.223 138.159 181.223H172.599C173.192 181.223 173.76 180.988 174.179 180.569C174.598 180.15 174.833 179.582 174.833 178.989C174.833 178.396 174.598 177.828 174.179 177.409C173.76 176.99 173.192 176.755 172.599 176.755Z" fill="#E4E4E4"/>
<path d="M311.668 261.825H162.739C162.052 261.825 161.494 251.271 161.494 238.297V99.9012C161.494 86.9273 162.052 76.3735 162.739 76.3735H311.668C312.354 76.3735 312.913 86.9273 312.913 99.9012V238.297C312.913 251.271 312.354 261.825 311.668 261.825Z" fill="white"/>
<path d="M311.668 262.426H162.739C162.109 262.426 161.654 262.426 161.258 254.958C161.022 250.499 160.892 244.582 160.892 238.297V99.9013C160.892 93.6166 161.022 87.6995 161.258 83.2406C161.654 75.7722 162.109 75.7722 162.739 75.7722H311.668C312.298 75.7722 312.753 75.7722 313.148 83.2406C313.384 87.6995 313.514 93.6166 313.514 99.9013V238.297C313.514 244.582 313.384 250.499 313.148 254.958C312.753 262.426 312.298 262.426 311.668 262.426ZM163.072 261.223H311.335C311.767 259.665 312.312 251.365 312.312 238.297V99.9013C312.312 86.8339 311.767 78.533 311.335 76.975H163.072C162.64 78.533 162.095 86.8338 162.095 99.9013V238.297C162.095 251.365 162.64 259.665 163.072 261.223Z" fill="#E4E4E4"/>
<path d="M311.668 86.1882H162.739C162.409 86.1878 162.092 86.0565 161.859 85.8231C161.626 85.5896 161.494 85.2731 161.494 84.943V77.6187C161.494 77.2886 161.626 76.9721 161.859 76.7386C162.092 76.5052 162.409 76.3739 162.739 76.3735H311.668C311.998 76.3739 312.314 76.5052 312.548 76.7386C312.781 76.9721 312.913 77.2886 312.913 77.6187V84.943C312.913 85.2731 312.781 85.5896 312.548 85.8231C312.314 86.0565 311.998 86.1878 311.668 86.1882Z" fill="#CACACA"/>
<path d="M168.72 82.6916C169.696 82.6916 170.488 81.9001 170.488 80.9238C170.488 79.9475 169.696 79.156 168.72 79.156C167.744 79.156 166.952 79.9475 166.952 80.9238C166.952 81.9001 167.744 82.6916 168.72 82.6916Z" fill="white"/>
<path d="M175.43 82.6916C176.406 82.6916 177.198 81.9001 177.198 80.9238C177.198 79.9475 176.406 79.156 175.43 79.156C174.454 79.156 173.662 79.9475 173.662 80.9238C173.662 81.9001 174.454 82.6916 175.43 82.6916Z" fill="white"/>
<path d="M182.14 82.6916C183.117 82.6916 183.908 81.9001 183.908 80.9238C183.908 79.9475 183.117 79.156 182.14 79.156C181.164 79.156 180.373 79.9475 180.373 80.9238C180.373 81.9001 181.164 82.6916 182.14 82.6916Z" fill="white"/>
<path d="M305.093 79.707H297.367C297.215 79.707 297.069 79.6467 296.962 79.5393C296.855 79.432 296.794 79.2864 296.794 79.1346C296.794 78.9828 296.855 78.8372 296.962 78.7299C297.069 78.6225 297.215 78.5623 297.367 78.5623H305.093C305.245 78.5627 305.39 78.6233 305.497 78.7305C305.604 78.8378 305.664 78.9831 305.664 79.1346C305.664 79.2861 305.604 79.4314 305.497 79.5387C305.39 79.646 305.245 79.7065 305.093 79.707Z" fill="white"/>
<path d="M305.093 81.8532H297.367C297.215 81.8532 297.069 81.7929 296.962 81.6856C296.855 81.5782 296.794 81.4326 296.794 81.2809C296.794 81.1291 296.855 80.9835 296.962 80.8761C297.069 80.7688 297.215 80.7085 297.367 80.7085H305.093C305.245 80.7085 305.391 80.7688 305.498 80.8761C305.606 80.9835 305.666 81.1291 305.666 81.2809C305.666 81.4326 305.606 81.5782 305.498 81.6856C305.391 81.7929 305.245 81.8532 305.093 81.8532Z" fill="white"/>
<path d="M305.093 83.9997H297.367C297.215 83.9997 297.069 83.9394 296.962 83.832C296.855 83.7247 296.794 83.5791 296.794 83.4273C296.794 83.2755 296.855 83.1299 296.962 83.0226C297.069 82.9153 297.215 82.855 297.367 82.855H305.093C305.245 82.8555 305.39 82.916 305.497 83.0233C305.604 83.1306 305.664 83.2759 305.664 83.4273C305.664 83.5788 305.604 83.7241 305.497 83.8314C305.39 83.9387 305.245 83.9992 305.093 83.9997Z" fill="white"/>
<path d="M208.503 131.65H189.504C188.551 131.649 187.638 131.27 186.965 130.597C186.291 129.923 185.912 129.01 185.911 128.057V111.602C185.912 110.649 186.291 109.736 186.965 109.062C187.638 108.389 188.551 108.01 189.504 108.009H208.503C209.456 108.01 210.369 108.389 211.043 109.062C211.716 109.736 212.095 110.649 212.096 111.602V128.057C212.095 129.01 211.716 129.923 211.043 130.597C210.369 131.27 209.456 131.649 208.503 131.65Z" fill="#0B6FF4"/>
<path d="M286.865 117.638H220.647C220.215 117.638 219.8 117.466 219.494 117.16C219.188 116.854 219.016 116.439 219.016 116.006C219.016 115.574 219.188 115.159 219.494 114.853C219.8 114.547 220.215 114.375 220.647 114.375H286.865C287.297 114.375 287.712 114.547 288.018 114.853C288.324 115.159 288.496 115.574 288.496 116.006C288.496 116.439 288.324 116.854 288.018 117.16C287.712 117.466 287.297 117.638 286.865 117.638Z" fill="#E4E4E4"/>
<path d="M245.798 125.283H220.647C220.215 125.283 219.8 125.112 219.494 124.806C219.188 124.5 219.016 124.085 219.016 123.652C219.016 123.22 219.188 122.805 219.494 122.499C219.8 122.193 220.215 122.021 220.647 122.021H245.798C246.012 122.021 246.225 122.062 246.423 122.144C246.621 122.226 246.801 122.346 246.953 122.498C247.105 122.649 247.225 122.829 247.308 123.027C247.39 123.225 247.432 123.438 247.432 123.652C247.432 123.867 247.39 124.079 247.308 124.277C247.225 124.475 247.105 124.655 246.953 124.807C246.801 124.958 246.621 125.078 246.423 125.16C246.225 125.242 246.012 125.284 245.798 125.283Z" fill="#E4E4E4"/>
<path d="M208.503 180.361H189.504C188.551 180.36 187.638 179.981 186.965 179.307C186.291 178.634 185.912 177.721 185.911 176.768V160.313C185.912 159.36 186.291 158.447 186.965 157.773C187.638 157.1 188.551 156.721 189.504 156.72H208.503C209.456 156.721 210.369 157.1 211.043 157.773C211.716 158.447 212.095 159.36 212.096 160.313V176.768C212.095 177.721 211.716 178.634 211.043 179.307C210.369 179.981 209.456 180.36 208.503 180.361Z" fill="#0B6FF4"/>
<path d="M286.865 166.349H220.647C220.215 166.349 219.8 166.177 219.494 165.871C219.188 165.565 219.016 165.15 219.016 164.718C219.016 164.285 219.188 163.87 219.494 163.564C219.8 163.258 220.215 163.086 220.647 163.086H286.865C287.297 163.086 287.712 163.258 288.018 163.564C288.324 163.87 288.496 164.285 288.496 164.718C288.496 165.15 288.324 165.565 288.018 165.871C287.712 166.177 287.297 166.349 286.865 166.349Z" fill="#E4E4E4"/>
<path d="M245.798 173.995H220.647C220.215 173.995 219.8 173.823 219.494 173.517C219.188 173.211 219.016 172.796 219.016 172.363C219.016 171.931 219.188 171.516 219.494 171.21C219.8 170.904 220.215 170.732 220.647 170.732H245.798C246.012 170.732 246.225 170.774 246.423 170.855C246.621 170.937 246.801 171.057 246.953 171.209C247.105 171.36 247.225 171.54 247.308 171.738C247.39 171.937 247.432 172.149 247.432 172.363C247.432 172.578 247.39 172.79 247.308 172.988C247.225 173.186 247.105 173.366 246.953 173.518C246.801 173.669 246.621 173.789 246.423 173.871C246.225 173.953 246.012 173.995 245.798 173.995Z" fill="#E4E4E4"/>
<path d="M208.503 229.072H189.504C188.551 229.071 187.638 228.692 186.965 228.019C186.291 227.345 185.912 226.432 185.911 225.479V209.024C185.912 208.071 186.291 207.158 186.965 206.484C187.638 205.811 188.551 205.432 189.504 205.431H208.503C209.456 205.432 210.369 205.811 211.043 206.484C211.716 207.158 212.095 208.071 212.096 209.024V225.479C212.095 226.432 211.716 227.345 211.043 228.019C210.369 228.692 209.456 229.071 208.503 229.072Z" fill="#0B6FF4"/>
<path d="M286.865 215.06H220.647C220.215 215.06 219.8 214.888 219.494 214.582C219.188 214.276 219.016 213.861 219.016 213.429C219.016 212.996 219.188 212.581 219.494 212.275C219.8 211.969 220.215 211.797 220.647 211.797H286.865C287.297 211.797 287.712 211.969 288.018 212.275C288.324 212.581 288.496 212.996 288.496 213.429C288.496 213.861 288.324 214.276 288.018 214.582C287.712 214.888 287.297 215.06 286.865 215.06Z" fill="#E4E4E4"/>
<path d="M245.798 222.705H220.647C220.215 222.705 219.8 222.534 219.494 222.228C219.188 221.922 219.016 221.507 219.016 221.074C219.016 220.642 219.188 220.227 219.494 219.921C219.8 219.615 220.215 219.443 220.647 219.443H245.798C246.012 219.443 246.225 219.485 246.423 219.566C246.621 219.648 246.801 219.768 246.953 219.92C247.105 220.071 247.225 220.251 247.308 220.449C247.39 220.647 247.432 220.86 247.432 221.074C247.432 221.289 247.39 221.501 247.308 221.699C247.225 221.897 247.105 222.077 246.953 222.229C246.801 222.38 246.621 222.5 246.423 222.582C246.225 222.664 246.012 222.706 245.798 222.705Z" fill="#E4E4E4"/>
</g>
<defs>
<clipPath id="clip0_20_901">
<rect width="440" height="262.426" fill="white"/>
</clipPath>
</defs>
</svg>
