<svg width="440" height="279" viewBox="0 0 440 279" fill="none" xmlns="http://www.w3.org/2000/svg">
<g clip-path="url(#clip0_20_980)">
<path d="M387.451 254.298L387.88 244.663C392.347 242.275 397.329 241.014 402.395 240.989C395.423 246.688 396.295 257.675 391.568 265.34C388.545 270.159 383.494 273.342 377.842 273.99L372.008 277.561C370.388 268.53 372.804 259.242 378.619 252.144C380.251 250.193 382.121 248.455 384.187 246.971C385.584 250.655 387.451 254.298 387.451 254.298Z" fill="#F2F2F2"/>
<path d="M92.5408 243.739L78.4625 239.477C76.6162 231.976 76.6288 224.137 78.4994 216.642C84.2968 229.091 100.862 231.942 110.409 241.814C116.393 248.097 119.194 256.76 118.023 265.357L121.104 275.324C107.147 274.317 94.3301 267.248 86.0313 255.981C83.7618 252.835 81.8975 249.415 80.4825 245.803C86.4534 245.126 92.5408 243.739 92.5408 243.739Z" fill="#F2F2F2"/>
<path d="M338.67 275.986C338.667 276.278 338.551 276.557 338.346 276.764C338.141 276.969 337.863 277.083 337.573 277.082H333.165C332.562 277.084 332.071 276.597 332.069 275.993V142.694C332.069 139.756 331.082 137.371 329.871 137.365H55.4968C54.2798 137.371 53.2985 139.756 53.293 142.694V275.169C53.2912 275.733 52.8624 276.205 52.3008 276.26C51.4127 276.348 50.5246 276.424 49.6419 276.496C49.62 276.496 49.5981 276.501 49.5762 276.501C49.0937 276.545 48.6113 276.578 48.1289 276.616H48.1234C47.8712 276.161 47.63 275.695 47.3833 275.229C47.3042 275.071 47.2629 274.896 47.2627 274.719V135.781C47.2627 134.97 47.2956 134.153 47.3504 133.347C47.4286 132.24 47.5659 131.139 47.7616 130.047C48.688 124.954 50.7822 121.506 53.1614 121.495H332.201C332.548 121.497 332.891 121.57 333.209 121.708C333.677 121.915 334.1 122.211 334.454 122.58C334.935 123.08 335.346 123.642 335.676 124.252C336.849 126.319 337.688 129.4 337.984 132.985C337.984 133.018 337.99 133.051 337.99 133.084C338.067 133.972 338.105 134.876 338.099 135.781L338.176 147.529L338.226 154.535L338.374 176.519L338.428 184.325L338.67 275.986Z" fill="#E6E6E6"/>
<path d="M236.84 80.8535H208.878C208.054 80.8548 207.388 81.5233 207.388 82.347V126.518H238.333V82.347C238.334 81.5226 237.666 80.8539 236.841 80.8535H236.84ZM222.953 105.951C221.133 105.943 219.66 104.469 219.651 102.649V97.5546C219.651 95.731 221.13 94.2528 222.953 94.2528C224.777 94.2528 226.255 95.731 226.255 97.5546V102.649C226.246 104.469 224.773 105.943 222.953 105.951Z" fill="#CCCCCC"/>
<path d="M207.292 125.106V129.367C207.293 129.827 207.666 130.2 208.126 130.2H237.596C238.055 130.198 238.427 129.827 238.429 129.367V125.106H207.292Z" fill="#3F3D56"/>
<path d="M283.142 11.9192H163.616C161.478 11.9226 159.746 13.655 159.742 15.7931V96.4496C159.744 98.5882 161.478 100.321 163.616 100.323H283.142C285.281 100.321 287.014 98.5882 287.016 96.4496V15.7931C287.013 13.655 285.28 11.9226 283.142 11.9192Z" fill="#E6E6E6"/>
<path d="M282.144 14.7173H164.615C163.47 14.7198 162.543 15.6485 162.543 16.7934V95.4507C162.545 96.5941 163.472 97.5205 164.615 97.5225H282.144C283.288 97.5205 284.214 96.5941 284.216 95.4507V16.7933C284.216 15.6485 283.289 14.7198 282.144 14.7173Z" fill="white"/>
<path d="M259.252 131.684H189.328C188.618 131.684 188.042 131.108 188.042 130.397C188.042 130.308 188.051 130.219 188.069 130.132L189.154 124.979C189.282 124.385 189.805 123.96 190.413 123.958H258.167C258.774 123.96 259.298 124.385 259.425 124.979L260.51 130.132C260.657 130.827 260.212 131.51 259.517 131.656C259.43 131.674 259.341 131.684 259.252 131.684Z" fill="#CCCCCC"/>
<path d="M192.795 124.886H191.177C191.029 124.886 190.909 125.006 190.909 125.153V125.91C190.909 126.058 191.029 126.178 191.177 126.178H192.795C192.943 126.178 193.063 126.058 193.063 125.91V125.153C193.063 125.006 192.943 124.886 192.795 124.886Z" fill="#E6E6E6"/>
<path d="M197.103 124.886H195.484C195.336 124.886 195.217 125.006 195.217 125.153V125.91C195.217 126.058 195.336 126.178 195.484 126.178H197.103C197.25 126.178 197.37 126.058 197.37 125.91V125.153C197.37 125.006 197.25 124.886 197.103 124.886Z" fill="#E6E6E6"/>
<path d="M201.41 124.886H199.791C199.644 124.886 199.524 125.006 199.524 125.153V125.91C199.524 126.058 199.644 126.178 199.791 126.178H201.41C201.557 126.178 201.677 126.058 201.677 125.91V125.153C201.677 125.006 201.557 124.886 201.41 124.886Z" fill="#E6E6E6"/>
<path d="M205.717 124.886H204.098C203.951 124.886 203.831 125.006 203.831 125.153V125.91C203.831 126.058 203.951 126.178 204.098 126.178H205.717C205.865 126.178 205.984 126.058 205.984 125.91V125.153C205.984 125.006 205.865 124.886 205.717 124.886Z" fill="#E6E6E6"/>
<path d="M210.024 124.886H208.406C208.258 124.886 208.138 125.006 208.138 125.153V125.91C208.138 126.058 208.258 126.178 208.406 126.178H210.024C210.172 126.178 210.292 126.058 210.292 125.91V125.153C210.292 125.006 210.172 124.886 210.024 124.886Z" fill="#E6E6E6"/>
<path d="M214.331 124.886H212.713C212.565 124.886 212.445 125.006 212.445 125.153V125.91C212.445 126.058 212.565 126.178 212.713 126.178H214.331C214.479 126.178 214.599 126.058 214.599 125.91V125.153C214.599 125.006 214.479 124.886 214.331 124.886Z" fill="#E6E6E6"/>
<path d="M218.638 124.886H217.02C216.872 124.886 216.752 125.006 216.752 125.153V125.91C216.752 126.058 216.872 126.178 217.02 126.178H218.638C218.786 126.178 218.906 126.058 218.906 125.91V125.153C218.906 125.006 218.786 124.886 218.638 124.886Z" fill="#E6E6E6"/>
<path d="M222.945 124.886H221.327C221.179 124.886 221.059 125.006 221.059 125.153V125.91C221.059 126.058 221.179 126.178 221.327 126.178H222.945C223.093 126.178 223.213 126.058 223.213 125.91V125.153C223.213 125.006 223.093 124.886 222.945 124.886Z" fill="#E6E6E6"/>
<path d="M227.253 124.886H225.634C225.487 124.886 225.367 125.006 225.367 125.153V125.91C225.367 126.058 225.487 126.178 225.634 126.178H227.253C227.4 126.178 227.52 126.058 227.52 125.91V125.153C227.52 125.006 227.4 124.886 227.253 124.886Z" fill="#E6E6E6"/>
<path d="M231.56 124.886H229.941C229.794 124.886 229.674 125.006 229.674 125.153V125.91C229.674 126.058 229.794 126.178 229.941 126.178H231.56C231.708 126.178 231.827 126.058 231.827 125.91V125.153C231.827 125.006 231.708 124.886 231.56 124.886Z" fill="#E6E6E6"/>
<path d="M235.867 124.886H234.249C234.101 124.886 233.981 125.006 233.981 125.153V125.91C233.981 126.058 234.101 126.178 234.249 126.178H235.867C236.015 126.178 236.135 126.058 236.135 125.91V125.153C236.135 125.006 236.015 124.886 235.867 124.886Z" fill="#E6E6E6"/>
<path d="M240.174 124.886H238.556C238.408 124.886 238.288 125.006 238.288 125.153V125.91C238.288 126.058 238.408 126.178 238.556 126.178H240.174C240.322 126.178 240.442 126.058 240.442 125.91V125.153C240.442 125.006 240.322 124.886 240.174 124.886Z" fill="#E6E6E6"/>
<path d="M244.481 124.886H242.863C242.715 124.886 242.595 125.006 242.595 125.153V125.91C242.595 126.058 242.715 126.178 242.863 126.178H244.481C244.629 126.178 244.749 126.058 244.749 125.91V125.153C244.749 125.006 244.629 124.886 244.481 124.886Z" fill="#E6E6E6"/>
<path d="M248.788 124.886H247.17C247.022 124.886 246.902 125.006 246.902 125.153V125.91C246.902 126.058 247.022 126.178 247.17 126.178H248.788C248.936 126.178 249.056 126.058 249.056 125.91V125.153C249.056 125.006 248.936 124.886 248.788 124.886Z" fill="#E6E6E6"/>
<path d="M253.096 124.886H251.477C251.329 124.886 251.21 125.006 251.21 125.153V125.91C251.21 126.058 251.329 126.178 251.477 126.178H253.096C253.243 126.178 253.363 126.058 253.363 125.91V125.153C253.363 125.006 253.243 124.886 253.096 124.886Z" fill="#E6E6E6"/>
<path d="M257.403 124.886H255.784C255.637 124.886 255.517 125.006 255.517 125.153V125.91C255.517 126.058 255.637 126.178 255.784 126.178H257.403C257.551 126.178 257.67 126.058 257.67 125.91V125.153C257.67 125.006 257.551 124.886 257.403 124.886Z" fill="#E6E6E6"/>
<path d="M192.744 127.039H191.126C190.978 127.039 190.859 127.159 190.859 127.307V128.064C190.859 128.212 190.978 128.331 191.126 128.331H192.744C192.892 128.331 193.012 128.212 193.012 128.064V127.307C193.012 127.159 192.892 127.039 192.744 127.039Z" fill="#E6E6E6"/>
<path d="M197.052 127.039H195.433C195.285 127.039 195.166 127.159 195.166 127.307V128.064C195.166 128.212 195.285 128.331 195.433 128.331H197.052C197.199 128.331 197.319 128.212 197.319 128.064V127.307C197.319 127.159 197.199 127.039 197.052 127.039Z" fill="#E6E6E6"/>
<path d="M201.359 127.039H199.74C199.593 127.039 199.473 127.159 199.473 127.307V128.064C199.473 128.212 199.593 128.331 199.74 128.331H201.359C201.507 128.331 201.626 128.212 201.626 128.064V127.307C201.626 127.159 201.507 127.039 201.359 127.039Z" fill="#E6E6E6"/>
<path d="M205.666 127.039H204.048C203.9 127.039 203.78 127.159 203.78 127.307V128.064C203.78 128.212 203.9 128.331 204.048 128.331H205.666C205.814 128.331 205.933 128.212 205.933 128.064V127.307C205.933 127.159 205.814 127.039 205.666 127.039Z" fill="#E6E6E6"/>
<path d="M209.973 127.039H208.355C208.207 127.039 208.087 127.159 208.087 127.307V128.064C208.087 128.212 208.207 128.331 208.355 128.331H209.973C210.121 128.331 210.241 128.212 210.241 128.064V127.307C210.241 127.159 210.121 127.039 209.973 127.039Z" fill="#E6E6E6"/>
<path d="M214.28 127.039H212.662C212.514 127.039 212.394 127.159 212.394 127.307V128.064C212.394 128.212 212.514 128.331 212.662 128.331H214.28C214.428 128.331 214.548 128.212 214.548 128.064V127.307C214.548 127.159 214.428 127.039 214.28 127.039Z" fill="#E6E6E6"/>
<path d="M218.587 127.039H216.969C216.821 127.039 216.701 127.159 216.701 127.307V128.064C216.701 128.212 216.821 128.331 216.969 128.331H218.587C218.735 128.331 218.855 128.212 218.855 128.064V127.307C218.855 127.159 218.735 127.039 218.587 127.039Z" fill="#E6E6E6"/>
<path d="M222.895 127.039H221.276C221.128 127.039 221.009 127.159 221.009 127.307V128.064C221.009 128.212 221.128 128.331 221.276 128.331H222.895C223.042 128.331 223.162 128.212 223.162 128.064V127.307C223.162 127.159 223.042 127.039 222.895 127.039Z" fill="#E6E6E6"/>
<path d="M227.202 127.039H225.583C225.436 127.039 225.316 127.159 225.316 127.307V128.064C225.316 128.212 225.436 128.331 225.583 128.331H227.202C227.35 128.331 227.469 128.212 227.469 128.064V127.307C227.469 127.159 227.35 127.039 227.202 127.039Z" fill="#E6E6E6"/>
<path d="M231.509 127.039H229.891C229.743 127.039 229.623 127.159 229.623 127.307V128.064C229.623 128.212 229.743 128.331 229.891 128.331H231.509C231.657 128.331 231.777 128.212 231.777 128.064V127.307C231.777 127.159 231.657 127.039 231.509 127.039Z" fill="#E6E6E6"/>
<path d="M235.816 127.039H234.198C234.05 127.039 233.93 127.159 233.93 127.307V128.064C233.93 128.212 234.05 128.331 234.198 128.331H235.816C235.964 128.331 236.084 128.212 236.084 128.064V127.307C236.084 127.159 235.964 127.039 235.816 127.039Z" fill="#E6E6E6"/>
<path d="M240.123 127.039H238.505C238.357 127.039 238.237 127.159 238.237 127.307V128.064C238.237 128.212 238.357 128.331 238.505 128.331H240.123C240.271 128.331 240.391 128.212 240.391 128.064V127.307C240.391 127.159 240.271 127.039 240.123 127.039Z" fill="#E6E6E6"/>
<path d="M244.43 127.039H242.812C242.664 127.039 242.544 127.159 242.544 127.307V128.064C242.544 128.212 242.664 128.331 242.812 128.331H244.43C244.578 128.331 244.698 128.212 244.698 128.064V127.307C244.698 127.159 244.578 127.039 244.43 127.039Z" fill="#E6E6E6"/>
<path d="M248.738 127.039H247.119C246.971 127.039 246.852 127.159 246.852 127.307V128.064C246.852 128.212 246.971 128.331 247.119 128.331H248.738C248.885 128.331 249.005 128.212 249.005 128.064V127.307C249.005 127.159 248.885 127.039 248.738 127.039Z" fill="#E6E6E6"/>
<path d="M253.045 127.039H251.426C251.279 127.039 251.159 127.159 251.159 127.307V128.064C251.159 128.212 251.279 128.331 251.426 128.331H253.045C253.192 128.331 253.312 128.212 253.312 128.064V127.307C253.312 127.159 253.192 127.039 253.045 127.039Z" fill="#E6E6E6"/>
<path d="M257.352 127.039H255.734C255.586 127.039 255.466 127.159 255.466 127.307V128.064C255.466 128.212 255.586 128.331 255.734 128.331H257.352C257.5 128.331 257.62 128.212 257.62 128.064V127.307C257.62 127.159 257.5 127.039 257.352 127.039Z" fill="#E6E6E6"/>
<path d="M228.494 129.624H211.8C211.653 129.624 211.533 129.743 211.533 129.891V130.648C211.533 130.796 211.653 130.916 211.8 130.916H228.494C228.642 130.916 228.761 130.796 228.761 130.648V129.891C228.761 129.743 228.642 129.624 228.494 129.624Z" fill="#E6E6E6"/>
<path d="M276.236 25.5543H166.265C166.023 25.549 165.832 25.3489 165.837 25.1074C165.842 24.8733 166.031 24.6848 166.265 24.6797H276.236C276.478 24.685 276.67 24.8851 276.664 25.1266C276.659 25.3607 276.471 25.5492 276.236 25.5543Z" fill="#CACACA"/>
<path d="M173.75 22.4469C175.166 22.4469 176.313 21.2739 176.313 19.8268C176.313 18.3798 175.166 17.2068 173.75 17.2068C172.335 17.2068 171.188 18.3798 171.188 19.8268C171.188 21.2739 172.335 22.4469 173.75 22.4469Z" fill="#CCCCCC"/>
<path d="M182.604 22.4469C184.02 22.4469 185.167 21.2739 185.167 19.8268C185.167 18.3798 184.02 17.2068 182.604 17.2068C181.189 17.2068 180.041 18.3798 180.041 19.8268C180.041 21.2739 181.189 22.4469 182.604 22.4469Z" fill="#CCCCCC"/>
<path d="M191.458 22.4469C192.874 22.4469 194.021 21.2739 194.021 19.8268C194.021 18.3798 192.874 17.2068 191.458 17.2068C190.043 17.2068 188.895 18.3798 188.895 19.8268C188.895 21.2739 190.043 22.4469 191.458 22.4469Z" fill="#CCCCCC"/>
<path d="M221.138 32.1855L220.783 31.1477L266.206 7.54614L266.561 8.5839L221.138 32.1855Z" fill="#3F3D56"/>
<path d="M358.19 75.9009L357.835 74.8632L385.168 51.3811L385.523 52.4183L358.19 75.9009Z" fill="#3F3D56"/>
<path d="M305.677 81.3671L260.254 57.7655L260.609 56.7278L306.032 80.3293L305.677 81.3671Z" fill="#3F3D56"/>
<path d="M328.93 64.9437L302.3 21.2261L303.142 20.5227L329.771 64.2403L328.93 64.9437Z" fill="#3F3D56"/>
<path d="M349.711 7.97863L323.777 7.85912V6.7627L349.711 6.8822V7.97863Z" fill="#3F3D56"/>
<path d="M396.691 14.7794H367.636C363.7 14.7794 360.51 11.5886 360.51 7.65262C360.51 3.71663 363.7 0.525879 367.636 0.525879H396.691C400.627 0.525879 403.818 3.71663 403.818 7.65262C403.818 11.5886 400.627 14.7794 396.691 14.7794Z" fill="#0B6FF4"/>
<path d="M432.873 56.4434H403.818C399.882 56.4434 396.691 53.2527 396.691 49.3167C396.691 45.3807 399.882 42.1899 403.818 42.1899H432.873C436.809 42.1899 440 45.3807 440 49.3167C440 53.2527 436.809 56.4434 432.873 56.4434Z" fill="#0B6FF4"/>
<path d="M385.893 85.824L359.959 85.7051V84.6086L385.893 84.7276V85.824Z" fill="#3F3D56"/>
<path d="M432.873 92.6253H403.818C399.882 92.6253 396.691 89.4345 396.691 85.4986C396.691 81.5626 399.882 78.3718 403.818 78.3718H432.873C436.809 78.3718 440 81.5626 440 85.4986C440 89.4345 436.809 92.6253 432.873 92.6253Z" fill="#0B6FF4"/>
<path d="M347.901 87.7137H318.845C314.91 87.7137 311.719 84.5229 311.719 80.5869C311.719 76.651 314.91 73.4602 318.845 73.4602H347.901C351.837 73.4602 355.027 76.651 355.027 80.5869C355.027 84.5229 351.837 87.7137 347.901 87.7137Z" fill="#0B6FF4"/>
<path d="M308.429 14.2535H279.374C275.438 14.2535 272.248 11.0627 272.248 7.12674C272.248 3.19075 275.438 0 279.374 0H308.429C312.365 0 315.556 3.19075 315.556 7.12674C315.556 11.0627 312.365 14.2535 308.429 14.2535Z" fill="#0B6FF4"/>
<path d="M169.552 136.603H136.659C134.237 136.603 132.274 138.567 132.274 140.989C132.274 143.411 134.237 145.375 136.659 145.375H148.72V179.364H157.491V145.375H169.552C171.974 145.375 173.938 143.411 173.938 140.989C173.938 138.567 171.974 136.603 169.552 136.603Z" fill="#3F3D56"/>
<path d="M191.262 198.187H103.283C85.6537 198.123 70.7381 185.14 68.2437 167.687L65.1295 156.232C58.6837 132.494 48.8654 109.804 35.9749 88.8553C30.0831 79.287 27.0506 70.0249 33.9384 61.1075C33.997 61.0315 34.0547 60.9567 34.1114 60.8829C39.6358 53.6924 67.1325 52.1359 76.0964 51.8331C76.4505 51.8211 76.806 51.8151 77.1628 51.8152H131.885C132.242 51.8152 132.597 51.8212 132.951 51.8331C142.796 52.1201 151.688 57.7882 156.105 66.5914C160.818 75.5792 160.217 86.4287 154.539 94.8406C135.317 123.715 129.432 141.821 135.457 153.546C141.285 164.887 159.151 170.685 191.681 171.793C200.423 172.091 204.435 178.898 204.463 185.096C204.49 191.135 200.633 197.801 192.099 198.17C191.822 198.182 191.543 198.187 191.262 198.187Z" fill="#3F3D56"/>
<path d="M118.229 276.307H151.122C153.544 276.307 155.507 274.344 155.507 271.922C155.507 269.5 153.544 267.536 151.122 267.536H139.061V193.528H130.29V267.536H118.229C115.807 267.536 113.843 269.5 113.843 271.922C113.843 274.344 115.807 276.307 118.229 276.307Z" fill="#3F3D56"/>
<path d="M148 246.471L153.666 249.549L168.666 228.809L160.303 224.266L148 246.471Z" fill="#A0616A"/>
<path d="M150.727 239.081L161.014 242.302L159.377 246.611L166.431 256.849C167.333 258.158 167.003 259.951 165.694 260.854C164.914 261.391 163.921 261.511 163.037 261.175L151.062 256.625L150.617 251.578L148.192 255.535L143.677 253.819L150.727 239.081Z" fill="#2F2E41"/>
<path d="M162.317 37.3197C162.824 40.7993 160.415 44.0316 156.935 44.5391C156.564 44.5933 156.189 44.6145 155.814 44.6026L133.967 91.0883L127.115 81.5332L149.605 37.577C149.951 34.0584 153.083 31.4861 156.602 31.8316C159.546 32.1208 161.909 34.3896 162.317 37.3197Z" fill="#A0616A"/>
<path d="M89.816 100.487C89.816 100.487 89.2305 108.608 98.4147 110.201C107.599 111.794 132.151 96.2683 136.183 93.8844C140.216 91.5005 147.73 61.5068 147.73 61.5068L141.195 50.4539C133.127 60.6599 126.791 70.071 126.406 76.7515L89.816 100.487Z" fill="#0B6FF4"/>
<path d="M100.419 128.461L102.402 136.983C102.402 136.983 102.422 144.842 103.813 146.291C105.195 147.733 135.585 144.837 135.585 144.837C135.585 144.837 132.363 132.174 132.406 122.592L100.419 128.461Z" fill="#A0616A"/>
<path d="M164.618 237.474L153.654 231.444C153.445 217.177 162.027 197.869 172.205 177.646C149.442 181.561 127.967 182.815 109.392 178.08C103.046 176.404 99.2223 169.944 100.805 163.575C100.877 163.275 100.961 162.977 101.056 162.683C103.279 155.9 98.2943 151.649 102.879 144.189C114.938 140.07 126.393 138.907 136.868 142.544L143.432 157.056L175.964 152.846C182.542 152.06 188.512 156.755 189.299 163.333C189.302 163.363 189.306 163.393 189.309 163.423C189.353 163.776 189.381 164.131 189.395 164.487C182.817 195.325 175.441 223.073 164.618 237.474Z" fill="#2F2E41"/>
<path d="M96.0027 74.5042L108.535 73.7642C109.619 73.7002 110.623 74.3306 111.037 75.3338L114.579 83.9197L129.299 96.0857C129.299 96.0857 135.126 103.502 135.14 113.08C135.154 122.658 137.208 144.826 137.208 144.826C137.208 144.826 128.702 132.854 123.452 136.039C122.559 136.58 122.245 137.688 121.31 138.248C120.843 138.527 119.765 138.256 119.294 138.536C112.059 142.83 104.515 147.025 103.81 146.29C102.426 144.845 100.747 137.465 100.747 137.465L89.2751 95.3145C88.0157 90.824 88.83 86.0057 91.495 82.1784C92.2964 81.05 93.1361 80.2105 93.9165 80.0717C95.6687 79.6986 94.7366 75.7716 96.0027 74.5042Z" fill="#0B6FF4"/>
<path d="M202.613 264.325L207.903 260.647L195.918 238.037L188.111 243.465L202.613 264.325Z" fill="#A0616A"/>
<path d="M203.412 249.154L195.121 256.565C181.938 241.875 171.972 221.274 163.526 197.878C141.397 191.397 124.709 180.944 110.14 168.534C105.198 164.352 101.493 158.979 105.708 153.885C105.905 153.647 106.111 153.417 106.326 153.194C111.302 148.079 123.923 149.054 131.315 144.368L147.828 162.019L146.79 166.751L177.806 177.257C184.05 179.445 187.337 186.281 185.149 192.524C185.138 192.555 185.128 192.586 185.117 192.616C185 192.953 184.87 193.284 184.725 193.609L203.412 249.154Z" fill="#2F2E41"/>
<path d="M199.528 262.834L207.997 256.165L210.628 259.951L223.06 259.913C224.651 259.908 225.944 261.193 225.949 262.783C225.952 263.729 225.49 264.617 224.713 265.157L214.195 272.469L209.779 269.985L211.674 274.221L207.708 276.978L199.528 262.834Z" fill="#2F2E41"/>
<path d="M114.509 180.73C111.272 179.356 109.762 175.618 111.136 172.381C111.282 172.036 111.459 171.705 111.664 171.391L83.2916 128.575L95.0158 127.683L120.893 169.735C123.72 171.858 124.291 175.871 122.167 178.698C120.391 181.063 117.225 181.904 114.509 180.73Z" fill="#A0616A"/>
<path d="M98.1962 85.9653C98.1962 85.9653 91.5611 81.2464 85.4291 88.2668C79.297 95.2871 79.8091 124.332 79.7515 129.016C79.7334 130.482 81.8513 133.647 84.7693 137.303C86.0793 138.944 87.5505 140.684 89.0621 142.414C89.9369 143.415 89.1832 145.498 90.0615 146.471C90.9351 147.439 93.4408 147.296 94.2717 148.194C98.2156 152.456 101.42 155.701 101.42 155.701L114.259 155.859C114.404 146.315 107.867 137.795 99.4704 129.561L98.1962 85.9653Z" fill="#0B6FF4"/>
<path d="M85.2545 44.4093C84.0389 45.2867 82.7601 46.1905 81.2769 46.4079C79.7936 46.6253 78.0572 45.9083 77.6467 44.4665C77.1448 42.7036 78.7367 41.0985 80.1674 39.9527L84.7044 36.3197C85.5352 35.5829 86.4731 34.9765 87.486 34.5212C88.5166 34.0678 89.6974 34.1072 90.6954 34.6285C91.6869 35.2981 92.2603 36.4339 92.2102 37.6292C92.1455 38.8074 91.7567 39.9449 91.0866 40.9161C89.3847 43.5688 86.6737 45.4117 83.581 46.0182" fill="#2F2E41"/>
<path d="M119.665 138.796H86.7723C84.3501 138.796 82.3866 140.76 82.3866 143.182C82.3866 145.604 84.3501 147.568 86.7723 147.568H98.8329V181.557H107.604V147.568H119.665C122.087 147.568 124.051 145.604 124.051 143.182C124.051 140.76 122.087 138.796 119.665 138.796Z" fill="#3F3D56"/>
<path d="M87.2698 35.2081C87.4021 31.9198 83.8981 29.3161 80.6146 29.5219C77.3311 29.7277 74.5085 32.0374 72.6465 34.7506C70.785 37.4616 69.6667 40.6017 68.2002 43.5452C66.7337 46.4887 64.7808 49.3706 61.8666 50.896C58.953 52.419 54.8973 52.1473 52.8834 49.5468C51.6134 51.4728 51.3372 53.8886 52.1397 56.0515C52.9642 58.1865 54.5017 59.9705 56.4915 61.101C57.2836 61.5708 58.1296 61.9428 59.0111 62.209C59.3746 61.2279 59.886 60.3081 60.5276 59.4817C60.2378 60.4601 60.1272 61.4828 60.2011 62.5005C61.5598 62.761 62.9575 62.7389 64.3073 62.4358C66.9949 61.8346 69.242 60.002 70.3715 57.4903C71.603 54.575 70.9758 51.2512 71.2391 48.0977C71.5003 44.9436 73.4009 41.343 76.5656 41.2916C78.9757 41.2519 78.6567 41.4506 80.1838 43.3154" fill="#2F2E41"/>
<path d="M109.155 52.4866C109.155 60.3586 102.773 66.7401 94.9014 66.7401C87.0294 66.7401 79.5515 57.6176 79.5515 49.7456C79.5515 41.8736 87.0294 38.2332 94.9014 38.2332C102.773 38.2332 109.155 44.6146 109.155 52.4866Z" fill="#2F2E41"/>
<path d="M101.925 69.5679C109.283 68.0624 114.027 60.8773 112.522 53.5195C111.016 46.1618 103.831 41.4176 96.4733 42.9232C89.1155 44.4287 84.3714 51.6138 85.8769 58.9715C87.3824 66.3293 94.5675 71.0734 101.925 69.5679Z" fill="#A0616A"/>
<path d="M116.282 54.1314C112.256 55.2306 108.192 56.3828 106.622 54.1314C106.317 52.6386 105.739 51.215 104.917 49.9321C104.763 51.3688 104.425 52.78 103.914 54.1314C98.8282 55.2369 94.075 55.5011 89.9675 54.1314C89.4028 55.1529 89.0749 56.2883 89.0081 57.4536C88.805 57.326 88.5924 57.2142 88.3722 57.1192C88.1081 56.9699 87.7923 56.9419 87.5061 57.0424C87.3081 57.162 87.1765 57.3664 87.1497 57.5961C87.1225 57.8248 87.1336 58.0564 87.1826 58.2814C87.2401 59.0655 87.4744 59.8264 87.8679 60.5071C88.1826 60.9812 88.6818 61.3014 89.2439 61.3897C89.814 64.5968 94.3532 68.9331 94.3532 68.9331C80.6479 69.4813 80.6479 60.1837 80.6479 51.3904L82.2926 48.1011H87.7747V40.9744H103.125C110.39 40.9763 116.28 46.8658 116.282 54.1314Z" fill="#2F2E41"/>
<path d="M241.184 277.894L0.656151 278.063C0.295654 278.064 0.00188943 277.774 9.07048e-06 277.413C-0.00187129 277.053 0.288845 276.759 0.649343 276.757H0.656151L241.184 276.589C241.544 276.59 241.835 276.883 241.834 277.243C241.833 277.602 241.542 277.893 241.184 277.894Z" fill="#CACACA"/>
<path d="M401.809 277.894L277.502 278.063C277.142 278.064 276.848 277.774 276.846 277.413C276.844 277.053 277.135 276.759 277.496 276.757H277.502L401.809 276.589C402.17 276.587 402.463 276.879 402.464 277.239C402.465 277.6 402.174 277.893 401.813 277.894H401.809Z" fill="#CACACA"/>
<path d="M246.681 81.1351H199.56C195.468 81.1306 192.151 77.814 192.147 73.7214V42.4991C192.151 38.4066 195.468 35.09 199.56 35.0854H246.681C250.773 35.09 254.09 38.4066 254.094 42.4991V73.7214C254.09 77.814 250.773 81.1306 246.681 81.1351ZM199.56 36.1819C196.073 36.1858 193.247 39.0119 193.243 42.4991V73.7214C193.247 77.2087 196.073 80.0347 199.56 80.0387H246.681C250.168 80.0347 252.994 77.2087 252.998 73.7214V42.4991C252.994 39.0118 250.168 36.1858 246.681 36.1819L199.56 36.1819Z" fill="#E6E6E6"/>
<path d="M213.522 44.9534H200.918V46.0498H213.522V44.9534Z" fill="#E6E6E6"/>
<path d="M228.877 49.3389H200.918V50.4353H228.877V49.3389Z" fill="#E6E6E6"/>
<path d="M228.877 53.1765H200.918V54.2729H228.877V53.1765Z" fill="#E6E6E6"/>
<path d="M236.552 57.0139H200.918V58.1103H236.552V57.0139Z" fill="#E6E6E6"/>
<path d="M219.557 60.8513H200.918V61.9477H219.557V60.8513Z" fill="#E6E6E6"/>
<path d="M234.907 64.689H200.918V65.7854H234.907V64.689Z" fill="#E6E6E6"/>
<path d="M206.948 68.5264H200.918V69.6228H206.948V68.5264Z" fill="#E6E6E6"/>
<path d="M200.507 21.3574C200.454 21.3574 200.401 21.3368 200.361 21.2958L199.191 20.1C199.113 20.0203 199.113 19.893 199.191 19.8133L200.361 18.6177C200.44 18.5368 200.57 18.5355 200.651 18.6145C200.732 18.6937 200.733 18.8235 200.654 18.9044L199.624 19.9567L200.654 21.0091C200.733 21.09 200.732 21.2198 200.651 21.299C200.611 21.338 200.559 21.3574 200.507 21.3574Z" fill="#CCCCCC"/>
<path d="M202.473 21.3573C202.421 21.3573 202.37 21.3379 202.33 21.2989C202.249 21.2197 202.247 21.09 202.327 21.009L203.356 19.9566L202.327 18.9043C202.247 18.8234 202.249 18.6936 202.33 18.6144C202.411 18.5351 202.54 18.5366 202.62 18.6176L203.789 19.8133C203.867 19.8929 203.867 20.0203 203.789 20.0999L202.62 21.2957C202.579 21.3367 202.526 21.3573 202.473 21.3573Z" fill="#CCCCCC"/>
<path d="M263.666 18.3896H261.491C261.243 18.3896 261.042 18.5905 261.042 18.8386V21.0156C261.042 21.2637 261.243 21.4646 261.491 21.4646H263.666C263.914 21.4646 264.117 21.2637 264.117 21.0156V18.8386C264.117 18.5905 263.914 18.3896 263.666 18.3896Z" fill="#CCCCCC"/>
<path d="M258.336 18.3896H256.161C255.913 18.3896 255.712 18.5905 255.712 18.8386V21.0156C255.712 21.2637 255.913 21.4646 256.161 21.4646H258.336C258.584 21.4646 258.787 21.2637 258.787 21.0156V18.8386C258.787 18.5905 258.584 18.3896 258.336 18.3896Z" fill="#CCCCCC"/>
<path d="M268.689 18.4922H266.514C266.265 18.4922 266.065 18.6931 266.065 18.9411V21.1182C266.065 21.3662 266.265 21.5671 266.514 21.5671H268.689C268.937 21.5671 269.139 21.3662 269.139 21.1182V18.9411C269.139 18.6931 268.937 18.4922 268.689 18.4922Z" fill="#CCCCCC"/>
<path d="M235.905 19.3203H218.52C218.216 19.3203 217.972 19.5663 217.972 19.8677C217.972 20.169 218.216 20.415 218.52 20.415H235.905C236.207 20.415 236.453 20.169 236.453 19.8677C236.453 19.5663 236.207 19.3203 235.905 19.3203Z" fill="#CCCCCC"/>
</g>
<defs>
<clipPath id="clip0_20_980">
<rect width="440" height="278.063" fill="white"/>
</clipPath>
</defs>
</svg>
